<?xml version="1.0" encoding="us-ascii" standalone="no"?><svg xmlns="http://www.w3.org/2000/svg" xmlns:xlink="http://www.w3.org/1999/xlink" contentStyleType="text/css" height="967px" preserveAspectRatio="none" style="width:795px;height:967px;background:#FFFFFF;" version="1.1" viewBox="0 0 795 967" width="795px" zoomAndPan="magnify"><defs/><g><text fill="#000000" font-family="sans-serif" font-size="14" font-weight="bold" lengthAdjust="spacing" textLength="371" x="205" y="24.5332">S&#417; &#273;&#7891; quan h&#7879; th&#7921;c th&#7875; (ERD) - C&#417; s&#7903; d&#7919; li&#7879;u HASAKI</text><!--class LoaiTaiKhoan--><g id="elem_LoaiTaiKhoan"><rect codeLine="14" fill="#FFFFFF" height="96.4375" id="LoaiTaiKhoan" rx="2.5" ry="2.5" style="stroke:#FF5E8E;stroke-width:0.5;" width="229" x="331" y="45.6094"/><rect fill="#FFF0F3" height="27.6094" rx="2.5" ry="2.5" style="stroke:#FFF0F3;stroke-width:0.5;" width="229" x="331" y="45.6094"/><rect fill="#FFF0F3" height="2.5" style="stroke:#FFF0F3;stroke-width:0.5;" width="229" x="331" y="70.7188"/><rect codeLine="14" fill="none" height="96.4375" id="LoaiTaiKhoan" rx="2.5" ry="2.5" style="stroke:#FF5E8E;stroke-width:0.5;" width="229" x="331" y="45.6094"/><text fill="#000000" font-family="sans-serif" font-size="14" lengthAdjust="spacing" textLength="88" x="401.5" y="65.1426">LoaiTaiKhoan</text><line style="stroke:#FF5E8E;stroke-width:0.5;" x1="332" x2="559" y1="73.2188" y2="73.2188"/><text fill="#FF5E8E" font-family="sans-serif" font-size="14" font-weight="bold" lengthAdjust="spacing" textLength="19" x="337" y="91.752">PK</text><text fill="#000000" font-family="sans-serif" font-size="14" lengthAdjust="spacing" textLength="140" x="360" y="91.752">MaLoaiTaiKhoan : INT</text><line style="stroke:#FF5E8E;stroke-width:1.0;" x1="332" x2="559" y1="98.8281" y2="98.8281"/><text fill="#000000" font-family="sans-serif" font-size="14" lengthAdjust="spacing" textLength="217" x="337" y="117.3613">TenLoaiTaiKhoan : VARCHAR(50)</text><text fill="#000000" font-family="sans-serif" font-size="14" lengthAdjust="spacing" textLength="148" x="337" y="134.9707">MoTa : VARCHAR(255)</text></g><!--class TaiKhoan--><g id="elem_TaiKhoan"><rect codeLine="21" fill="#FFFFFF" height="149.2656" id="TaiKhoan" rx="2.5" ry="2.5" style="stroke:#FF5E8E;stroke-width:0.5;" width="273" x="309" y="201.6094"/><rect fill="#FFF0F3" height="27.6094" rx="2.5" ry="2.5" style="stroke:#FFF0F3;stroke-width:0.5;" width="273" x="309" y="201.6094"/><rect fill="#FFF0F3" height="2.5" style="stroke:#FFF0F3;stroke-width:0.5;" width="273" x="309" y="226.7188"/><rect codeLine="21" fill="none" height="149.2656" id="TaiKhoan" rx="2.5" ry="2.5" style="stroke:#FF5E8E;stroke-width:0.5;" width="273" x="309" y="201.6094"/><text fill="#000000" font-family="sans-serif" font-size="14" lengthAdjust="spacing" textLength="61" x="415" y="221.1426">TaiKhoan</text><line style="stroke:#FF5E8E;stroke-width:0.5;" x1="310" x2="581" y1="229.2188" y2="229.2188"/><text fill="#FF5E8E" font-family="sans-serif" font-size="14" font-weight="bold" lengthAdjust="spacing" textLength="19" x="315" y="247.752">PK</text><text fill="#000000" font-family="sans-serif" font-size="14" lengthAdjust="spacing" textLength="113" x="338" y="247.752">MaTaiKhoan : INT</text><line style="stroke:#FF5E8E;stroke-width:1.0;" x1="310" x2="581" y1="254.8281" y2="254.8281"/><text fill="#000000" font-family="sans-serif" font-size="14" lengthAdjust="spacing" textLength="261" x="315" y="273.3613">TenTaiKhoan : VARCHAR(100) &#171;unique&#187;</text><text fill="#000000" font-family="sans-serif" font-size="14" lengthAdjust="spacing" textLength="168" x="315" y="290.9707">MatKhau : VARCHAR(255)</text><text fill="#0066CC" font-family="sans-serif" font-size="14" lengthAdjust="spacing" textLength="18" x="315" y="308.5801">FK</text><text fill="#000000" font-family="sans-serif" font-size="14" lengthAdjust="spacing" textLength="121" x="337" y="308.5801">LoaiTaiKhoan : INT</text><text fill="#000000" font-family="sans-serif" font-size="14" lengthAdjust="spacing" textLength="129" x="315" y="326.1895">TrangThai : TINYINT</text><text fill="#000000" font-family="sans-serif" font-size="14" lengthAdjust="spacing" textLength="138" x="315" y="343.7988">NgayTao : DATETIME</text></g><!--class NhanVien--><g id="elem_NhanVien"><rect codeLine="31" fill="#FFFFFF" height="149.2656" id="NhanVien" rx="2.5" ry="2.5" style="stroke:#FF5E8E;stroke-width:0.5;" width="167" x="605" y="410.6094"/><rect fill="#FFF0F3" height="27.6094" rx="2.5" ry="2.5" style="stroke:#FFF0F3;stroke-width:0.5;" width="167" x="605" y="410.6094"/><rect fill="#FFF0F3" height="2.5" style="stroke:#FFF0F3;stroke-width:0.5;" width="167" x="605" y="435.7188"/><rect codeLine="31" fill="none" height="149.2656" id="NhanVien" rx="2.5" ry="2.5" style="stroke:#FF5E8E;stroke-width:0.5;" width="167" x="605" y="410.6094"/><text fill="#000000" font-family="sans-serif" font-size="14" lengthAdjust="spacing" textLength="61" x="658" y="430.1426">NhanVien</text><line style="stroke:#FF5E8E;stroke-width:0.5;" x1="606" x2="771" y1="438.2188" y2="438.2188"/><text fill="#FF5E8E" font-family="sans-serif" font-size="14" font-weight="bold" lengthAdjust="spacing" textLength="19" x="611" y="456.752">PK</text><text fill="#000000" font-family="sans-serif" font-size="14" lengthAdjust="spacing" textLength="70" x="634" y="456.752">MaNV : INT</text><line style="stroke:#FF5E8E;stroke-width:1.0;" x1="606" x2="771" y1="463.8281" y2="463.8281"/><text fill="#000000" font-family="sans-serif" font-size="14" lengthAdjust="spacing" textLength="155" x="611" y="482.3613">TenNV : VARCHAR(100)</text><text fill="#000000" font-family="sans-serif" font-size="14" lengthAdjust="spacing" textLength="132" x="611" y="499.9707">SDT : VARCHAR(15)</text><text fill="#000000" font-family="sans-serif" font-size="14" lengthAdjust="spacing" textLength="146" x="611" y="517.5801">Email : VARCHAR(100)</text><text fill="#000000" font-family="sans-serif" font-size="14" lengthAdjust="spacing" textLength="144" x="611" y="535.1895">CMND : VARCHAR(20)</text><text fill="#0066CC" font-family="sans-serif" font-size="14" lengthAdjust="spacing" textLength="18" x="611" y="552.7988">FK</text><text fill="#000000" font-family="sans-serif" font-size="14" lengthAdjust="spacing" textLength="113" x="633" y="552.7988">MaTaiKhoan : INT</text></g><!--class KhachHang--><g id="elem_KhachHang"><rect codeLine="41" fill="#FFFFFF" height="149.2656" id="KhachHang" rx="2.5" ry="2.5" style="stroke:#FF5E8E;stroke-width:0.5;" width="222" x="97.5" y="410.6094"/><rect fill="#FFF0F3" height="27.6094" rx="2.5" ry="2.5" style="stroke:#FFF0F3;stroke-width:0.5;" width="222" x="97.5" y="410.6094"/><rect fill="#FFF0F3" height="2.5" style="stroke:#FFF0F3;stroke-width:0.5;" width="222" x="97.5" y="435.7188"/><rect codeLine="41" fill="none" height="149.2656" id="KhachHang" rx="2.5" ry="2.5" style="stroke:#FF5E8E;stroke-width:0.5;" width="222" x="97.5" y="410.6094"/><text fill="#000000" font-family="sans-serif" font-size="14" lengthAdjust="spacing" textLength="73" x="172" y="430.1426">KhachHang</text><line style="stroke:#FF5E8E;stroke-width:0.5;" x1="98.5" x2="318.5" y1="438.2188" y2="438.2188"/><text fill="#FF5E8E" font-family="sans-serif" font-size="14" font-weight="bold" lengthAdjust="spacing" textLength="19" x="103.5" y="456.752">PK</text><text fill="#000000" font-family="sans-serif" font-size="14" lengthAdjust="spacing" textLength="125" x="126.5" y="456.752">MaKhachHang : INT</text><line style="stroke:#FF5E8E;stroke-width:1.0;" x1="98.5" x2="318.5" y1="463.8281" y2="463.8281"/><text fill="#000000" font-family="sans-serif" font-size="14" lengthAdjust="spacing" textLength="210" x="103.5" y="482.3613">TenKhachHang : VARCHAR(100)</text><text fill="#000000" font-family="sans-serif" font-size="14" lengthAdjust="spacing" textLength="132" x="103.5" y="499.9707">SDT : VARCHAR(15)</text><text fill="#000000" font-family="sans-serif" font-size="14" lengthAdjust="spacing" textLength="146" x="103.5" y="517.5801">Email : VARCHAR(100)</text><text fill="#0066CC" font-family="sans-serif" font-size="14" lengthAdjust="spacing" textLength="18" x="103.5" y="535.1895">FK</text><text fill="#000000" font-family="sans-serif" font-size="14" lengthAdjust="spacing" textLength="113" x="125.5" y="535.1895">MaTaiKhoan : INT</text><text fill="#000000" font-family="sans-serif" font-size="14" lengthAdjust="spacing" textLength="163" x="103.5" y="552.7988">NgayDangKy : DATETIME</text></g><!--class DanhMuc--><g id="elem_DanhMuc"><rect codeLine="51" fill="#FFFFFF" height="96.4375" id="DanhMuc" rx="2.5" ry="2.5" style="stroke:#FF5E8E;stroke-width:0.5;" width="209" x="355" y="437.1094"/><rect fill="#FFF0F3" height="27.6094" rx="2.5" ry="2.5" style="stroke:#FFF0F3;stroke-width:0.5;" width="209" x="355" y="437.1094"/><rect fill="#FFF0F3" height="2.5" style="stroke:#FFF0F3;stroke-width:0.5;" width="209" x="355" y="462.2188"/><rect codeLine="51" fill="none" height="96.4375" id="DanhMuc" rx="2.5" ry="2.5" style="stroke:#FF5E8E;stroke-width:0.5;" width="209" x="355" y="437.1094"/><text fill="#000000" font-family="sans-serif" font-size="14" lengthAdjust="spacing" textLength="60" x="429.5" y="456.6426">DanhMuc</text><line style="stroke:#FF5E8E;stroke-width:0.5;" x1="356" x2="563" y1="464.7188" y2="464.7188"/><text fill="#FF5E8E" font-family="sans-serif" font-size="14" font-weight="bold" lengthAdjust="spacing" textLength="19" x="361" y="483.252">PK</text><text fill="#000000" font-family="sans-serif" font-size="14" lengthAdjust="spacing" textLength="112" x="384" y="483.252">MaDanhMuc : INT</text><line style="stroke:#FF5E8E;stroke-width:1.0;" x1="356" x2="563" y1="490.3281" y2="490.3281"/><text fill="#000000" font-family="sans-serif" font-size="14" lengthAdjust="spacing" textLength="197" x="361" y="508.8613">TenDanhMuc : VARCHAR(100)</text><text fill="#000000" font-family="sans-serif" font-size="14" lengthAdjust="spacing" textLength="148" x="361" y="526.4707">MoTa : VARCHAR(255)</text></g><!--class SanPham--><g id="elem_SanPham"><rect codeLine="58" fill="#FFFFFF" height="149.2656" id="SanPham" rx="2.5" ry="2.5" style="stroke:#FF5E8E;stroke-width:0.5;" width="210" x="351.5" y="619.6094"/><rect fill="#FFF0F3" height="27.6094" rx="2.5" ry="2.5" style="stroke:#FFF0F3;stroke-width:0.5;" width="210" x="351.5" y="619.6094"/><rect fill="#FFF0F3" height="2.5" style="stroke:#FFF0F3;stroke-width:0.5;" width="210" x="351.5" y="644.7188"/><rect codeLine="58" fill="none" height="149.2656" id="SanPham" rx="2.5" ry="2.5" style="stroke:#FF5E8E;stroke-width:0.5;" width="210" x="351.5" y="619.6094"/><text fill="#000000" font-family="sans-serif" font-size="14" lengthAdjust="spacing" textLength="61" x="426" y="639.1426">SanPham</text><line style="stroke:#FF5E8E;stroke-width:0.5;" x1="352.5" x2="560.5" y1="647.2188" y2="647.2188"/><text fill="#FF5E8E" font-family="sans-serif" font-size="14" font-weight="bold" lengthAdjust="spacing" textLength="19" x="357.5" y="665.752">PK</text><text fill="#000000" font-family="sans-serif" font-size="14" lengthAdjust="spacing" textLength="113" x="380.5" y="665.752">MaSanPham : INT</text><line style="stroke:#FF5E8E;stroke-width:1.0;" x1="352.5" x2="560.5" y1="672.8281" y2="672.8281"/><text fill="#0066CC" font-family="sans-serif" font-size="14" lengthAdjust="spacing" textLength="18" x="357.5" y="691.3613">FK</text><text fill="#000000" font-family="sans-serif" font-size="14" lengthAdjust="spacing" textLength="112" x="379.5" y="691.3613">MaDanhMuc : INT</text><text fill="#000000" font-family="sans-serif" font-size="14" lengthAdjust="spacing" textLength="198" x="357.5" y="708.9707">TenSanPham : VARCHAR(255)</text><text fill="#000000" font-family="sans-serif" font-size="14" lengthAdjust="spacing" textLength="157" x="357.5" y="726.5801">GiaBan : DECIMAL(12,2)</text><text fill="#000000" font-family="sans-serif" font-size="14" lengthAdjust="spacing" textLength="90" x="357.5" y="744.1895">SoLuong : INT</text><text fill="#000000" font-family="sans-serif" font-size="14" lengthAdjust="spacing" textLength="165" x="357.5" y="761.7988">HinhAnh : VARCHAR(255)</text></g><!--class HoaDonBan--><g id="elem_HoaDonBan"><rect codeLine="68" fill="#FFFFFF" height="149.2656" id="HoaDonBan" rx="2.5" ry="2.5" style="stroke:#FF5E8E;stroke-width:0.5;" width="194" x="14.5" y="619.6094"/><rect fill="#FFF0F3" height="27.6094" rx="2.5" ry="2.5" style="stroke:#FFF0F3;stroke-width:0.5;" width="194" x="14.5" y="619.6094"/><rect fill="#FFF0F3" height="2.5" style="stroke:#FFF0F3;stroke-width:0.5;" width="194" x="14.5" y="644.7188"/><rect codeLine="68" fill="none" height="149.2656" id="HoaDonBan" rx="2.5" ry="2.5" style="stroke:#FF5E8E;stroke-width:0.5;" width="194" x="14.5" y="619.6094"/><text fill="#000000" font-family="sans-serif" font-size="14" lengthAdjust="spacing" textLength="76" x="73.5" y="639.1426">HoaDonBan</text><line style="stroke:#FF5E8E;stroke-width:0.5;" x1="15.5" x2="207.5" y1="647.2188" y2="647.2188"/><text fill="#FF5E8E" font-family="sans-serif" font-size="14" font-weight="bold" lengthAdjust="spacing" textLength="19" x="20.5" y="665.752">PK</text><text fill="#000000" font-family="sans-serif" font-size="14" lengthAdjust="spacing" textLength="103" x="43.5" y="665.752">MaHoaDon : INT</text><line style="stroke:#FF5E8E;stroke-width:1.0;" x1="15.5" x2="207.5" y1="672.8281" y2="672.8281"/><text fill="#000000" font-family="sans-serif" font-size="14" lengthAdjust="spacing" textLength="138" x="20.5" y="691.3613">NgayBan : DATETIME</text><text fill="#000000" font-family="sans-serif" font-size="14" lengthAdjust="spacing" textLength="179" x="20.5" y="708.9707">ThanhTien : DECIMAL(12,2)</text><text fill="#0066CC" font-family="sans-serif" font-size="14" lengthAdjust="spacing" textLength="18" x="20.5" y="726.5801">FK</text><text fill="#000000" font-family="sans-serif" font-size="14" lengthAdjust="spacing" textLength="125" x="42.5" y="726.5801">MaKhachHang : INT</text><text fill="#000000" font-family="sans-serif" font-size="14" lengthAdjust="spacing" textLength="182" x="20.5" y="744.1895">HinhThucTT : VARCHAR(50)</text><text fill="#000000" font-family="sans-serif" font-size="14" lengthAdjust="spacing" textLength="99" x="20.5" y="761.7988">TrangThai : INT</text></g><!--class ChiTietHoaDonBan--><g id="elem_ChiTietHoaDonBan"><rect codeLine="78" fill="#FFFFFF" height="131.6563" id="ChiTietHoaDonBan" rx="2.5" ry="2.5" style="stroke:#FF5E8E;stroke-width:0.5;" width="183" x="7" y="828.6094"/><rect fill="#FFF0F3" height="27.6094" rx="2.5" ry="2.5" style="stroke:#FFF0F3;stroke-width:0.5;" width="183" x="7" y="828.6094"/><rect fill="#FFF0F3" height="2.5" style="stroke:#FFF0F3;stroke-width:0.5;" width="183" x="7" y="853.7188"/><rect codeLine="78" fill="none" height="131.6563" id="ChiTietHoaDonBan" rx="2.5" ry="2.5" style="stroke:#FF5E8E;stroke-width:0.5;" width="183" x="7" y="828.6094"/><text fill="#000000" font-family="sans-serif" font-size="14" lengthAdjust="spacing" textLength="121" x="38" y="848.1426">ChiTietHoaDonBan</text><line style="stroke:#FF5E8E;stroke-width:0.5;" x1="8" x2="189" y1="856.2188" y2="856.2188"/><text fill="#FF5E8E" font-family="sans-serif" font-size="14" font-weight="bold" lengthAdjust="spacing" textLength="19" x="13" y="874.752">PK</text><text fill="#000000" font-family="sans-serif" font-size="14" lengthAdjust="spacing" textLength="148" x="36" y="874.752">MaChiTietHoaDon : INT</text><line style="stroke:#FF5E8E;stroke-width:1.0;" x1="8" x2="189" y1="881.8281" y2="881.8281"/><text fill="#0066CC" font-family="sans-serif" font-size="14" lengthAdjust="spacing" textLength="18" x="13" y="900.3613">FK</text><text fill="#000000" font-family="sans-serif" font-size="14" lengthAdjust="spacing" textLength="103" x="35" y="900.3613">MaHoaDon : INT</text><text fill="#0066CC" font-family="sans-serif" font-size="14" lengthAdjust="spacing" textLength="18" x="13" y="917.9707">FK</text><text fill="#000000" font-family="sans-serif" font-size="14" lengthAdjust="spacing" textLength="113" x="35" y="917.9707">MaSanPham : INT</text><text fill="#000000" font-family="sans-serif" font-size="14" lengthAdjust="spacing" textLength="90" x="13" y="935.5801">SoLuong : INT</text><text fill="#000000" font-family="sans-serif" font-size="14" lengthAdjust="spacing" textLength="157" x="13" y="953.1895">GiaBan : DECIMAL(12,2)</text></g><!--class HoaDonNhap--><g id="elem_HoaDonNhap"><rect codeLine="87" fill="#FFFFFF" height="131.6563" id="HoaDonNhap" rx="2.5" ry="2.5" style="stroke:#FF5E8E;stroke-width:0.5;" width="191" x="597" y="628.1094"/><rect fill="#FFF0F3" height="27.6094" rx="2.5" ry="2.5" style="stroke:#FFF0F3;stroke-width:0.5;" width="191" x="597" y="628.1094"/><rect fill="#FFF0F3" height="2.5" style="stroke:#FFF0F3;stroke-width:0.5;" width="191" x="597" y="653.2188"/><rect codeLine="87" fill="none" height="131.6563" id="HoaDonNhap" rx="2.5" ry="2.5" style="stroke:#FF5E8E;stroke-width:0.5;" width="191" x="597" y="628.1094"/><text fill="#000000" font-family="sans-serif" font-size="14" lengthAdjust="spacing" textLength="84" x="650.5" y="647.6426">HoaDonNhap</text><line style="stroke:#FF5E8E;stroke-width:0.5;" x1="598" x2="787" y1="655.7188" y2="655.7188"/><text fill="#FF5E8E" font-family="sans-serif" font-size="14" font-weight="bold" lengthAdjust="spacing" textLength="19" x="603" y="674.252">PK</text><text fill="#000000" font-family="sans-serif" font-size="14" lengthAdjust="spacing" textLength="103" x="626" y="674.252">MaHoaDon : INT</text><line style="stroke:#FF5E8E;stroke-width:1.0;" x1="598" x2="787" y1="681.3281" y2="681.3281"/><text fill="#000000" font-family="sans-serif" font-size="14" lengthAdjust="spacing" textLength="146" x="603" y="699.8613">NgayNhap : DATETIME</text><text fill="#000000" font-family="sans-serif" font-size="14" lengthAdjust="spacing" textLength="179" x="603" y="717.4707">ThanhTien : DECIMAL(12,2)</text><text fill="#000000" font-family="sans-serif" font-size="14" lengthAdjust="spacing" textLength="166" x="603" y="735.0801">TenNCC : VARCHAR(100)</text><text fill="#0066CC" font-family="sans-serif" font-size="14" lengthAdjust="spacing" textLength="18" x="603" y="752.6895">FK</text><text fill="#000000" font-family="sans-serif" font-size="14" lengthAdjust="spacing" textLength="70" x="625" y="752.6895">MaNV : INT</text></g><!--class ChiTietHoaDonNhap--><g id="elem_ChiTietHoaDonNhap"><rect codeLine="96" fill="#FFFFFF" height="131.6563" id="ChiTietHoaDonNhap" rx="2.5" ry="2.5" style="stroke:#FF5E8E;stroke-width:0.5;" width="183" x="601" y="828.6094"/><rect fill="#FFF0F3" height="27.6094" rx="2.5" ry="2.5" style="stroke:#FFF0F3;stroke-width:0.5;" width="183" x="601" y="828.6094"/><rect fill="#FFF0F3" height="2.5" style="stroke:#FFF0F3;stroke-width:0.5;" width="183" x="601" y="853.7188"/><rect codeLine="96" fill="none" height="131.6563" id="ChiTietHoaDonNhap" rx="2.5" ry="2.5" style="stroke:#FF5E8E;stroke-width:0.5;" width="183" x="601" y="828.6094"/><text fill="#000000" font-family="sans-serif" font-size="14" lengthAdjust="spacing" textLength="129" x="628" y="848.1426">ChiTietHoaDonNhap</text><line style="stroke:#FF5E8E;stroke-width:0.5;" x1="602" x2="783" y1="856.2188" y2="856.2188"/><text fill="#FF5E8E" font-family="sans-serif" font-size="14" font-weight="bold" lengthAdjust="spacing" textLength="19" x="607" y="874.752">PK</text><text fill="#000000" font-family="sans-serif" font-size="14" lengthAdjust="spacing" textLength="148" x="630" y="874.752">MaChiTietHoaDon : INT</text><line style="stroke:#FF5E8E;stroke-width:1.0;" x1="602" x2="783" y1="881.8281" y2="881.8281"/><text fill="#0066CC" font-family="sans-serif" font-size="14" lengthAdjust="spacing" textLength="18" x="607" y="900.3613">FK</text><text fill="#000000" font-family="sans-serif" font-size="14" lengthAdjust="spacing" textLength="103" x="629" y="900.3613">MaHoaDon : INT</text><text fill="#0066CC" font-family="sans-serif" font-size="14" lengthAdjust="spacing" textLength="18" x="607" y="917.9707">FK</text><text fill="#000000" font-family="sans-serif" font-size="14" lengthAdjust="spacing" textLength="113" x="629" y="917.9707">MaSanPham : INT</text><text fill="#000000" font-family="sans-serif" font-size="14" lengthAdjust="spacing" textLength="90" x="607" y="935.5801">SoLuong : INT</text><text fill="#000000" font-family="sans-serif" font-size="14" lengthAdjust="spacing" textLength="165" x="607" y="953.1895">GiaNhap : DECIMAL(12,2)</text></g><!--class KhoHang--><g id="elem_KhoHang"><rect codeLine="105" fill="#FFFFFF" height="114.0469" id="KhoHang" rx="2.5" ry="2.5" style="stroke:#FF5E8E;stroke-width:0.5;" width="147" x="419" y="837.6094"/><rect fill="#FFF0F3" height="27.6094" rx="2.5" ry="2.5" style="stroke:#FFF0F3;stroke-width:0.5;" width="147" x="419" y="837.6094"/><rect fill="#FFF0F3" height="2.5" style="stroke:#FFF0F3;stroke-width:0.5;" width="147" x="419" y="862.7188"/><rect codeLine="105" fill="none" height="114.0469" id="KhoHang" rx="2.5" ry="2.5" style="stroke:#FF5E8E;stroke-width:0.5;" width="147" x="419" y="837.6094"/><text fill="#000000" font-family="sans-serif" font-size="14" lengthAdjust="spacing" textLength="58" x="463.5" y="857.1426">KhoHang</text><line style="stroke:#FF5E8E;stroke-width:0.5;" x1="420" x2="565" y1="865.2188" y2="865.2188"/><text fill="#FF5E8E" font-family="sans-serif" font-size="14" font-weight="bold" lengthAdjust="spacing" textLength="19" x="425" y="883.752">PK</text><text fill="#000000" font-family="sans-serif" font-size="14" lengthAdjust="spacing" textLength="77" x="448" y="883.752">MaKho : INT</text><line style="stroke:#FF5E8E;stroke-width:1.0;" x1="420" x2="565" y1="890.8281" y2="890.8281"/><text fill="#0066CC" font-family="sans-serif" font-size="14" lengthAdjust="spacing" textLength="18" x="425" y="909.3613">FK</text><text fill="#000000" font-family="sans-serif" font-size="14" lengthAdjust="spacing" textLength="113" x="447" y="909.3613">MaSanPham : INT</text><text fill="#000000" font-family="sans-serif" font-size="14" lengthAdjust="spacing" textLength="116" x="425" y="926.9707">SoLuongCon : INT</text><text fill="#000000" font-family="sans-serif" font-size="14" lengthAdjust="spacing" textLength="114" x="425" y="944.5801">NgayNhap : DATE</text></g><!--class DanhGia--><g id="elem_DanhGia"><rect codeLine="113" fill="#FFFFFF" height="131.6563" id="DanhGia" rx="2.5" ry="2.5" style="stroke:#FF5E8E;stroke-width:0.5;" width="159" x="225" y="828.6094"/><rect fill="#FFF0F3" height="27.6094" rx="2.5" ry="2.5" style="stroke:#FFF0F3;stroke-width:0.5;" width="159" x="225" y="828.6094"/><rect fill="#FFF0F3" height="2.5" style="stroke:#FFF0F3;stroke-width:0.5;" width="159" x="225" y="853.7188"/><rect codeLine="113" fill="none" height="131.6563" id="DanhGia" rx="2.5" ry="2.5" style="stroke:#FF5E8E;stroke-width:0.5;" width="159" x="225" y="828.6094"/><text fill="#000000" font-family="sans-serif" font-size="14" lengthAdjust="spacing" textLength="56" x="276.5" y="848.1426">DanhGia</text><line style="stroke:#FF5E8E;stroke-width:0.5;" x1="226" x2="383" y1="856.2188" y2="856.2188"/><text fill="#FF5E8E" font-family="sans-serif" font-size="14" font-weight="bold" lengthAdjust="spacing" textLength="19" x="231" y="874.752">PK</text><text fill="#000000" font-family="sans-serif" font-size="14" lengthAdjust="spacing" textLength="108" x="254" y="874.752">MaDanhGia : INT</text><line style="stroke:#FF5E8E;stroke-width:1.0;" x1="226" x2="383" y1="881.8281" y2="881.8281"/><text fill="#0066CC" font-family="sans-serif" font-size="14" lengthAdjust="spacing" textLength="18" x="231" y="900.3613">FK</text><text fill="#000000" font-family="sans-serif" font-size="14" lengthAdjust="spacing" textLength="113" x="253" y="900.3613">MaSanPham : INT</text><text fill="#0066CC" font-family="sans-serif" font-size="14" lengthAdjust="spacing" textLength="18" x="231" y="917.9707">FK</text><text fill="#000000" font-family="sans-serif" font-size="14" lengthAdjust="spacing" textLength="125" x="253" y="917.9707">MaKhachHang : INT</text><text fill="#000000" font-family="sans-serif" font-size="14" lengthAdjust="spacing" textLength="105" x="231" y="935.5801">SoSao : TINYINT</text><text fill="#000000" font-family="sans-serif" font-size="14" lengthAdjust="spacing" textLength="101" x="231" y="953.1895">NoiDung : TEXT</text></g><!--link LoaiTaiKhoan to TaiKhoan--><g id="link_LoaiTaiKhoan_TaiKhoan"><path codeLine="122" d="M445.5,150.0394 C445.5,168.1994 445.5,163.2894 445.5,183.2894 " fill="none" id="LoaiTaiKhoan-TaiKhoan" style="stroke:#181818;stroke-width:1.0;"/><line style="stroke:#181818;stroke-width:1.0;" x1="441.5" x2="449.5" y1="146.0394" y2="146.0394"/><line style="stroke:#181818;stroke-width:1.0;" x1="441.5" x2="449.5" y1="149.0394" y2="149.0394"/><line style="stroke:#181818;stroke-width:1.0;" x1="445.5" x2="445.5" y1="150.0394" y2="142.0394"/><line style="stroke:#181818;stroke-width:1.0;" x1="445.5" x2="451.5" y1="193.2894" y2="201.2894"/><line style="stroke:#181818;stroke-width:1.0;" x1="445.5" x2="439.5" y1="193.2894" y2="201.2894"/><line style="stroke:#181818;stroke-width:1.0;" x1="445.5" x2="445.5" y1="193.2894" y2="201.2894"/><ellipse cx="445.5" cy="187.2894" fill="none" rx="4" ry="4" style="stroke:#181818;stroke-width:1.0;"/></g><!--link TaiKhoan to NhanVien--><g id="link_TaiKhoan_NhanVien"><path codeLine="123" d="M574,358.7994 C574,395.7694 574,424.6094 574,424.6094 C574,424.6094 572.38,424.6094 589.99,424.6094 " fill="none" id="TaiKhoan-NhanVien" style="stroke:#181818;stroke-width:1.0;"/><line style="stroke:#181818;stroke-width:1.0;" x1="570" x2="578" y1="354.7994" y2="354.7994"/><line style="stroke:#181818;stroke-width:1.0;" x1="570" x2="578" y1="357.7994" y2="357.7994"/><line style="stroke:#181818;stroke-width:1.0;" x1="574" x2="574" y1="358.7994" y2="350.7994"/><line style="stroke:#181818;stroke-width:1.0;" x1="593.99" x2="604.99" y1="424.6094" y2="424.6094"/><ellipse cx="593.99" cy="424.6094" fill="none" rx="4" ry="4" style="stroke:#181818;stroke-width:1.0;"/><line style="stroke:#181818;stroke-width:1.0;" x1="600.99" x2="600.99" y1="420.6094" y2="428.6094"/></g><!--link TaiKhoan to KhachHang--><g id="link_TaiKhoan_KhachHang"><path codeLine="124" d="M314.25,358.6794 C314.25,378.1394 314.25,376.1094 314.25,395.5694 " fill="none" id="TaiKhoan-KhachHang" style="stroke:#181818;stroke-width:1.0;"/><line style="stroke:#181818;stroke-width:1.0;" x1="310.25" x2="318.25" y1="354.6794" y2="354.6794"/><line style="stroke:#181818;stroke-width:1.0;" x1="310.25" x2="318.25" y1="357.6794" y2="357.6794"/><line style="stroke:#181818;stroke-width:1.0;" x1="314.25" x2="314.25" y1="358.6794" y2="350.6794"/><line style="stroke:#181818;stroke-width:1.0;" x1="314.25" x2="314.25" y1="399.5694" y2="410.5694"/><ellipse cx="314.25" cy="399.5694" fill="none" rx="4" ry="4" style="stroke:#181818;stroke-width:1.0;"/><line style="stroke:#181818;stroke-width:1.0;" x1="318.25" x2="310.25" y1="406.5694" y2="406.5694"/></g><!--link DanhMuc to SanPham--><g id="link_DanhMuc_SanPham"><path codeLine="125" d="M458.25,541.3194 C458.25,566.8794 458.25,572.8394 458.25,601.5194 " fill="none" id="DanhMuc-SanPham" style="stroke:#181818;stroke-width:1.0;"/><line style="stroke:#181818;stroke-width:1.0;" x1="454.25" x2="462.25" y1="537.3194" y2="537.3194"/><line style="stroke:#181818;stroke-width:1.0;" x1="454.25" x2="462.25" y1="540.3194" y2="540.3194"/><line style="stroke:#181818;stroke-width:1.0;" x1="458.25" x2="458.25" y1="541.3194" y2="533.3194"/><line style="stroke:#181818;stroke-width:1.0;" x1="458.25" x2="464.25" y1="611.5194" y2="619.5194"/><line style="stroke:#181818;stroke-width:1.0;" x1="458.25" x2="452.25" y1="611.5194" y2="619.5194"/><line style="stroke:#181818;stroke-width:1.0;" x1="458.25" x2="458.25" y1="611.5194" y2="619.5194"/><ellipse cx="458.25" cy="605.5194" fill="none" rx="4" ry="4" style="stroke:#181818;stroke-width:1.0;"/></g><!--link KhachHang to HoaDonBan--><g id="link_KhachHang_HoaDonBan"><path codeLine="126" d="M153,567.6794 C153,587.1394 153,582.1094 153,601.5694 " fill="none" id="KhachHang-HoaDonBan" style="stroke:#181818;stroke-width:1.0;"/><line style="stroke:#181818;stroke-width:1.0;" x1="149" x2="157" y1="563.6794" y2="563.6794"/><line style="stroke:#181818;stroke-width:1.0;" x1="149" x2="157" y1="566.6794" y2="566.6794"/><line style="stroke:#181818;stroke-width:1.0;" x1="153" x2="153" y1="567.6794" y2="559.6794"/><line style="stroke:#181818;stroke-width:1.0;" x1="153" x2="159" y1="611.5694" y2="619.5694"/><line style="stroke:#181818;stroke-width:1.0;" x1="153" x2="147" y1="611.5694" y2="619.5694"/><line style="stroke:#181818;stroke-width:1.0;" x1="153" x2="153" y1="611.5694" y2="619.5694"/><ellipse cx="153" cy="605.5694" fill="none" rx="4" ry="4" style="stroke:#181818;stroke-width:1.0;"/></g><!--link HoaDonBan to ChiTietHoaDonBan--><g id="link_HoaDonBan_ChiTietHoaDonBan"><path codeLine="127" d="M73,776.7694 C73,796.3594 73,801.3594 73,820.4694 " fill="none" id="HoaDonBan-ChiTietHoaDonBan" style="stroke:#181818;stroke-width:1.0;"/><line style="stroke:#181818;stroke-width:1.0;" x1="69" x2="77" y1="772.7694" y2="772.7694"/><line style="stroke:#181818;stroke-width:1.0;" x1="69" x2="77" y1="775.7694" y2="775.7694"/><line style="stroke:#181818;stroke-width:1.0;" x1="73" x2="73" y1="776.7694" y2="768.7694"/><line style="stroke:#181818;stroke-width:1.0;" x1="73" x2="79" y1="820.4694" y2="828.4694"/><line style="stroke:#181818;stroke-width:1.0;" x1="73" x2="67" y1="820.4694" y2="828.4694"/><line style="stroke:#181818;stroke-width:1.0;" x1="73" x2="73" y1="820.4694" y2="828.4694"/><line style="stroke:#181818;stroke-width:1.0;" x1="77" x2="69" y1="818.4694" y2="818.4694"/></g><!--link SanPham to ChiTietHoaDonBan--><g id="link_SanPham_ChiTietHoaDonBan"><path codeLine="128" d="M362.33,776.6594 C362.33,793.5494 362.33,798.6094 362.33,798.6094 C362.33,798.6094 131.5,798.6094 131.5,798.6094 C131.5,798.6094 131.5,793.8294 131.5,810.4594 " fill="none" id="SanPham-ChiTietHoaDonBan" style="stroke:#181818;stroke-width:1.0;"/><line style="stroke:#181818;stroke-width:1.0;" x1="358.33" x2="366.33" y1="772.6594" y2="772.6594"/><line style="stroke:#181818;stroke-width:1.0;" x1="358.33" x2="366.33" y1="775.6594" y2="775.6594"/><line style="stroke:#181818;stroke-width:1.0;" x1="362.33" x2="362.33" y1="776.6594" y2="768.6594"/><line style="stroke:#181818;stroke-width:1.0;" x1="131.5" x2="137.5" y1="820.4594" y2="828.4594"/><line style="stroke:#181818;stroke-width:1.0;" x1="131.5" x2="125.5" y1="820.4594" y2="828.4594"/><line style="stroke:#181818;stroke-width:1.0;" x1="131.5" x2="131.5" y1="820.4594" y2="828.4594"/><ellipse cx="131.5" cy="814.4594" fill="none" rx="4" ry="4" style="stroke:#181818;stroke-width:1.0;"/></g><!--link NhanVien to HoaDonNhap--><g id="link_NhanVien_HoaDonNhap"><path codeLine="129" d="M688.5,567.6794 C688.5,589.9494 688.5,588.2094 688.5,609.9094 " fill="none" id="NhanVien-HoaDonNhap" style="stroke:#181818;stroke-width:1.0;"/><line style="stroke:#181818;stroke-width:1.0;" x1="684.5" x2="692.5" y1="563.6794" y2="563.6794"/><line style="stroke:#181818;stroke-width:1.0;" x1="684.5" x2="692.5" y1="566.6794" y2="566.6794"/><line style="stroke:#181818;stroke-width:1.0;" x1="688.5" x2="688.5" y1="567.6794" y2="559.6794"/><line style="stroke:#181818;stroke-width:1.0;" x1="688.5" x2="694.5" y1="619.9094" y2="627.9094"/><line style="stroke:#181818;stroke-width:1.0;" x1="688.5" x2="682.5" y1="619.9094" y2="627.9094"/><line style="stroke:#181818;stroke-width:1.0;" x1="688.5" x2="688.5" y1="619.9094" y2="627.9094"/><ellipse cx="688.5" cy="613.9094" fill="none" rx="4" ry="4" style="stroke:#181818;stroke-width:1.0;"/></g><!--link HoaDonNhap to ChiTietHoaDonNhap--><g id="link_HoaDonNhap_ChiTietHoaDonNhap"><path codeLine="130" d="M692.5,768.3194 C692.5,790.2194 692.5,798.5794 692.5,820.4694 " fill="none" id="HoaDonNhap-ChiTietHoaDonNhap" style="stroke:#181818;stroke-width:1.0;"/><line style="stroke:#181818;stroke-width:1.0;" x1="688.5" x2="696.5" y1="764.3194" y2="764.3194"/><line style="stroke:#181818;stroke-width:1.0;" x1="688.5" x2="696.5" y1="767.3194" y2="767.3194"/><line style="stroke:#181818;stroke-width:1.0;" x1="692.5" x2="692.5" y1="768.3194" y2="760.3194"/><line style="stroke:#181818;stroke-width:1.0;" x1="692.5" x2="698.5" y1="820.4694" y2="828.4694"/><line style="stroke:#181818;stroke-width:1.0;" x1="692.5" x2="686.5" y1="820.4694" y2="828.4694"/><line style="stroke:#181818;stroke-width:1.0;" x1="692.5" x2="692.5" y1="820.4694" y2="828.4694"/><line style="stroke:#181818;stroke-width:1.0;" x1="696.5" x2="688.5" y1="818.4694" y2="818.4694"/></g><!--link SanPham to ChiTietHoaDonNhap--><g id="link_SanPham_ChiTietHoaDonNhap"><path codeLine="131" d="M514,776.7594 C514,809.9294 514,833.6094 514,833.6094 C514,833.6094 539.07,833.6094 582.9,833.6094 " fill="none" id="SanPham-ChiTietHoaDonNhap" style="stroke:#181818;stroke-width:1.0;"/><line style="stroke:#181818;stroke-width:1.0;" x1="510" x2="518" y1="772.7594" y2="772.7594"/><line style="stroke:#181818;stroke-width:1.0;" x1="510" x2="518" y1="775.7594" y2="775.7594"/><line style="stroke:#181818;stroke-width:1.0;" x1="514" x2="514" y1="776.7594" y2="768.7594"/><line style="stroke:#181818;stroke-width:1.0;" x1="592.9" x2="600.9" y1="833.6094" y2="827.6094"/><line style="stroke:#181818;stroke-width:1.0;" x1="592.9" x2="600.9" y1="833.6094" y2="839.6094"/><line style="stroke:#181818;stroke-width:1.0;" x1="592.9" x2="600.9" y1="833.6094" y2="833.6094"/><ellipse cx="586.9" cy="833.6094" fill="none" rx="4" ry="4" style="stroke:#181818;stroke-width:1.0;"/></g><!--link SanPham to KhoHang--><g id="link_SanPham_KhoHang"><path codeLine="132" d="M466.5,776.7694 C466.5,799.4794 466.5,798.0694 466.5,819.4394 " fill="none" id="SanPham-KhoHang" style="stroke:#181818;stroke-width:1.0;"/><line style="stroke:#181818;stroke-width:1.0;" x1="462.5" x2="470.5" y1="772.7694" y2="772.7694"/><line style="stroke:#181818;stroke-width:1.0;" x1="462.5" x2="470.5" y1="775.7694" y2="775.7694"/><line style="stroke:#181818;stroke-width:1.0;" x1="466.5" x2="466.5" y1="776.7694" y2="768.7694"/><line style="stroke:#181818;stroke-width:1.0;" x1="466.5" x2="472.5" y1="829.4394" y2="837.4394"/><line style="stroke:#181818;stroke-width:1.0;" x1="466.5" x2="460.5" y1="829.4394" y2="837.4394"/><line style="stroke:#181818;stroke-width:1.0;" x1="466.5" x2="466.5" y1="829.4394" y2="837.4394"/><ellipse cx="466.5" cy="823.4394" fill="none" rx="4" ry="4" style="stroke:#181818;stroke-width:1.0;"/></g><!--link SanPham to DanhGia--><g id="link_SanPham_DanhGia"><path codeLine="133" d="M373.17,776.7694 C373.17,796.3594 373.17,791.3594 373.17,810.4694 " fill="none" id="SanPham-DanhGia" style="stroke:#181818;stroke-width:1.0;"/><line style="stroke:#181818;stroke-width:1.0;" x1="369.17" x2="377.17" y1="772.7694" y2="772.7694"/><line style="stroke:#181818;stroke-width:1.0;" x1="369.17" x2="377.17" y1="775.7694" y2="775.7694"/><line style="stroke:#181818;stroke-width:1.0;" x1="373.17" x2="373.17" y1="776.7694" y2="768.7694"/><line style="stroke:#181818;stroke-width:1.0;" x1="373.17" x2="379.17" y1="820.4694" y2="828.4694"/><line style="stroke:#181818;stroke-width:1.0;" x1="373.17" x2="367.17" y1="820.4694" y2="828.4694"/><line style="stroke:#181818;stroke-width:1.0;" x1="373.17" x2="373.17" y1="820.4694" y2="828.4694"/><ellipse cx="373.17" cy="814.4694" fill="none" rx="4" ry="4" style="stroke:#181818;stroke-width:1.0;"/></g><!--link KhachHang to DanhGia--><g id="link_KhachHang_DanhGia"><path codeLine="134" d="M272.25,567.7394 C272.25,644.5594 272.25,737.1094 272.25,810.6094 " fill="none" id="KhachHang-DanhGia" style="stroke:#181818;stroke-width:1.0;"/><line style="stroke:#181818;stroke-width:1.0;" x1="268.25" x2="276.25" y1="563.7394" y2="563.7394"/><line style="stroke:#181818;stroke-width:1.0;" x1="268.25" x2="276.25" y1="566.7394" y2="566.7394"/><line style="stroke:#181818;stroke-width:1.0;" x1="272.25" x2="272.25" y1="567.7394" y2="559.7394"/><line style="stroke:#181818;stroke-width:1.0;" x1="272.25" x2="278.25" y1="820.6094" y2="828.6094"/><line style="stroke:#181818;stroke-width:1.0;" x1="272.25" x2="266.25" y1="820.6094" y2="828.6094"/><line style="stroke:#181818;stroke-width:1.0;" x1="272.25" x2="272.25" y1="820.6094" y2="828.6094"/><ellipse cx="272.25" cy="814.6094" fill="none" rx="4" ry="4" style="stroke:#181818;stroke-width:1.0;"/></g><!--SRC=[jLNBQjj05DthAwPq4qDDb1I74en0qQCsZes9Xz0k9zB4CqJH97fGJDnL5rsNVa3f5vIklItz3_z9xoXwZ5v9ATGB6vzxTS-vP-uT9Jm9A5hz_ev-VTdllgBxb8I8xNUVKGBVFxtivnCwS2xi0HeY2nBZ_UuRylUx7oZWa9YYYRaoPrCjlk7X7Od8BOePySK77gxHDGbYgaG27j9aSqUHY18cj1S-lGO4BMTeV6MCFH68wFIbwuwSDuwnd8qFCyGO7ruPPQuBkNcYhf-SM9RXbeaAanUGE4OF6a9dnBjPHo8DVKic8QWlFp8Y8fz69IfP0PrG0cZNKxhxMlkeCUvJT4j1lny__l5uv0LKqsYOy6I3pWNXcF0P4-2bL03jpKaDFKNJ1OR8S0XVc8QDuALvOKtCYuEHFe3uN62YWCUZqG1a56njfbwM3eOZNH-WyJWD-NrA3KEoaMJ6IDeaHDBupXvmHC8rPeG3WgUBzu_eOaqsc0Z0R1CxU3ft5CqBHi9BJXNDYykMsWnITGAyih4APhgSMyA3TgerNzXg4thUGykVIXRqxR49T5Ffgg2cF3NoxohTpWEJvjbGUhRfzWzYR9vwbSm2Q8giy0RlqpEr8k6ImHALzGkWLj_jOWRIAhanGMyvESkwj1rhEZVF3uwENnrdXedpL2WUJtZ8p93r2vm8OelmJ9twHwYkKFgOCnOcWa8OFeRbzBM5kDrdBlLWbdeOjvPJdVxwD5cC0qlI8RKMwV2q4N2xJg1fMO-tJSjWy-wUzopB-clJvAvQLizibulTOqnTq7zofkYdnnfOlkRMYmxo7Y9Br1TNCQ-nig2alh8IU9wdPoXNOfNThygTAxYTPXdOUPSvNhkmjzlXK3oKBmoj7jYMjt8hK79hnRRdfNAbMYKk3vH3hrNZBqFRXzPQQ4Mx-QEjUFcogDMMBclA27LLptAUAj-La0z34ywFgzrg4VW3]--></g></svg>