<?xml version="1.0" encoding="us-ascii" standalone="no"?><svg xmlns="http://www.w3.org/2000/svg" xmlns:xlink="http://www.w3.org/1999/xlink" contentStyleType="text/css" height="705px" preserveAspectRatio="none" style="width:861px;height:705px;background:#FFFFFF;" version="1.1" viewBox="0 0 861 705" width="861px" zoomAndPan="magnify"><defs/><g><text fill="#000000" font-family="sans-serif" font-size="14" font-weight="bold" lengthAdjust="spacing" textLength="196" x="327.75" y="29.5332">Bi&#7875;u &#273;&#7891; tu&#7847;n t&#7921; - &#272;&#259;ng nh&#7853;p</text><rect fill="#FFFFFF" height="459.4063" style="stroke:#FF5E8E;stroke-width:1.0;" width="10" x="260" y="153.5703"/><rect fill="#FFFFFF" height="385.7031" style="stroke:#FF5E8E;stroke-width:1.0;" width="10" x="385" y="227.2734"/><rect fill="none" height="198.9453" style="stroke:#000000;stroke-width:1.5;" width="424" x="10" y="407.0313"/><line style="stroke:#FF5E8E;stroke-width:0.5;stroke-dasharray:5.0,5.0;" x1="60" x2="60" y1="121.2188" y2="622.9766"/><line style="stroke:#FF5E8E;stroke-width:0.5;stroke-dasharray:5.0,5.0;" x1="265" x2="265" y1="121.2188" y2="622.9766"/><line style="stroke:#FF5E8E;stroke-width:0.5;stroke-dasharray:5.0,5.0;" x1="390" x2="390" y1="121.2188" y2="622.9766"/><line style="stroke:#FF5E8E;stroke-width:0.5;stroke-dasharray:5.0,5.0;" x1="547" x2="547" y1="121.2188" y2="622.9766"/><line style="stroke:#FF5E8E;stroke-width:0.5;stroke-dasharray:5.0,5.0;" x1="825.5" x2="825.5" y1="121.2188" y2="622.9766"/><text fill="#000000" font-family="sans-serif" font-size="14" lengthAdjust="spacing" textLength="74" x="20" y="118.1426">Ng&#432;&#7901;i d&#249;ng</text><ellipse cx="60" cy="52.1094" fill="#E2E2F0" rx="8" ry="8" style="stroke:#181818;stroke-width:0.5;"/><path d="M60,60.1094 L60,87.1094 M47,68.1094 L73,68.1094 M60,87.1094 L47,102.1094 M60,87.1094 L73,102.1094 " fill="none" style="stroke:#181818;stroke-width:0.5;"/><text fill="#000000" font-family="sans-serif" font-size="14" lengthAdjust="spacing" textLength="74" x="20" y="636.5098">Ng&#432;&#7901;i d&#249;ng</text><ellipse cx="60" cy="648.0859" fill="#E2E2F0" rx="8" ry="8" style="stroke:#181818;stroke-width:0.5;"/><path d="M60,656.0859 L60,683.0859 M47,664.0859 L73,664.0859 M60,683.0859 L47,698.0859 M60,683.0859 L73,698.0859 " fill="none" style="stroke:#181818;stroke-width:0.5;"/><rect fill="#FFF0F3" height="31.6094" rx="2.5" ry="2.5" style="stroke:#FF5E8E;stroke-width:0.5;" width="78" x="226" y="88.6094"/><text fill="#000000" font-family="sans-serif" font-size="14" lengthAdjust="spacing" textLength="64" x="233" y="110.1426">LoginView</text><rect fill="#FFF0F3" height="31.6094" rx="2.5" ry="2.5" style="stroke:#FF5E8E;stroke-width:0.5;" width="78" x="226" y="621.9766"/><text fill="#000000" font-family="sans-serif" font-size="14" lengthAdjust="spacing" textLength="64" x="233" y="643.5098">LoginView</text><rect fill="#FFF0F3" height="31.6094" rx="2.5" ry="2.5" style="stroke:#FF5E8E;stroke-width:0.5;" width="68" x="356" y="88.6094"/><text fill="#000000" font-family="sans-serif" font-size="14" lengthAdjust="spacing" textLength="54" x="363" y="110.1426">AuthBLL</text><rect fill="#FFF0F3" height="31.6094" rx="2.5" ry="2.5" style="stroke:#FF5E8E;stroke-width:0.5;" width="68" x="356" y="621.9766"/><text fill="#000000" font-family="sans-serif" font-size="14" lengthAdjust="spacing" textLength="54" x="363" y="643.5098">AuthBLL</text><rect fill="#FFF0F3" height="31.6094" rx="2.5" ry="2.5" style="stroke:#FF5E8E;stroke-width:0.5;" width="92" x="501" y="88.6094"/><text fill="#000000" font-family="sans-serif" font-size="14" lengthAdjust="spacing" textLength="78" x="508" y="110.1426">AccountDAL</text><rect fill="#FFF0F3" height="31.6094" rx="2.5" ry="2.5" style="stroke:#FF5E8E;stroke-width:0.5;" width="92" x="501" y="621.9766"/><text fill="#000000" font-family="sans-serif" font-size="14" lengthAdjust="spacing" textLength="78" x="508" y="643.5098">AccountDAL</text><text fill="#000000" font-family="sans-serif" font-size="14" lengthAdjust="spacing" textLength="37" x="804.5" y="118.1426">CSDL</text><path d="M808,67.6094 C808,57.6094 826,57.6094 826,57.6094 C826,57.6094 844,57.6094 844,67.6094 L844,93.6094 C844,103.6094 826,103.6094 826,103.6094 C826,103.6094 808,103.6094 808,93.6094 L808,67.6094 " fill="#E2E2F0" style="stroke:#181818;stroke-width:1.5;"/><path d="M808,67.6094 C808,77.6094 826,77.6094 826,77.6094 C826,77.6094 844,77.6094 844,67.6094 " fill="none" style="stroke:#181818;stroke-width:1.5;"/><text fill="#000000" font-family="sans-serif" font-size="14" lengthAdjust="spacing" textLength="37" x="804.5" y="636.5098">CSDL</text><path d="M808,649.5859 C808,639.5859 826,639.5859 826,639.5859 C826,639.5859 844,639.5859 844,649.5859 L844,675.5859 C844,685.5859 826,685.5859 826,685.5859 C826,685.5859 808,685.5859 808,675.5859 L808,649.5859 " fill="#E2E2F0" style="stroke:#181818;stroke-width:1.5;"/><path d="M808,649.5859 C808,659.5859 826,659.5859 826,659.5859 C826,659.5859 844,659.5859 844,649.5859 " fill="none" style="stroke:#181818;stroke-width:1.5;"/><rect fill="#FFFFFF" height="459.4063" style="stroke:#FF5E8E;stroke-width:1.0;" width="10" x="260" y="153.5703"/><rect fill="#FFFFFF" height="385.7031" style="stroke:#FF5E8E;stroke-width:1.0;" width="10" x="385" y="227.2734"/><polygon fill="#444444" points="248,149.5703,258,153.5703,248,157.5703,252,153.5703" style="stroke:#444444;stroke-width:1.0;"/><line style="stroke:#444444;stroke-width:1.0;" x1="60" x2="254" y1="153.5703" y2="153.5703"/><text fill="#000000" font-family="sans-serif" font-size="13" lengthAdjust="spacing" textLength="178" x="67" y="148.7139">Nh&#7853;p t&#234;n &#273;&#259;ng nh&#7853;p, m&#7853;t kh&#7849;u</text><line style="stroke:#444444;stroke-width:1.0;" x1="270" x2="312" y1="183.9219" y2="183.9219"/><line style="stroke:#444444;stroke-width:1.0;" x1="312" x2="312" y1="183.9219" y2="196.9219"/><line style="stroke:#444444;stroke-width:1.0;" x1="271" x2="312" y1="196.9219" y2="196.9219"/><polygon fill="#444444" points="281,192.9219,271,196.9219,281,200.9219,277,196.9219" style="stroke:#444444;stroke-width:1.0;"/><text fill="#000000" font-family="sans-serif" font-size="13" lengthAdjust="spacing" textLength="88" x="277" y="179.0654">Ki&#7875;m tra CSRF</text><polygon fill="#444444" points="373,223.2734,383,227.2734,373,231.2734,377,227.2734" style="stroke:#444444;stroke-width:1.0;"/><line style="stroke:#444444;stroke-width:1.0;" x1="270" x2="379" y1="227.2734" y2="227.2734"/><text fill="#000000" font-family="sans-serif" font-size="13" lengthAdjust="spacing" textLength="96" x="277" y="222.417">login(user, pass)</text><polygon fill="#444444" points="535,253.625,545,257.625,535,261.625,539,257.625" style="stroke:#444444;stroke-width:1.0;"/><line style="stroke:#444444;stroke-width:1.0;" x1="395" x2="541" y1="257.625" y2="257.625"/><text fill="#000000" font-family="sans-serif" font-size="13" lengthAdjust="spacing" textLength="128" x="402" y="252.7686">findByUsername(user)</text><polygon fill="#444444" points="814,283.9766,824,287.9766,814,291.9766,818,287.9766" style="stroke:#444444;stroke-width:1.0;"/><line style="stroke:#444444;stroke-width:1.0;" x1="547" x2="820" y1="287.9766" y2="287.9766"/><text fill="#000000" font-family="sans-serif" font-size="13" lengthAdjust="spacing" textLength="255" x="554" y="283.1201">SELECT TaiKhoan WHERE TenTaiKhoan=?</text><polygon fill="#444444" points="558,314.3281,548,318.3281,558,322.3281,554,318.3281" style="stroke:#444444;stroke-width:1.0;"/><line style="stroke:#444444;stroke-width:1.0;stroke-dasharray:2.0,2.0;" x1="552" x2="825" y1="318.3281" y2="318.3281"/><text fill="#000000" font-family="sans-serif" font-size="13" lengthAdjust="spacing" textLength="42" x="564" y="313.4717">b&#7843;n ghi</text><polygon fill="#444444" points="406,344.6797,396,348.6797,406,352.6797,402,348.6797" style="stroke:#444444;stroke-width:1.0;"/><line style="stroke:#444444;stroke-width:1.0;stroke-dasharray:2.0,2.0;" x1="400" x2="546" y1="348.6797" y2="348.6797"/><text fill="#000000" font-family="sans-serif" font-size="13" lengthAdjust="spacing" textLength="53" x="412" y="343.8232">t&#224;i kho&#7843;n</text><line style="stroke:#444444;stroke-width:1.0;" x1="395" x2="437" y1="379.0313" y2="379.0313"/><line style="stroke:#444444;stroke-width:1.0;" x1="437" x2="437" y1="379.0313" y2="392.0313"/><line style="stroke:#444444;stroke-width:1.0;" x1="396" x2="437" y1="392.0313" y2="392.0313"/><polygon fill="#444444" points="406,388.0313,396,392.0313,406,396.0313,402,392.0313" style="stroke:#444444;stroke-width:1.0;"/><text fill="#000000" font-family="sans-serif" font-size="13" lengthAdjust="spacing" textLength="99" x="402" y="374.1748">password_verify()</text><path d="M10,407.0313 L71,407.0313 L71,415.3828 L61,425.3828 L10,425.3828 L10,407.0313 " fill="#EEEEEE" style="stroke:#000000;stroke-width:1.5;"/><rect fill="none" height="198.9453" style="stroke:#000000;stroke-width:1.5;" width="424" x="10" y="407.0313"/><text fill="#000000" font-family="sans-serif" font-size="13" font-weight="bold" lengthAdjust="spacing" textLength="16" x="25" y="421.5264">alt</text><text fill="#000000" font-family="sans-serif" font-size="11" font-weight="bold" lengthAdjust="spacing" textLength="43" x="86" y="420.4502">[H&#7907;p l&#7879;]</text><polygon fill="#444444" points="281,443.7344,271,447.7344,281,451.7344,277,447.7344" style="stroke:#444444;stroke-width:1.0;"/><line style="stroke:#444444;stroke-width:1.0;stroke-dasharray:2.0,2.0;" x1="275" x2="384" y1="447.7344" y2="447.7344"/><text fill="#000000" font-family="sans-serif" font-size="13" lengthAdjust="spacing" textLength="64" x="287" y="442.8779">th&#224;nh c&#244;ng</text><line style="stroke:#444444;stroke-width:1.0;" x1="270" x2="312" y1="478.0859" y2="478.0859"/><line style="stroke:#444444;stroke-width:1.0;" x1="312" x2="312" y1="478.0859" y2="491.0859"/><line style="stroke:#444444;stroke-width:1.0;" x1="271" x2="312" y1="491.0859" y2="491.0859"/><polygon fill="#444444" points="281,487.0859,271,491.0859,281,495.0859,277,491.0859" style="stroke:#444444;stroke-width:1.0;"/><text fill="#000000" font-family="sans-serif" font-size="13" lengthAdjust="spacing" textLength="99" x="277" y="473.2295">Kh&#7903;i t&#7841;o session</text><polygon fill="#444444" points="71,517.4375,61,521.4375,71,525.4375,67,521.4375" style="stroke:#444444;stroke-width:1.0;"/><line style="stroke:#444444;stroke-width:1.0;stroke-dasharray:2.0,2.0;" x1="65" x2="259" y1="521.4375" y2="521.4375"/><text fill="#000000" font-family="sans-serif" font-size="13" lengthAdjust="spacing" textLength="153" x="77" y="516.5811">V&#224;o trang ch&#7911; / dashboard</text><line style="stroke:#000000;stroke-width:1.0;stroke-dasharray:2.0,2.0;" x1="10" x2="434" y1="530.4375" y2="530.4375"/><text fill="#000000" font-family="sans-serif" font-size="11" font-weight="bold" lengthAdjust="spacing" textLength="76" x="15" y="541.8564">[Sai th&#244;ng tin]</text><polygon fill="#444444" points="281,563.625,271,567.625,281,571.625,277,567.625" style="stroke:#444444;stroke-width:1.0;"/><line style="stroke:#444444;stroke-width:1.0;stroke-dasharray:2.0,2.0;" x1="275" x2="384" y1="567.625" y2="567.625"/><text fill="#000000" font-family="sans-serif" font-size="13" lengthAdjust="spacing" textLength="27" x="287" y="562.7686">false</text><polygon fill="#444444" points="71,593.9766,61,597.9766,71,601.9766,67,597.9766" style="stroke:#444444;stroke-width:1.0;"/><line style="stroke:#444444;stroke-width:1.0;stroke-dasharray:2.0,2.0;" x1="65" x2="259" y1="597.9766" y2="597.9766"/><text fill="#000000" font-family="sans-serif" font-size="13" lengthAdjust="spacing" textLength="176" x="77" y="593.1201">"Sai t&#224;i kho&#7843;n ho&#7863;c m&#7853;t kh&#7849;u"</text><!--SRC=[XP9FYzD06CRlyobUucKNjYYe889AqwGiR5XasyQZJ9DfCZITYJEJBOjuseFN5SzYPG-BWg0WYCqnnU-HR-8xITUcNinbcFVtv9dtd-4cO-3okhmiOFEkBj-3AUhrZG1Jbz-X1vkhpQL8GAJr-cjEz9oBd2gw09tIM2uveXdDDEiIzgfW8cBmcW3qbPBBWSoaWZiFcW-30P-nW0lcIXKpjQN3uKF_aO_qELM6HpodmlnVGADvecGXuh-YuRtXVVA6qCZWtJbDVd-homySukgNI1oW6YOatnc04yY4Yv2pPGF3VTWlJEe6GOFSVr0KuRl6wxVK8p4rT4er0sSmyhP1bqoWznH2U0odJGV1L5y4DhhJr2DOu65WZhVFXKsSdrF3C9NmzjyJEvy564LXC3eRji15aDda3mhDr17aLEl3tUykSQtAGzMCYzYzcA1Aq0Lhv8V4QwWr6Vc1FnZ3cFAJL581BuxzCn_6JDn6dZmZAEnjtQRr-bf0ad9hiSt3L2kE1KYBsdTjr6Qqn16-F6UApouECBlCm75TNkUGrULRd6LhQsiqQRKIAKJL3v4WsDMUrkL7Zkku_YHnjxJcKhGS1HCKXDLAsjPWGoFKti1TYAbEfvAgc33SJHXHRktH60mNUw-sozkrSnfrfnwmnyzeRqeEOI8cCUjqktC9_m00]--></g></svg>