<?xml version="1.0" encoding="us-ascii" standalone="no"?><svg xmlns="http://www.w3.org/2000/svg" xmlns:xlink="http://www.w3.org/1999/xlink" contentStyleType="text/css" height="575px" preserveAspectRatio="none" style="width:892px;height:575px;background:#FFFFFF;" version="1.1" viewBox="0 0 892 575" width="892px" zoomAndPan="magnify"><defs/><g><text fill="#000000" font-family="sans-serif" font-size="14" font-weight="bold" lengthAdjust="spacing" textLength="239" x="327.5" y="29.5332">Bi&#7875;u &#273;&#7891; tu&#7847;n t&#7921; - X&#243;a h&#243;a &#273;&#417;n b&#225;n</text><rect fill="#FFFFFF" height="329.3516" style="stroke:#FF5E8E;stroke-width:1.0;" width="10" x="402.5" y="153.5703"/><rect fill="#FFFFFF" height="151.7578" style="stroke:#FF5E8E;stroke-width:1.0;" width="10" x="521.5" y="269.9766"/><rect fill="none" height="277" style="stroke:#000000;stroke-width:1.5;" width="875" x="10" y="198.9219"/><line style="stroke:#FF5E8E;stroke-width:0.5;stroke-dasharray:5.0,5.0;" x1="54" x2="54" y1="121.2188" y2="492.9219"/><line style="stroke:#FF5E8E;stroke-width:0.5;stroke-dasharray:5.0,5.0;" x1="407" x2="407" y1="121.2188" y2="492.9219"/><line style="stroke:#FF5E8E;stroke-width:0.5;stroke-dasharray:5.0,5.0;" x1="526" x2="526" y1="121.2188" y2="492.9219"/><line style="stroke:#FF5E8E;stroke-width:0.5;stroke-dasharray:5.0,5.0;" x1="620" x2="620" y1="121.2188" y2="492.9219"/><line style="stroke:#FF5E8E;stroke-width:0.5;stroke-dasharray:5.0,5.0;" x1="853" x2="853" y1="121.2188" y2="492.9219"/><text fill="#000000" font-family="sans-serif" font-size="14" lengthAdjust="spacing" textLength="63" x="20" y="118.1426">Nh&#226;n vi&#234;n</text><ellipse cx="54.5" cy="52.1094" fill="#E2E2F0" rx="8" ry="8" style="stroke:#181818;stroke-width:0.5;"/><path d="M54.5,60.1094 L54.5,87.1094 M41.5,68.1094 L67.5,68.1094 M54.5,87.1094 L41.5,102.1094 M54.5,87.1094 L67.5,102.1094 " fill="none" style="stroke:#181818;stroke-width:0.5;"/><text fill="#000000" font-family="sans-serif" font-size="14" lengthAdjust="spacing" textLength="63" x="20" y="506.4551">Nh&#226;n vi&#234;n</text><ellipse cx="54.5" cy="518.0313" fill="#E2E2F0" rx="8" ry="8" style="stroke:#181818;stroke-width:0.5;"/><path d="M54.5,526.0313 L54.5,553.0313 M41.5,534.0313 L67.5,534.0313 M54.5,553.0313 L41.5,568.0313 M54.5,553.0313 L67.5,568.0313 " fill="none" style="stroke:#181818;stroke-width:0.5;"/><rect fill="#FFF0F3" height="31.6094" rx="2.5" ry="2.5" style="stroke:#FF5E8E;stroke-width:0.5;" width="135" x="340" y="88.6094"/><text fill="#000000" font-family="sans-serif" font-size="14" lengthAdjust="spacing" textLength="121" x="347" y="110.1426">admin/invoices.php</text><rect fill="#FFF0F3" height="31.6094" rx="2.5" ry="2.5" style="stroke:#FF5E8E;stroke-width:0.5;" width="135" x="340" y="491.9219"/><text fill="#000000" font-family="sans-serif" font-size="14" lengthAdjust="spacing" textLength="121" x="347" y="513.4551">admin/invoices.php</text><rect fill="#FFF0F3" height="31.6094" rx="2.5" ry="2.5" style="stroke:#FF5E8E;stroke-width:0.5;" width="83" x="485" y="88.6094"/><text fill="#000000" font-family="sans-serif" font-size="14" lengthAdjust="spacing" textLength="69" x="492" y="110.1426">InvoiceBLL</text><rect fill="#FFF0F3" height="31.6094" rx="2.5" ry="2.5" style="stroke:#FF5E8E;stroke-width:0.5;" width="83" x="485" y="491.9219"/><text fill="#000000" font-family="sans-serif" font-size="14" lengthAdjust="spacing" textLength="69" x="492" y="513.4551">InvoiceBLL</text><rect fill="#FFF0F3" height="31.6094" rx="2.5" ry="2.5" style="stroke:#FF5E8E;stroke-width:0.5;" width="85" x="578" y="88.6094"/><text fill="#000000" font-family="sans-serif" font-size="14" lengthAdjust="spacing" textLength="71" x="585" y="110.1426">InvoiceDAL</text><rect fill="#FFF0F3" height="31.6094" rx="2.5" ry="2.5" style="stroke:#FF5E8E;stroke-width:0.5;" width="85" x="578" y="491.9219"/><text fill="#000000" font-family="sans-serif" font-size="14" lengthAdjust="spacing" textLength="71" x="585" y="513.4551">InvoiceDAL</text><text fill="#000000" font-family="sans-serif" font-size="14" lengthAdjust="spacing" textLength="37" x="832" y="118.1426">CSDL</text><path d="M835.5,67.6094 C835.5,57.6094 853.5,57.6094 853.5,57.6094 C853.5,57.6094 871.5,57.6094 871.5,67.6094 L871.5,93.6094 C871.5,103.6094 853.5,103.6094 853.5,103.6094 C853.5,103.6094 835.5,103.6094 835.5,93.6094 L835.5,67.6094 " fill="#E2E2F0" style="stroke:#181818;stroke-width:1.5;"/><path d="M835.5,67.6094 C835.5,77.6094 853.5,77.6094 853.5,77.6094 C853.5,77.6094 871.5,77.6094 871.5,67.6094 " fill="none" style="stroke:#181818;stroke-width:1.5;"/><text fill="#000000" font-family="sans-serif" font-size="14" lengthAdjust="spacing" textLength="37" x="832" y="506.4551">CSDL</text><path d="M835.5,519.5313 C835.5,509.5313 853.5,509.5313 853.5,509.5313 C853.5,509.5313 871.5,509.5313 871.5,519.5313 L871.5,545.5313 C871.5,555.5313 853.5,555.5313 853.5,555.5313 C853.5,555.5313 835.5,555.5313 835.5,545.5313 L835.5,519.5313 " fill="#E2E2F0" style="stroke:#181818;stroke-width:1.5;"/><path d="M835.5,519.5313 C835.5,529.5313 853.5,529.5313 853.5,529.5313 C853.5,529.5313 871.5,529.5313 871.5,519.5313 " fill="none" style="stroke:#181818;stroke-width:1.5;"/><rect fill="#FFFFFF" height="329.3516" style="stroke:#FF5E8E;stroke-width:1.0;" width="10" x="402.5" y="153.5703"/><rect fill="#FFFFFF" height="151.7578" style="stroke:#FF5E8E;stroke-width:1.0;" width="10" x="521.5" y="269.9766"/><polygon fill="#444444" points="390.5,149.5703,400.5,153.5703,390.5,157.5703,394.5,153.5703" style="stroke:#444444;stroke-width:1.0;"/><line style="stroke:#444444;stroke-width:1.0;" x1="54.5" x2="396.5" y1="153.5703" y2="153.5703"/><text fill="#000000" font-family="sans-serif" font-size="13" lengthAdjust="spacing" textLength="132" x="61.5" y="148.7139">Ch&#7885;n x&#243;a h&#243;a &#273;&#417;n b&#225;n</text><polygon fill="#444444" points="65.5,179.9219,55.5,183.9219,65.5,187.9219,61.5,183.9219" style="stroke:#444444;stroke-width:1.0;"/><line style="stroke:#444444;stroke-width:1.0;stroke-dasharray:2.0,2.0;" x1="59.5" x2="401.5" y1="183.9219" y2="183.9219"/><text fill="#000000" font-family="sans-serif" font-size="13" lengthAdjust="spacing" textLength="324" x="71.5" y="179.0654">"B&#7841;n c&#243; ch&#7855;c ch&#7855;n mu&#7889;n x&#243;a h&#243;a &#273;&#417;n b&#225;n n&#224;y kh&#244;ng?"</text><path d="M10,198.9219 L71,198.9219 L71,207.2734 L61,217.2734 L10,217.2734 L10,198.9219 " fill="#EEEEEE" style="stroke:#000000;stroke-width:1.5;"/><rect fill="none" height="277" style="stroke:#000000;stroke-width:1.5;" width="875" x="10" y="198.9219"/><text fill="#000000" font-family="sans-serif" font-size="13" font-weight="bold" lengthAdjust="spacing" textLength="16" x="25" y="213.417">alt</text><text fill="#000000" font-family="sans-serif" font-size="11" font-weight="bold" lengthAdjust="spacing" textLength="120" x="86" y="212.3408">[Ng&#432;&#7901;i d&#249;ng ch&#7885;n C&#243;]</text><polygon fill="#444444" points="390.5,235.625,400.5,239.625,390.5,243.625,394.5,239.625" style="stroke:#444444;stroke-width:1.0;"/><line style="stroke:#444444;stroke-width:1.0;" x1="54.5" x2="396.5" y1="239.625" y2="239.625"/><text fill="#000000" font-family="sans-serif" font-size="13" lengthAdjust="spacing" textLength="41" x="61.5" y="234.7686">&#272;&#7891;ng &#253;</text><polygon fill="#444444" points="509.5,265.9766,519.5,269.9766,509.5,273.9766,513.5,269.9766" style="stroke:#444444;stroke-width:1.0;"/><line style="stroke:#444444;stroke-width:1.0;" x1="412.5" x2="515.5" y1="269.9766" y2="269.9766"/><text fill="#000000" font-family="sans-serif" font-size="13" lengthAdjust="spacing" textLength="53" x="419.5" y="265.1201">delete(id)</text><polygon fill="#444444" points="608.5,296.3281,618.5,300.3281,608.5,304.3281,612.5,300.3281" style="stroke:#444444;stroke-width:1.0;"/><line style="stroke:#444444;stroke-width:1.0;" x1="531.5" x2="614.5" y1="300.3281" y2="300.3281"/><text fill="#000000" font-family="sans-serif" font-size="13" lengthAdjust="spacing" textLength="53" x="538.5" y="295.4717">delete(id)</text><polygon fill="#444444" points="841.5,326.6797,851.5,330.6797,841.5,334.6797,845.5,330.6797" style="stroke:#444444;stroke-width:1.0;"/><line style="stroke:#444444;stroke-width:1.0;" x1="620.5" x2="847.5" y1="330.6797" y2="330.6797"/><text fill="#000000" font-family="sans-serif" font-size="13" lengthAdjust="spacing" textLength="209" x="627.5" y="325.8232">DELETE h&#243;a &#273;&#417;n b&#225;n WHERE id=?</text><polygon fill="#444444" points="542.5,357.0313,532.5,361.0313,542.5,365.0313,538.5,361.0313" style="stroke:#444444;stroke-width:1.0;"/><line style="stroke:#444444;stroke-width:1.0;stroke-dasharray:2.0,2.0;" x1="536.5" x2="619.5" y1="361.0313" y2="361.0313"/><text fill="#000000" font-family="sans-serif" font-size="13" lengthAdjust="spacing" textLength="14" x="548.5" y="356.1748">ok</text><polygon fill="#444444" points="423.5,387.3828,413.5,391.3828,423.5,395.3828,419.5,391.3828" style="stroke:#444444;stroke-width:1.0;"/><line style="stroke:#444444;stroke-width:1.0;stroke-dasharray:2.0,2.0;" x1="417.5" x2="520.5" y1="391.3828" y2="391.3828"/><text fill="#000000" font-family="sans-serif" font-size="13" lengthAdjust="spacing" textLength="64" x="429.5" y="386.5264">th&#224;nh c&#244;ng</text><polygon fill="#444444" points="65.5,417.7344,55.5,421.7344,65.5,425.7344,61.5,421.7344" style="stroke:#444444;stroke-width:1.0;"/><line style="stroke:#444444;stroke-width:1.0;stroke-dasharray:2.0,2.0;" x1="59.5" x2="401.5" y1="421.7344" y2="421.7344"/><text fill="#000000" font-family="sans-serif" font-size="13" lengthAdjust="spacing" textLength="116" x="71.5" y="416.8779">C&#7853;p nh&#7853;t danh s&#225;ch</text><line style="stroke:#000000;stroke-width:1.0;stroke-dasharray:2.0,2.0;" x1="10" x2="885" y1="430.7344" y2="430.7344"/><text fill="#000000" font-family="sans-serif" font-size="11" font-weight="bold" lengthAdjust="spacing" textLength="140" x="15" y="442.1533">[Ng&#432;&#7901;i d&#249;ng ch&#7885;n Kh&#244;ng]</text><polygon fill="#444444" points="65.5,463.9219,55.5,467.9219,65.5,471.9219,61.5,467.9219" style="stroke:#444444;stroke-width:1.0;"/><line style="stroke:#444444;stroke-width:1.0;stroke-dasharray:2.0,2.0;" x1="59.5" x2="401.5" y1="467.9219" y2="467.9219"/><text fill="#000000" font-family="sans-serif" font-size="13" lengthAdjust="spacing" textLength="91" x="71.5" y="463.0654">&#272;&#243;ng th&#244;ng b&#225;o</text><!--SRC=[XP9FYzGm6CRl-HGlzQA7KK454NJP_XaKooBgLA_P93i9qqbhcyuguicpi8DdOSUB82mguyKfdZBizyWtyUqVnj4TiOUMFC_lVVFaROmogG1VkVfj1Ukvgz-3gTpgamRZwcymWETsIK4sh_NyVA7Xq2uqAITAvxIWKoWbvTcnqcCuecafjXtneXAQ2NXD0FQB8ZiEiZGhuDBDza4nLaSYLbhuMS55qRl3uQteTeJk8reOnLHEjVa_GDbaN6ILvXjeU7ruWxmXb1bSUmVIVjGmK_Qpze2MC2BvxshmA9ygVKtfMQQOAA_cCc-fv4_gGUVxSTow_auttE_Sa71gw24j1NZ1ax0NVJA2mJr8u0u4qjNlDBpSDLzChMRK24oGm00BHbZW-Mw50BDBODAjlh3kes5QkNg-knDeU_eA9j9-r-CzZz3KmC7u_AkhFoZWzWV-DjR52EmIHxe9jpx1cu2k_ObgqgW-gboameZBYbz1TPFHnuNV8E7VIDYgJMKOnT7Jw4AwP_UZnn4eVdUle_jziadNiWzZf3tL4W-EX-ZYz1C9tEei1urJE3F0AJAbNJ2931TRyGHUp7yS-w6yq7HzOfS8cDPfOcP4Q4wsEYRa5m00]--></g></svg>