<?xml version="1.0" encoding="us-ascii" standalone="no"?><svg xmlns="http://www.w3.org/2000/svg" xmlns:xlink="http://www.w3.org/1999/xlink" contentStyleType="text/css" height="635px" preserveAspectRatio="none" style="width:749px;height:635px;background:#FFFFFF;" version="1.1" viewBox="0 0 749 635" width="749px" zoomAndPan="magnify"><defs/><g><text fill="#000000" font-family="sans-serif" font-size="14" font-weight="bold" lengthAdjust="spacing" textLength="267" x="242.25" y="29.5332">Bi&#7875;u &#273;&#7891; tu&#7847;n t&#7921; - T&#236;m ki&#7871;m kh&#225;ch h&#224;ng</text><rect fill="#FFFFFF" height="390.0547" style="stroke:#FF5E8E;stroke-width:1.0;" width="10" x="245.5" y="153.5703"/><rect fill="#FFFFFF" height="359.7031" style="stroke:#FF5E8E;stroke-width:1.0;" width="10" x="380" y="183.9219"/><rect fill="none" height="277" style="stroke:#000000;stroke-width:1.5;" width="732.5" x="10" y="259.625"/><line style="stroke:#FF5E8E;stroke-width:0.5;stroke-dasharray:5.0,5.0;" x1="54" x2="54" y1="121.2188" y2="553.625"/><line style="stroke:#FF5E8E;stroke-width:0.5;stroke-dasharray:5.0,5.0;" x1="250" x2="250" y1="121.2188" y2="553.625"/><line style="stroke:#FF5E8E;stroke-width:0.5;stroke-dasharray:5.0,5.0;" x1="385" x2="385" y1="121.2188" y2="553.625"/><line style="stroke:#FF5E8E;stroke-width:0.5;stroke-dasharray:5.0,5.0;" x1="509" x2="509" y1="121.2188" y2="553.625"/><line style="stroke:#FF5E8E;stroke-width:0.5;stroke-dasharray:5.0,5.0;" x1="710.5" x2="710.5" y1="121.2188" y2="553.625"/><text fill="#000000" font-family="sans-serif" font-size="14" lengthAdjust="spacing" textLength="63" x="20" y="118.1426">Nh&#226;n vi&#234;n</text><ellipse cx="54.5" cy="52.1094" fill="#E2E2F0" rx="8" ry="8" style="stroke:#181818;stroke-width:0.5;"/><path d="M54.5,60.1094 L54.5,87.1094 M41.5,68.1094 L67.5,68.1094 M54.5,87.1094 L41.5,102.1094 M54.5,87.1094 L67.5,102.1094 " fill="none" style="stroke:#181818;stroke-width:0.5;"/><text fill="#000000" font-family="sans-serif" font-size="14" lengthAdjust="spacing" textLength="63" x="20" y="567.1582">Nh&#226;n vi&#234;n</text><ellipse cx="54.5" cy="578.7344" fill="#E2E2F0" rx="8" ry="8" style="stroke:#181818;stroke-width:0.5;"/><path d="M54.5,586.7344 L54.5,613.7344 M41.5,594.7344 L67.5,594.7344 M54.5,613.7344 L41.5,628.7344 M54.5,613.7344 L67.5,628.7344 " fill="none" style="stroke:#181818;stroke-width:0.5;"/><rect fill="#FFF0F3" height="31.6094" rx="2.5" ry="2.5" style="stroke:#FF5E8E;stroke-width:0.5;" width="149" x="176" y="88.6094"/><text fill="#000000" font-family="sans-serif" font-size="14" lengthAdjust="spacing" textLength="135" x="183" y="110.1426">admin/customers.php</text><rect fill="#FFF0F3" height="31.6094" rx="2.5" ry="2.5" style="stroke:#FF5E8E;stroke-width:0.5;" width="149" x="176" y="552.625"/><text fill="#000000" font-family="sans-serif" font-size="14" lengthAdjust="spacing" textLength="135" x="183" y="574.1582">admin/customers.php</text><rect fill="#FFF0F3" height="31.6094" rx="2.5" ry="2.5" style="stroke:#FF5E8E;stroke-width:0.5;" width="100" x="335" y="88.6094"/><text fill="#000000" font-family="sans-serif" font-size="14" lengthAdjust="spacing" textLength="86" x="342" y="110.1426">CustomerBLL</text><rect fill="#FFF0F3" height="31.6094" rx="2.5" ry="2.5" style="stroke:#FF5E8E;stroke-width:0.5;" width="100" x="335" y="552.625"/><text fill="#000000" font-family="sans-serif" font-size="14" lengthAdjust="spacing" textLength="86" x="342" y="574.1582">CustomerBLL</text><rect fill="#FFF0F3" height="31.6094" rx="2.5" ry="2.5" style="stroke:#FF5E8E;stroke-width:0.5;" width="102" x="458" y="88.6094"/><text fill="#000000" font-family="sans-serif" font-size="14" lengthAdjust="spacing" textLength="88" x="465" y="110.1426">CustomerDAL</text><rect fill="#FFF0F3" height="31.6094" rx="2.5" ry="2.5" style="stroke:#FF5E8E;stroke-width:0.5;" width="102" x="458" y="552.625"/><text fill="#000000" font-family="sans-serif" font-size="14" lengthAdjust="spacing" textLength="88" x="465" y="574.1582">CustomerDAL</text><text fill="#000000" font-family="sans-serif" font-size="14" lengthAdjust="spacing" textLength="37" x="689.5" y="118.1426">CSDL</text><path d="M693,67.6094 C693,57.6094 711,57.6094 711,57.6094 C711,57.6094 729,57.6094 729,67.6094 L729,93.6094 C729,103.6094 711,103.6094 711,103.6094 C711,103.6094 693,103.6094 693,93.6094 L693,67.6094 " fill="#E2E2F0" style="stroke:#181818;stroke-width:1.5;"/><path d="M693,67.6094 C693,77.6094 711,77.6094 711,77.6094 C711,77.6094 729,77.6094 729,67.6094 " fill="none" style="stroke:#181818;stroke-width:1.5;"/><text fill="#000000" font-family="sans-serif" font-size="14" lengthAdjust="spacing" textLength="37" x="689.5" y="567.1582">CSDL</text><path d="M693,580.2344 C693,570.2344 711,570.2344 711,570.2344 C711,570.2344 729,570.2344 729,580.2344 L729,606.2344 C729,616.2344 711,616.2344 711,616.2344 C711,616.2344 693,616.2344 693,606.2344 L693,580.2344 " fill="#E2E2F0" style="stroke:#181818;stroke-width:1.5;"/><path d="M693,580.2344 C693,590.2344 711,590.2344 711,590.2344 C711,590.2344 729,590.2344 729,580.2344 " fill="none" style="stroke:#181818;stroke-width:1.5;"/><rect fill="#FFFFFF" height="390.0547" style="stroke:#FF5E8E;stroke-width:1.0;" width="10" x="245.5" y="153.5703"/><rect fill="#FFFFFF" height="359.7031" style="stroke:#FF5E8E;stroke-width:1.0;" width="10" x="380" y="183.9219"/><polygon fill="#444444" points="233.5,149.5703,243.5,153.5703,233.5,157.5703,237.5,153.5703" style="stroke:#444444;stroke-width:1.0;"/><line style="stroke:#444444;stroke-width:1.0;" x1="54.5" x2="239.5" y1="153.5703" y2="153.5703"/><text fill="#000000" font-family="sans-serif" font-size="13" lengthAdjust="spacing" textLength="172" x="61.5" y="148.7139">Nh&#7853;p t&#7915; kh&#243;a t&#236;m kh&#225;ch h&#224;ng</text><polygon fill="#444444" points="368,179.9219,378,183.9219,368,187.9219,372,183.9219" style="stroke:#444444;stroke-width:1.0;"/><line style="stroke:#444444;stroke-width:1.0;" x1="255.5" x2="374" y1="183.9219" y2="183.9219"/><text fill="#000000" font-family="sans-serif" font-size="13" lengthAdjust="spacing" textLength="95" x="262.5" y="179.0654">search(keyword)</text><polygon fill="#444444" points="497,210.2734,507,214.2734,497,218.2734,501,214.2734" style="stroke:#444444;stroke-width:1.0;"/><line style="stroke:#444444;stroke-width:1.0;" x1="390" x2="503" y1="214.2734" y2="214.2734"/><text fill="#000000" font-family="sans-serif" font-size="13" lengthAdjust="spacing" textLength="95" x="397" y="209.417">search(keyword)</text><polygon fill="#444444" points="699,240.625,709,244.625,699,248.625,703,244.625" style="stroke:#444444;stroke-width:1.0;"/><line style="stroke:#444444;stroke-width:1.0;" x1="509" x2="705" y1="244.625" y2="244.625"/><text fill="#000000" font-family="sans-serif" font-size="13" lengthAdjust="spacing" textLength="178" x="516" y="239.7686">SELECT ... WHERE ... LIKE ?</text><path d="M10,259.625 L71,259.625 L71,267.9766 L61,277.9766 L10,277.9766 L10,259.625 " fill="#EEEEEE" style="stroke:#000000;stroke-width:1.5;"/><rect fill="none" height="277" style="stroke:#000000;stroke-width:1.5;" width="732.5" x="10" y="259.625"/><text fill="#000000" font-family="sans-serif" font-size="13" font-weight="bold" lengthAdjust="spacing" textLength="16" x="25" y="274.1201">alt</text><text fill="#000000" font-family="sans-serif" font-size="11" font-weight="bold" lengthAdjust="spacing" textLength="67" x="86" y="273.0439">[C&#243; k&#7871;t qu&#7843;]</text><polygon fill="#444444" points="520,296.3281,510,300.3281,520,304.3281,516,300.3281" style="stroke:#444444;stroke-width:1.0;"/><line style="stroke:#444444;stroke-width:1.0;stroke-dasharray:2.0,2.0;" x1="514" x2="710" y1="300.3281" y2="300.3281"/><text fill="#000000" font-family="sans-serif" font-size="13" lengthAdjust="spacing" textLength="74" x="526" y="295.4717">d&#7919; li&#7879;u kh&#7899;p</text><polygon fill="#444444" points="401,326.6797,391,330.6797,401,334.6797,397,330.6797" style="stroke:#444444;stroke-width:1.0;"/><line style="stroke:#444444;stroke-width:1.0;stroke-dasharray:2.0,2.0;" x1="395" x2="508" y1="330.6797" y2="330.6797"/><text fill="#000000" font-family="sans-serif" font-size="13" lengthAdjust="spacing" textLength="43" x="407" y="325.8232">k&#7871;t qu&#7843;</text><polygon fill="#444444" points="266.5,357.0313,256.5,361.0313,266.5,365.0313,262.5,361.0313" style="stroke:#444444;stroke-width:1.0;"/><line style="stroke:#444444;stroke-width:1.0;stroke-dasharray:2.0,2.0;" x1="260.5" x2="379" y1="361.0313" y2="361.0313"/><text fill="#000000" font-family="sans-serif" font-size="13" lengthAdjust="spacing" textLength="43" x="272.5" y="356.1748">k&#7871;t qu&#7843;</text><polygon fill="#444444" points="65.5,387.3828,55.5,391.3828,65.5,395.3828,61.5,391.3828" style="stroke:#444444;stroke-width:1.0;"/><line style="stroke:#444444;stroke-width:1.0;stroke-dasharray:2.0,2.0;" x1="59.5" x2="244.5" y1="391.3828" y2="391.3828"/><text fill="#000000" font-family="sans-serif" font-size="13" lengthAdjust="spacing" textLength="145" x="71.5" y="386.5264">Hi&#7875;n th&#7883; k&#7871;t qu&#7843; t&#236;m ki&#7871;m</text><line style="stroke:#000000;stroke-width:1.0;stroke-dasharray:2.0,2.0;" x1="10" x2="742.5" y1="400.3828" y2="400.3828"/><text fill="#000000" font-family="sans-serif" font-size="11" font-weight="bold" lengthAdjust="spacing" textLength="75" x="15" y="411.8018">[Kh&#244;ng kh&#7899;p]</text><polygon fill="#444444" points="520,433.5703,510,437.5703,520,441.5703,516,437.5703" style="stroke:#444444;stroke-width:1.0;"/><line style="stroke:#444444;stroke-width:1.0;stroke-dasharray:2.0,2.0;" x1="514" x2="710" y1="437.5703" y2="437.5703"/><text fill="#000000" font-family="sans-serif" font-size="13" lengthAdjust="spacing" textLength="25" x="526" y="432.7139">r&#7895;ng</text><polygon fill="#444444" points="401,463.9219,391,467.9219,401,471.9219,397,467.9219" style="stroke:#444444;stroke-width:1.0;"/><line style="stroke:#444444;stroke-width:1.0;stroke-dasharray:2.0,2.0;" x1="395" x2="508" y1="467.9219" y2="467.9219"/><text fill="#000000" font-family="sans-serif" font-size="13" lengthAdjust="spacing" textLength="25" x="407" y="463.0654">r&#7895;ng</text><polygon fill="#444444" points="266.5,494.2734,256.5,498.2734,266.5,502.2734,262.5,498.2734" style="stroke:#444444;stroke-width:1.0;"/><line style="stroke:#444444;stroke-width:1.0;stroke-dasharray:2.0,2.0;" x1="260.5" x2="379" y1="498.2734" y2="498.2734"/><text fill="#000000" font-family="sans-serif" font-size="13" lengthAdjust="spacing" textLength="25" x="272.5" y="493.417">r&#7895;ng</text><polygon fill="#444444" points="65.5,524.625,55.5,528.625,65.5,532.625,61.5,528.625" style="stroke:#444444;stroke-width:1.0;"/><line style="stroke:#444444;stroke-width:1.0;stroke-dasharray:2.0,2.0;" x1="59.5" x2="244.5" y1="528.625" y2="528.625"/><text fill="#000000" font-family="sans-serif" font-size="13" lengthAdjust="spacing" textLength="109" x="71.5" y="523.7686">Hi&#7875;n th&#7883; b&#7843;ng tr&#7855;ng</text><!--SRC=[XLAxRjH05EtdAwwM1efTa009KO3YjLT1iI94igQ-iISx8tl7pdYS5K9K51HK4GK5JG854Wz5A5JhWiByoFm9rnDhxOWWtDW-ZxdNnyT8at7mfArVL_3xnDRlm5Hs_Lc1iVKF6CD-ysq9gRJhNtGJpLaiG3IdQi7ALAe2DIwX59ZaAwaMS8XPoOSCFwguYZcyP01RMkUhQPxb6cxSSnU1eJpaeLJSotN2TSVEPlU31m6nJr4R6Si2bVc_0EDqeVDA9HlHxCxiBdl5C3RqFjeLpKS5nxBveaQ09SnPqRjXXCbIgjjnLPfyoNKvAKJXPD5LsRGJU67eQEzwsj-wf7sMeC43B3bnUtu7UcmEuqSGmKFO5NRzlMZJ_jhcUu5WNEB3gEa3v34QJhj4hSyZNybHn-9cob-iA9bRlSPZNglnhz7uZcZTUq4OJFTXCfd0y-tWMU2UmYSx0Jncc1cODXUGqZytS4Hj-4H9astS7PlO-XmogioRYlQqzOUYvHtTddtLTscB_i8ZXyy9tsxBHtsZazuEHLqGhdgCKx5WHpG_gMNzp7udRUltbDHmZmtKhx21_Z7zWCRI0AFj-fnqN2KiuODa1oyH-mC0]--></g></svg>