<?xml version="1.0" encoding="us-ascii" standalone="no"?><svg xmlns="http://www.w3.org/2000/svg" xmlns:xlink="http://www.w3.org/1999/xlink" contentStyleType="text/css" height="635px" preserveAspectRatio="none" style="width:738px;height:635px;background:#FFFFFF;" version="1.1" viewBox="0 0 738 635" width="738px" zoomAndPan="magnify"><defs/><g><text fill="#000000" font-family="sans-serif" font-size="14" font-weight="bold" lengthAdjust="spacing" textLength="256" x="242.25" y="29.5332">Bi&#7875;u &#273;&#7891; tu&#7847;n t&#7921; - T&#236;m ki&#7871;m nh&#226;n vi&#234;n</text><rect fill="#FFFFFF" height="390.0547" style="stroke:#FF5E8E;stroke-width:1.0;" width="10" x="232.5" y="153.5703"/><rect fill="#FFFFFF" height="359.7031" style="stroke:#FF5E8E;stroke-width:1.0;" width="10" x="369" y="183.9219"/><rect fill="none" height="277" style="stroke:#000000;stroke-width:1.5;" width="721.5" x="10" y="259.625"/><line style="stroke:#FF5E8E;stroke-width:0.5;stroke-dasharray:5.0,5.0;" x1="54" x2="54" y1="121.2188" y2="553.625"/><line style="stroke:#FF5E8E;stroke-width:0.5;stroke-dasharray:5.0,5.0;" x1="237.5" x2="237.5" y1="121.2188" y2="553.625"/><line style="stroke:#FF5E8E;stroke-width:0.5;stroke-dasharray:5.0,5.0;" x1="373.5" x2="373.5" y1="121.2188" y2="553.625"/><line style="stroke:#FF5E8E;stroke-width:0.5;stroke-dasharray:5.0,5.0;" x1="497.5" x2="497.5" y1="121.2188" y2="553.625"/><line style="stroke:#FF5E8E;stroke-width:0.5;stroke-dasharray:5.0,5.0;" x1="699.5" x2="699.5" y1="121.2188" y2="553.625"/><text fill="#000000" font-family="sans-serif" font-size="14" lengthAdjust="spacing" textLength="63" x="20" y="118.1426">Nh&#226;n vi&#234;n</text><ellipse cx="54.5" cy="52.1094" fill="#E2E2F0" rx="8" ry="8" style="stroke:#181818;stroke-width:0.5;"/><path d="M54.5,60.1094 L54.5,87.1094 M41.5,68.1094 L67.5,68.1094 M54.5,87.1094 L41.5,102.1094 M54.5,87.1094 L67.5,102.1094 " fill="none" style="stroke:#181818;stroke-width:0.5;"/><text fill="#000000" font-family="sans-serif" font-size="14" lengthAdjust="spacing" textLength="63" x="20" y="567.1582">Nh&#226;n vi&#234;n</text><ellipse cx="54.5" cy="578.7344" fill="#E2E2F0" rx="8" ry="8" style="stroke:#181818;stroke-width:0.5;"/><path d="M54.5,586.7344 L54.5,613.7344 M41.5,594.7344 L67.5,594.7344 M54.5,613.7344 L41.5,628.7344 M54.5,613.7344 L67.5,628.7344 " fill="none" style="stroke:#181818;stroke-width:0.5;"/><rect fill="#FFF0F3" height="31.6094" rx="2.5" ry="2.5" style="stroke:#FF5E8E;stroke-width:0.5;" width="152" x="161.5" y="88.6094"/><text fill="#000000" font-family="sans-serif" font-size="14" lengthAdjust="spacing" textLength="138" x="168.5" y="110.1426">admin/employees.php</text><rect fill="#FFF0F3" height="31.6094" rx="2.5" ry="2.5" style="stroke:#FF5E8E;stroke-width:0.5;" width="152" x="161.5" y="552.625"/><text fill="#000000" font-family="sans-serif" font-size="14" lengthAdjust="spacing" textLength="138" x="168.5" y="574.1582">admin/employees.php</text><rect fill="#FFF0F3" height="31.6094" rx="2.5" ry="2.5" style="stroke:#FF5E8E;stroke-width:0.5;" width="101" x="323.5" y="88.6094"/><text fill="#000000" font-family="sans-serif" font-size="14" lengthAdjust="spacing" textLength="87" x="330.5" y="110.1426">EmployeeBLL</text><rect fill="#FFF0F3" height="31.6094" rx="2.5" ry="2.5" style="stroke:#FF5E8E;stroke-width:0.5;" width="101" x="323.5" y="552.625"/><text fill="#000000" font-family="sans-serif" font-size="14" lengthAdjust="spacing" textLength="87" x="330.5" y="574.1582">EmployeeBLL</text><rect fill="#FFF0F3" height="31.6094" rx="2.5" ry="2.5" style="stroke:#FF5E8E;stroke-width:0.5;" width="103" x="446.5" y="88.6094"/><text fill="#000000" font-family="sans-serif" font-size="14" lengthAdjust="spacing" textLength="89" x="453.5" y="110.1426">EmployeeDAL</text><rect fill="#FFF0F3" height="31.6094" rx="2.5" ry="2.5" style="stroke:#FF5E8E;stroke-width:0.5;" width="103" x="446.5" y="552.625"/><text fill="#000000" font-family="sans-serif" font-size="14" lengthAdjust="spacing" textLength="89" x="453.5" y="574.1582">EmployeeDAL</text><text fill="#000000" font-family="sans-serif" font-size="14" lengthAdjust="spacing" textLength="37" x="678.5" y="118.1426">CSDL</text><path d="M682,67.6094 C682,57.6094 700,57.6094 700,57.6094 C700,57.6094 718,57.6094 718,67.6094 L718,93.6094 C718,103.6094 700,103.6094 700,103.6094 C700,103.6094 682,103.6094 682,93.6094 L682,67.6094 " fill="#E2E2F0" style="stroke:#181818;stroke-width:1.5;"/><path d="M682,67.6094 C682,77.6094 700,77.6094 700,77.6094 C700,77.6094 718,77.6094 718,67.6094 " fill="none" style="stroke:#181818;stroke-width:1.5;"/><text fill="#000000" font-family="sans-serif" font-size="14" lengthAdjust="spacing" textLength="37" x="678.5" y="567.1582">CSDL</text><path d="M682,580.2344 C682,570.2344 700,570.2344 700,570.2344 C700,570.2344 718,570.2344 718,580.2344 L718,606.2344 C718,616.2344 700,616.2344 700,616.2344 C700,616.2344 682,616.2344 682,606.2344 L682,580.2344 " fill="#E2E2F0" style="stroke:#181818;stroke-width:1.5;"/><path d="M682,580.2344 C682,590.2344 700,590.2344 700,590.2344 C700,590.2344 718,590.2344 718,580.2344 " fill="none" style="stroke:#181818;stroke-width:1.5;"/><rect fill="#FFFFFF" height="390.0547" style="stroke:#FF5E8E;stroke-width:1.0;" width="10" x="232.5" y="153.5703"/><rect fill="#FFFFFF" height="359.7031" style="stroke:#FF5E8E;stroke-width:1.0;" width="10" x="369" y="183.9219"/><polygon fill="#444444" points="220.5,149.5703,230.5,153.5703,220.5,157.5703,224.5,153.5703" style="stroke:#444444;stroke-width:1.0;"/><line style="stroke:#444444;stroke-width:1.0;" x1="54.5" x2="226.5" y1="153.5703" y2="153.5703"/><text fill="#000000" font-family="sans-serif" font-size="13" lengthAdjust="spacing" textLength="159" x="61.5" y="148.7139">Nh&#7853;p t&#7915; kh&#243;a t&#236;m nh&#226;n vi&#234;n</text><polygon fill="#444444" points="357,179.9219,367,183.9219,357,187.9219,361,183.9219" style="stroke:#444444;stroke-width:1.0;"/><line style="stroke:#444444;stroke-width:1.0;" x1="242.5" x2="363" y1="183.9219" y2="183.9219"/><text fill="#000000" font-family="sans-serif" font-size="13" lengthAdjust="spacing" textLength="95" x="249.5" y="179.0654">search(keyword)</text><polygon fill="#444444" points="486,210.2734,496,214.2734,486,218.2734,490,214.2734" style="stroke:#444444;stroke-width:1.0;"/><line style="stroke:#444444;stroke-width:1.0;" x1="379" x2="492" y1="214.2734" y2="214.2734"/><text fill="#000000" font-family="sans-serif" font-size="13" lengthAdjust="spacing" textLength="95" x="386" y="209.417">search(keyword)</text><polygon fill="#444444" points="688,240.625,698,244.625,688,248.625,692,244.625" style="stroke:#444444;stroke-width:1.0;"/><line style="stroke:#444444;stroke-width:1.0;" x1="498" x2="694" y1="244.625" y2="244.625"/><text fill="#000000" font-family="sans-serif" font-size="13" lengthAdjust="spacing" textLength="178" x="505" y="239.7686">SELECT ... WHERE ... LIKE ?</text><path d="M10,259.625 L71,259.625 L71,267.9766 L61,277.9766 L10,277.9766 L10,259.625 " fill="#EEEEEE" style="stroke:#000000;stroke-width:1.5;"/><rect fill="none" height="277" style="stroke:#000000;stroke-width:1.5;" width="721.5" x="10" y="259.625"/><text fill="#000000" font-family="sans-serif" font-size="13" font-weight="bold" lengthAdjust="spacing" textLength="16" x="25" y="274.1201">alt</text><text fill="#000000" font-family="sans-serif" font-size="11" font-weight="bold" lengthAdjust="spacing" textLength="67" x="86" y="273.0439">[C&#243; k&#7871;t qu&#7843;]</text><polygon fill="#444444" points="509,296.3281,499,300.3281,509,304.3281,505,300.3281" style="stroke:#444444;stroke-width:1.0;"/><line style="stroke:#444444;stroke-width:1.0;stroke-dasharray:2.0,2.0;" x1="503" x2="699" y1="300.3281" y2="300.3281"/><text fill="#000000" font-family="sans-serif" font-size="13" lengthAdjust="spacing" textLength="74" x="515" y="295.4717">d&#7919; li&#7879;u kh&#7899;p</text><polygon fill="#444444" points="390,326.6797,380,330.6797,390,334.6797,386,330.6797" style="stroke:#444444;stroke-width:1.0;"/><line style="stroke:#444444;stroke-width:1.0;stroke-dasharray:2.0,2.0;" x1="384" x2="497" y1="330.6797" y2="330.6797"/><text fill="#000000" font-family="sans-serif" font-size="13" lengthAdjust="spacing" textLength="43" x="396" y="325.8232">k&#7871;t qu&#7843;</text><polygon fill="#444444" points="253.5,357.0313,243.5,361.0313,253.5,365.0313,249.5,361.0313" style="stroke:#444444;stroke-width:1.0;"/><line style="stroke:#444444;stroke-width:1.0;stroke-dasharray:2.0,2.0;" x1="247.5" x2="368" y1="361.0313" y2="361.0313"/><text fill="#000000" font-family="sans-serif" font-size="13" lengthAdjust="spacing" textLength="43" x="259.5" y="356.1748">k&#7871;t qu&#7843;</text><polygon fill="#444444" points="65.5,387.3828,55.5,391.3828,65.5,395.3828,61.5,391.3828" style="stroke:#444444;stroke-width:1.0;"/><line style="stroke:#444444;stroke-width:1.0;stroke-dasharray:2.0,2.0;" x1="59.5" x2="231.5" y1="391.3828" y2="391.3828"/><text fill="#000000" font-family="sans-serif" font-size="13" lengthAdjust="spacing" textLength="145" x="71.5" y="386.5264">Hi&#7875;n th&#7883; k&#7871;t qu&#7843; t&#236;m ki&#7871;m</text><line style="stroke:#000000;stroke-width:1.0;stroke-dasharray:2.0,2.0;" x1="10" x2="731.5" y1="400.3828" y2="400.3828"/><text fill="#000000" font-family="sans-serif" font-size="11" font-weight="bold" lengthAdjust="spacing" textLength="75" x="15" y="411.8018">[Kh&#244;ng kh&#7899;p]</text><polygon fill="#444444" points="509,433.5703,499,437.5703,509,441.5703,505,437.5703" style="stroke:#444444;stroke-width:1.0;"/><line style="stroke:#444444;stroke-width:1.0;stroke-dasharray:2.0,2.0;" x1="503" x2="699" y1="437.5703" y2="437.5703"/><text fill="#000000" font-family="sans-serif" font-size="13" lengthAdjust="spacing" textLength="25" x="515" y="432.7139">r&#7895;ng</text><polygon fill="#444444" points="390,463.9219,380,467.9219,390,471.9219,386,467.9219" style="stroke:#444444;stroke-width:1.0;"/><line style="stroke:#444444;stroke-width:1.0;stroke-dasharray:2.0,2.0;" x1="384" x2="497" y1="467.9219" y2="467.9219"/><text fill="#000000" font-family="sans-serif" font-size="13" lengthAdjust="spacing" textLength="25" x="396" y="463.0654">r&#7895;ng</text><polygon fill="#444444" points="253.5,494.2734,243.5,498.2734,253.5,502.2734,249.5,498.2734" style="stroke:#444444;stroke-width:1.0;"/><line style="stroke:#444444;stroke-width:1.0;stroke-dasharray:2.0,2.0;" x1="247.5" x2="368" y1="498.2734" y2="498.2734"/><text fill="#000000" font-family="sans-serif" font-size="13" lengthAdjust="spacing" textLength="25" x="259.5" y="493.417">r&#7895;ng</text><polygon fill="#444444" points="65.5,524.625,55.5,528.625,65.5,532.625,61.5,528.625" style="stroke:#444444;stroke-width:1.0;"/><line style="stroke:#444444;stroke-width:1.0;stroke-dasharray:2.0,2.0;" x1="59.5" x2="231.5" y1="528.625" y2="528.625"/><text fill="#000000" font-family="sans-serif" font-size="13" lengthAdjust="spacing" textLength="109" x="71.5" y="523.7686">Hi&#7875;n th&#7883; b&#7843;ng tr&#7855;ng</text><!--SRC=[XL8zRzH05EptLpmT3HHt804IeW35Pv-2OaM8v4pzOh-SLxRNpdgTKuIeA2Ye40K57HH8V2X2eJeN5EQFx3_XsNSw-qGGhdPdvkqRZST8an8uqjQlAlZzrjRlm5HszLc1iVKF6CDnyos3HDhLhmnKt7nKS2wRBqgKYLG5QioWZ37Abr8ju1JJaeOCdLMaGe8N0c1FwtmvpTDSmurxtSUWBq_9bugSN4UaD-niTjzxu37x5BMHeInGcVyBC4mMEgzKj1NDxipkYfS2GyFtqM5lVWHOmbmK_JICCCgakarPaUONHEMaY8jE5kpAl8t0yVsETgwdtRqrxOe83PvWIJ2Q7haRq15p63-201x2OMnNtuisxA-GnCqLWca37oRD_kKv6c8hGJlcy5X9gCFuPa8NImxcLgznXDDgt6iqRaUqqqUUxqsFOJAPmFDzxvdNdVmd1nuy5fWQc3PNaF0VDt36NVZ4GVFOUFDiPEjBIBamhojsREiFHSjtTFlsxjnwBFWB3pfyplX-Mprk6x_qPYXQvx0kdY3k5Hp4pKykMR-pzwHj_LujTdnieTx25lh7zXDUomkCjgjBrf6AH4I3P0UNGFm1]--></g></svg>