<?xml version="1.0" encoding="us-ascii" standalone="no"?><svg xmlns="http://www.w3.org/2000/svg" xmlns:xlink="http://www.w3.org/1999/xlink" contentStyleType="text/css" height="575px" preserveAspectRatio="none" style="width:889px;height:575px;background:#FFFFFF;" version="1.1" viewBox="0 0 889 575" width="889px" zoomAndPan="magnify"><defs/><g><text fill="#000000" font-family="sans-serif" font-size="14" font-weight="bold" lengthAdjust="spacing" textLength="221" x="335.25" y="29.5332">Bi&#7875;u &#273;&#7891; tu&#7847;n t&#7921; - X&#243;a nh&#226;n vi&#234;n</text><rect fill="#FFFFFF" height="329.3516" style="stroke:#FF5E8E;stroke-width:1.0;" width="10" x="383.5" y="153.5703"/><rect fill="#FFFFFF" height="151.7578" style="stroke:#FF5E8E;stroke-width:1.0;" width="10" x="520" y="269.9766"/><rect fill="none" height="277" style="stroke:#000000;stroke-width:1.5;" width="872.5" x="10" y="198.9219"/><line style="stroke:#FF5E8E;stroke-width:0.5;stroke-dasharray:5.0,5.0;" x1="54" x2="54" y1="121.2188" y2="492.9219"/><line style="stroke:#FF5E8E;stroke-width:0.5;stroke-dasharray:5.0,5.0;" x1="388.5" x2="388.5" y1="121.2188" y2="492.9219"/><line style="stroke:#FF5E8E;stroke-width:0.5;stroke-dasharray:5.0,5.0;" x1="524.5" x2="524.5" y1="121.2188" y2="492.9219"/><line style="stroke:#FF5E8E;stroke-width:0.5;stroke-dasharray:5.0,5.0;" x1="636.5" x2="636.5" y1="121.2188" y2="492.9219"/><line style="stroke:#FF5E8E;stroke-width:0.5;stroke-dasharray:5.0,5.0;" x1="850.5" x2="850.5" y1="121.2188" y2="492.9219"/><text fill="#000000" font-family="sans-serif" font-size="14" lengthAdjust="spacing" textLength="63" x="20" y="118.1426">Nh&#226;n vi&#234;n</text><ellipse cx="54.5" cy="52.1094" fill="#E2E2F0" rx="8" ry="8" style="stroke:#181818;stroke-width:0.5;"/><path d="M54.5,60.1094 L54.5,87.1094 M41.5,68.1094 L67.5,68.1094 M54.5,87.1094 L41.5,102.1094 M54.5,87.1094 L67.5,102.1094 " fill="none" style="stroke:#181818;stroke-width:0.5;"/><text fill="#000000" font-family="sans-serif" font-size="14" lengthAdjust="spacing" textLength="63" x="20" y="506.4551">Nh&#226;n vi&#234;n</text><ellipse cx="54.5" cy="518.0313" fill="#E2E2F0" rx="8" ry="8" style="stroke:#181818;stroke-width:0.5;"/><path d="M54.5,526.0313 L54.5,553.0313 M41.5,534.0313 L67.5,534.0313 M54.5,553.0313 L41.5,568.0313 M54.5,553.0313 L67.5,568.0313 " fill="none" style="stroke:#181818;stroke-width:0.5;"/><rect fill="#FFF0F3" height="31.6094" rx="2.5" ry="2.5" style="stroke:#FF5E8E;stroke-width:0.5;" width="152" x="312.5" y="88.6094"/><text fill="#000000" font-family="sans-serif" font-size="14" lengthAdjust="spacing" textLength="138" x="319.5" y="110.1426">admin/employees.php</text><rect fill="#FFF0F3" height="31.6094" rx="2.5" ry="2.5" style="stroke:#FF5E8E;stroke-width:0.5;" width="152" x="312.5" y="491.9219"/><text fill="#000000" font-family="sans-serif" font-size="14" lengthAdjust="spacing" textLength="138" x="319.5" y="513.4551">admin/employees.php</text><rect fill="#FFF0F3" height="31.6094" rx="2.5" ry="2.5" style="stroke:#FF5E8E;stroke-width:0.5;" width="101" x="474.5" y="88.6094"/><text fill="#000000" font-family="sans-serif" font-size="14" lengthAdjust="spacing" textLength="87" x="481.5" y="110.1426">EmployeeBLL</text><rect fill="#FFF0F3" height="31.6094" rx="2.5" ry="2.5" style="stroke:#FF5E8E;stroke-width:0.5;" width="101" x="474.5" y="491.9219"/><text fill="#000000" font-family="sans-serif" font-size="14" lengthAdjust="spacing" textLength="87" x="481.5" y="513.4551">EmployeeBLL</text><rect fill="#FFF0F3" height="31.6094" rx="2.5" ry="2.5" style="stroke:#FF5E8E;stroke-width:0.5;" width="103" x="585.5" y="88.6094"/><text fill="#000000" font-family="sans-serif" font-size="14" lengthAdjust="spacing" textLength="89" x="592.5" y="110.1426">EmployeeDAL</text><rect fill="#FFF0F3" height="31.6094" rx="2.5" ry="2.5" style="stroke:#FF5E8E;stroke-width:0.5;" width="103" x="585.5" y="491.9219"/><text fill="#000000" font-family="sans-serif" font-size="14" lengthAdjust="spacing" textLength="89" x="592.5" y="513.4551">EmployeeDAL</text><text fill="#000000" font-family="sans-serif" font-size="14" lengthAdjust="spacing" textLength="37" x="829.5" y="118.1426">CSDL</text><path d="M833,67.6094 C833,57.6094 851,57.6094 851,57.6094 C851,57.6094 869,57.6094 869,67.6094 L869,93.6094 C869,103.6094 851,103.6094 851,103.6094 C851,103.6094 833,103.6094 833,93.6094 L833,67.6094 " fill="#E2E2F0" style="stroke:#181818;stroke-width:1.5;"/><path d="M833,67.6094 C833,77.6094 851,77.6094 851,77.6094 C851,77.6094 869,77.6094 869,67.6094 " fill="none" style="stroke:#181818;stroke-width:1.5;"/><text fill="#000000" font-family="sans-serif" font-size="14" lengthAdjust="spacing" textLength="37" x="829.5" y="506.4551">CSDL</text><path d="M833,519.5313 C833,509.5313 851,509.5313 851,509.5313 C851,509.5313 869,509.5313 869,519.5313 L869,545.5313 C869,555.5313 851,555.5313 851,555.5313 C851,555.5313 833,555.5313 833,545.5313 L833,519.5313 " fill="#E2E2F0" style="stroke:#181818;stroke-width:1.5;"/><path d="M833,519.5313 C833,529.5313 851,529.5313 851,529.5313 C851,529.5313 869,529.5313 869,519.5313 " fill="none" style="stroke:#181818;stroke-width:1.5;"/><rect fill="#FFFFFF" height="329.3516" style="stroke:#FF5E8E;stroke-width:1.0;" width="10" x="383.5" y="153.5703"/><rect fill="#FFFFFF" height="151.7578" style="stroke:#FF5E8E;stroke-width:1.0;" width="10" x="520" y="269.9766"/><polygon fill="#444444" points="371.5,149.5703,381.5,153.5703,371.5,157.5703,375.5,153.5703" style="stroke:#444444;stroke-width:1.0;"/><line style="stroke:#444444;stroke-width:1.0;" x1="54.5" x2="377.5" y1="153.5703" y2="153.5703"/><text fill="#000000" font-family="sans-serif" font-size="13" lengthAdjust="spacing" textLength="113" x="61.5" y="148.7139">Ch&#7885;n x&#243;a nh&#226;n vi&#234;n</text><polygon fill="#444444" points="65.5,179.9219,55.5,183.9219,65.5,187.9219,61.5,183.9219" style="stroke:#444444;stroke-width:1.0;"/><line style="stroke:#444444;stroke-width:1.0;stroke-dasharray:2.0,2.0;" x1="59.5" x2="382.5" y1="183.9219" y2="183.9219"/><text fill="#000000" font-family="sans-serif" font-size="13" lengthAdjust="spacing" textLength="305" x="71.5" y="179.0654">"B&#7841;n c&#243; ch&#7855;c ch&#7855;n mu&#7889;n x&#243;a nh&#226;n vi&#234;n n&#224;y kh&#244;ng?"</text><path d="M10,198.9219 L71,198.9219 L71,207.2734 L61,217.2734 L10,217.2734 L10,198.9219 " fill="#EEEEEE" style="stroke:#000000;stroke-width:1.5;"/><rect fill="none" height="277" style="stroke:#000000;stroke-width:1.5;" width="872.5" x="10" y="198.9219"/><text fill="#000000" font-family="sans-serif" font-size="13" font-weight="bold" lengthAdjust="spacing" textLength="16" x="25" y="213.417">alt</text><text fill="#000000" font-family="sans-serif" font-size="11" font-weight="bold" lengthAdjust="spacing" textLength="120" x="86" y="212.3408">[Ng&#432;&#7901;i d&#249;ng ch&#7885;n C&#243;]</text><polygon fill="#444444" points="371.5,235.625,381.5,239.625,371.5,243.625,375.5,239.625" style="stroke:#444444;stroke-width:1.0;"/><line style="stroke:#444444;stroke-width:1.0;" x1="54.5" x2="377.5" y1="239.625" y2="239.625"/><text fill="#000000" font-family="sans-serif" font-size="13" lengthAdjust="spacing" textLength="41" x="61.5" y="234.7686">&#272;&#7891;ng &#253;</text><polygon fill="#444444" points="508,265.9766,518,269.9766,508,273.9766,512,269.9766" style="stroke:#444444;stroke-width:1.0;"/><line style="stroke:#444444;stroke-width:1.0;" x1="393.5" x2="514" y1="269.9766" y2="269.9766"/><text fill="#000000" font-family="sans-serif" font-size="13" lengthAdjust="spacing" textLength="53" x="400.5" y="265.1201">delete(id)</text><polygon fill="#444444" points="625,296.3281,635,300.3281,625,304.3281,629,300.3281" style="stroke:#444444;stroke-width:1.0;"/><line style="stroke:#444444;stroke-width:1.0;" x1="530" x2="631" y1="300.3281" y2="300.3281"/><text fill="#000000" font-family="sans-serif" font-size="13" lengthAdjust="spacing" textLength="53" x="537" y="295.4717">delete(id)</text><polygon fill="#444444" points="839,326.6797,849,330.6797,839,334.6797,843,330.6797" style="stroke:#444444;stroke-width:1.0;"/><line style="stroke:#444444;stroke-width:1.0;" x1="637" x2="845" y1="330.6797" y2="330.6797"/><text fill="#000000" font-family="sans-serif" font-size="13" lengthAdjust="spacing" textLength="190" x="644" y="325.8232">DELETE nh&#226;n vi&#234;n WHERE id=?</text><polygon fill="#444444" points="541,357.0313,531,361.0313,541,365.0313,537,361.0313" style="stroke:#444444;stroke-width:1.0;"/><line style="stroke:#444444;stroke-width:1.0;stroke-dasharray:2.0,2.0;" x1="535" x2="636" y1="361.0313" y2="361.0313"/><text fill="#000000" font-family="sans-serif" font-size="13" lengthAdjust="spacing" textLength="14" x="547" y="356.1748">ok</text><polygon fill="#444444" points="404.5,387.3828,394.5,391.3828,404.5,395.3828,400.5,391.3828" style="stroke:#444444;stroke-width:1.0;"/><line style="stroke:#444444;stroke-width:1.0;stroke-dasharray:2.0,2.0;" x1="398.5" x2="519" y1="391.3828" y2="391.3828"/><text fill="#000000" font-family="sans-serif" font-size="13" lengthAdjust="spacing" textLength="64" x="410.5" y="386.5264">th&#224;nh c&#244;ng</text><polygon fill="#444444" points="65.5,417.7344,55.5,421.7344,65.5,425.7344,61.5,421.7344" style="stroke:#444444;stroke-width:1.0;"/><line style="stroke:#444444;stroke-width:1.0;stroke-dasharray:2.0,2.0;" x1="59.5" x2="382.5" y1="421.7344" y2="421.7344"/><text fill="#000000" font-family="sans-serif" font-size="13" lengthAdjust="spacing" textLength="116" x="71.5" y="416.8779">C&#7853;p nh&#7853;t danh s&#225;ch</text><line style="stroke:#000000;stroke-width:1.0;stroke-dasharray:2.0,2.0;" x1="10" x2="882.5" y1="430.7344" y2="430.7344"/><text fill="#000000" font-family="sans-serif" font-size="11" font-weight="bold" lengthAdjust="spacing" textLength="140" x="15" y="442.1533">[Ng&#432;&#7901;i d&#249;ng ch&#7885;n Kh&#244;ng]</text><polygon fill="#444444" points="65.5,463.9219,55.5,467.9219,65.5,471.9219,61.5,467.9219" style="stroke:#444444;stroke-width:1.0;"/><line style="stroke:#444444;stroke-width:1.0;stroke-dasharray:2.0,2.0;" x1="59.5" x2="382.5" y1="467.9219" y2="467.9219"/><text fill="#000000" font-family="sans-serif" font-size="13" lengthAdjust="spacing" textLength="91" x="71.5" y="463.0654">&#272;&#243;ng th&#244;ng b&#225;o</text><!--SRC=[XPBFQzH05CVlyrSyuaKFgu8A8jZI_5W4Gn5rKw_JpElEiDb9J2QjHJnv5bey2rqlWY0gwyKDdcRn_vZ_nBT9s6vRnLo6-Nu_yzxtJSOeao7uoZLlQrYUkkOzcDejFcamhlaE0tXXvnoqj1yr72hxMRDgedJ1Ipw5IdAH7oazXWEULRZfuCiQTOhmcW7ib6L-5EHPNiArk-r7OgmEC5OQ_RmKMFRkS7WlkX-H-uINHgMguDhy7-3fP5pcjHPhQ7XxU8UzOJmrjFTspyDxm2iOiUByD7XSJ9M-XTCYouyHgvk5B5eikOX5FU37SMlxVxV3dSuEcU26x_CAmGkUXRtein4CjY211n18rxpJyEhozL9eTSWDKly41WIF2FPyjvXfIEqSKkaMNzDkqJ2jNNDwjGfeUtOC4sb_wF6sntXcO7Vy-vjhFYWGzYVziRHh7zWvtUOwrFA47W2vzXUfoKhrIHMOeS7hIjmWTPtFfus_GiBBIDYggvDX54VFeml9zXv5JoDGuk5sH_OzyabNhWzYf3tJaWQc0Ree_Kq4Rl6be8Aq612ScChEKacCm8reIE_n7oC_bbUABa_id03JEh1lPpb3BTX6nOJz0G00]--></g></svg>