<?xml version="1.0" encoding="us-ascii" standalone="no"?><svg xmlns="http://www.w3.org/2000/svg" xmlns:xlink="http://www.w3.org/1999/xlink" contentStyleType="text/css" height="588px" preserveAspectRatio="none" style="width:890px;height:588px;background:#FFFFFF;" version="1.1" viewBox="0 0 890 588" width="890px" zoomAndPan="magnify"><defs/><g><text fill="#000000" font-family="sans-serif" font-size="14" font-weight="bold" lengthAdjust="spacing" textLength="222" x="335.25" y="29.5332">Bi&#7875;u &#273;&#7891; tu&#7847;n t&#7921; - S&#7917;a nh&#226;n vi&#234;n</text><rect fill="#FFFFFF" height="342.3516" style="stroke:#FF5E8E;stroke-width:1.0;" width="10" x="330.5" y="153.5703"/><rect fill="#FFFFFF" height="312" style="stroke:#FF5E8E;stroke-width:1.0;" width="10" x="467" y="183.9219"/><rect fill="none" height="246.6484" style="stroke:#000000;stroke-width:1.5;" width="873.5" x="10" y="242.2734"/><line style="stroke:#FF5E8E;stroke-width:0.5;stroke-dasharray:5.0,5.0;" x1="54" x2="54" y1="121.2188" y2="505.9219"/><line style="stroke:#FF5E8E;stroke-width:0.5;stroke-dasharray:5.0,5.0;" x1="335.5" x2="335.5" y1="121.2188" y2="505.9219"/><line style="stroke:#FF5E8E;stroke-width:0.5;stroke-dasharray:5.0,5.0;" x1="471.5" x2="471.5" y1="121.2188" y2="505.9219"/><line style="stroke:#FF5E8E;stroke-width:0.5;stroke-dasharray:5.0,5.0;" x1="590.5" x2="590.5" y1="121.2188" y2="505.9219"/><line style="stroke:#FF5E8E;stroke-width:0.5;stroke-dasharray:5.0,5.0;" x1="851.5" x2="851.5" y1="121.2188" y2="505.9219"/><text fill="#000000" font-family="sans-serif" font-size="14" lengthAdjust="spacing" textLength="63" x="20" y="118.1426">Nh&#226;n vi&#234;n</text><ellipse cx="54.5" cy="52.1094" fill="#E2E2F0" rx="8" ry="8" style="stroke:#181818;stroke-width:0.5;"/><path d="M54.5,60.1094 L54.5,87.1094 M41.5,68.1094 L67.5,68.1094 M54.5,87.1094 L41.5,102.1094 M54.5,87.1094 L67.5,102.1094 " fill="none" style="stroke:#181818;stroke-width:0.5;"/><text fill="#000000" font-family="sans-serif" font-size="14" lengthAdjust="spacing" textLength="63" x="20" y="519.4551">Nh&#226;n vi&#234;n</text><ellipse cx="54.5" cy="531.0313" fill="#E2E2F0" rx="8" ry="8" style="stroke:#181818;stroke-width:0.5;"/><path d="M54.5,539.0313 L54.5,566.0313 M41.5,547.0313 L67.5,547.0313 M54.5,566.0313 L41.5,581.0313 M54.5,566.0313 L67.5,581.0313 " fill="none" style="stroke:#181818;stroke-width:0.5;"/><rect fill="#FFF0F3" height="31.6094" rx="2.5" ry="2.5" style="stroke:#FF5E8E;stroke-width:0.5;" width="152" x="259.5" y="88.6094"/><text fill="#000000" font-family="sans-serif" font-size="14" lengthAdjust="spacing" textLength="138" x="266.5" y="110.1426">admin/employees.php</text><rect fill="#FFF0F3" height="31.6094" rx="2.5" ry="2.5" style="stroke:#FF5E8E;stroke-width:0.5;" width="152" x="259.5" y="504.9219"/><text fill="#000000" font-family="sans-serif" font-size="14" lengthAdjust="spacing" textLength="138" x="266.5" y="526.4551">admin/employees.php</text><rect fill="#FFF0F3" height="31.6094" rx="2.5" ry="2.5" style="stroke:#FF5E8E;stroke-width:0.5;" width="101" x="421.5" y="88.6094"/><text fill="#000000" font-family="sans-serif" font-size="14" lengthAdjust="spacing" textLength="87" x="428.5" y="110.1426">EmployeeBLL</text><rect fill="#FFF0F3" height="31.6094" rx="2.5" ry="2.5" style="stroke:#FF5E8E;stroke-width:0.5;" width="101" x="421.5" y="504.9219"/><text fill="#000000" font-family="sans-serif" font-size="14" lengthAdjust="spacing" textLength="87" x="428.5" y="526.4551">EmployeeBLL</text><rect fill="#FFF0F3" height="31.6094" rx="2.5" ry="2.5" style="stroke:#FF5E8E;stroke-width:0.5;" width="103" x="539.5" y="88.6094"/><text fill="#000000" font-family="sans-serif" font-size="14" lengthAdjust="spacing" textLength="89" x="546.5" y="110.1426">EmployeeDAL</text><rect fill="#FFF0F3" height="31.6094" rx="2.5" ry="2.5" style="stroke:#FF5E8E;stroke-width:0.5;" width="103" x="539.5" y="504.9219"/><text fill="#000000" font-family="sans-serif" font-size="14" lengthAdjust="spacing" textLength="89" x="546.5" y="526.4551">EmployeeDAL</text><text fill="#000000" font-family="sans-serif" font-size="14" lengthAdjust="spacing" textLength="37" x="830.5" y="118.1426">CSDL</text><path d="M834,67.6094 C834,57.6094 852,57.6094 852,57.6094 C852,57.6094 870,57.6094 870,67.6094 L870,93.6094 C870,103.6094 852,103.6094 852,103.6094 C852,103.6094 834,103.6094 834,93.6094 L834,67.6094 " fill="#E2E2F0" style="stroke:#181818;stroke-width:1.5;"/><path d="M834,67.6094 C834,77.6094 852,77.6094 852,77.6094 C852,77.6094 870,77.6094 870,67.6094 " fill="none" style="stroke:#181818;stroke-width:1.5;"/><text fill="#000000" font-family="sans-serif" font-size="14" lengthAdjust="spacing" textLength="37" x="830.5" y="519.4551">CSDL</text><path d="M834,532.5313 C834,522.5313 852,522.5313 852,522.5313 C852,522.5313 870,522.5313 870,532.5313 L870,558.5313 C870,568.5313 852,568.5313 852,568.5313 C852,568.5313 834,568.5313 834,558.5313 L834,532.5313 " fill="#E2E2F0" style="stroke:#181818;stroke-width:1.5;"/><path d="M834,532.5313 C834,542.5313 852,542.5313 852,542.5313 C852,542.5313 870,542.5313 870,532.5313 " fill="none" style="stroke:#181818;stroke-width:1.5;"/><rect fill="#FFFFFF" height="342.3516" style="stroke:#FF5E8E;stroke-width:1.0;" width="10" x="330.5" y="153.5703"/><rect fill="#FFFFFF" height="312" style="stroke:#FF5E8E;stroke-width:1.0;" width="10" x="467" y="183.9219"/><polygon fill="#444444" points="318.5,149.5703,328.5,153.5703,318.5,157.5703,322.5,153.5703" style="stroke:#444444;stroke-width:1.0;"/><line style="stroke:#444444;stroke-width:1.0;" x1="54.5" x2="324.5" y1="153.5703" y2="153.5703"/><text fill="#000000" font-family="sans-serif" font-size="13" lengthAdjust="spacing" textLength="257" x="61.5" y="148.7139">Ch&#7885;n nh&#226;n vi&#234;n c&#7847;n s&#7917;a, nh&#7853;p th&#244;ng tin m&#7899;i</text><polygon fill="#444444" points="455,179.9219,465,183.9219,455,187.9219,459,183.9219" style="stroke:#444444;stroke-width:1.0;"/><line style="stroke:#444444;stroke-width:1.0;" x1="340.5" x2="461" y1="183.9219" y2="183.9219"/><text fill="#000000" font-family="sans-serif" font-size="13" lengthAdjust="spacing" textLength="90" x="347.5" y="179.0654">update(id, data)</text><line style="stroke:#444444;stroke-width:1.0;" x1="477" x2="519" y1="214.2734" y2="214.2734"/><line style="stroke:#444444;stroke-width:1.0;" x1="519" x2="519" y1="214.2734" y2="227.2734"/><line style="stroke:#444444;stroke-width:1.0;" x1="478" x2="519" y1="227.2734" y2="227.2734"/><polygon fill="#444444" points="488,223.2734,478,227.2734,488,231.2734,484,227.2734" style="stroke:#444444;stroke-width:1.0;"/><text fill="#000000" font-family="sans-serif" font-size="13" lengthAdjust="spacing" textLength="93" x="484" y="209.417">Ki&#7875;m tra d&#7919; li&#7879;u</text><path d="M10,242.2734 L71,242.2734 L71,250.625 L61,260.625 L10,260.625 L10,242.2734 " fill="#EEEEEE" style="stroke:#000000;stroke-width:1.5;"/><rect fill="none" height="246.6484" style="stroke:#000000;stroke-width:1.5;" width="873.5" x="10" y="242.2734"/><text fill="#000000" font-family="sans-serif" font-size="13" font-weight="bold" lengthAdjust="spacing" textLength="16" x="25" y="256.7686">alt</text><text fill="#000000" font-family="sans-serif" font-size="11" font-weight="bold" lengthAdjust="spacing" textLength="84" x="86" y="255.6924">[D&#7919; li&#7879;u h&#7907;p l&#7879;]</text><polygon fill="#444444" points="579,278.9766,589,282.9766,579,286.9766,583,282.9766" style="stroke:#444444;stroke-width:1.0;"/><line style="stroke:#444444;stroke-width:1.0;" x1="477" x2="585" y1="282.9766" y2="282.9766"/><text fill="#000000" font-family="sans-serif" font-size="13" lengthAdjust="spacing" textLength="90" x="484" y="278.1201">update(id, data)</text><polygon fill="#444444" points="840,309.3281,850,313.3281,840,317.3281,844,313.3281" style="stroke:#444444;stroke-width:1.0;"/><line style="stroke:#444444;stroke-width:1.0;" x1="591" x2="846" y1="313.3281" y2="313.3281"/><text fill="#000000" font-family="sans-serif" font-size="13" lengthAdjust="spacing" textLength="237" x="598" y="308.4717">UPDATE nh&#226;n vi&#234;n SET ... WHERE id=?</text><polygon fill="#444444" points="488,339.6797,478,343.6797,488,347.6797,484,343.6797" style="stroke:#444444;stroke-width:1.0;"/><line style="stroke:#444444;stroke-width:1.0;stroke-dasharray:2.0,2.0;" x1="482" x2="590" y1="343.6797" y2="343.6797"/><text fill="#000000" font-family="sans-serif" font-size="13" lengthAdjust="spacing" textLength="14" x="494" y="338.8232">ok</text><polygon fill="#444444" points="351.5,370.0313,341.5,374.0313,351.5,378.0313,347.5,374.0313" style="stroke:#444444;stroke-width:1.0;"/><line style="stroke:#444444;stroke-width:1.0;stroke-dasharray:2.0,2.0;" x1="345.5" x2="466" y1="374.0313" y2="374.0313"/><text fill="#000000" font-family="sans-serif" font-size="13" lengthAdjust="spacing" textLength="64" x="357.5" y="369.1748">th&#224;nh c&#244;ng</text><polygon fill="#444444" points="65.5,400.3828,55.5,404.3828,65.5,408.3828,61.5,404.3828" style="stroke:#444444;stroke-width:1.0;"/><line style="stroke:#444444;stroke-width:1.0;stroke-dasharray:2.0,2.0;" x1="59.5" x2="329.5" y1="404.3828" y2="404.3828"/><text fill="#000000" font-family="sans-serif" font-size="13" lengthAdjust="spacing" textLength="161" x="71.5" y="399.5264">"S&#7917;a nh&#226;n vi&#234;n th&#224;nh c&#244;ng"</text><line style="stroke:#000000;stroke-width:1.0;stroke-dasharray:2.0,2.0;" x1="10" x2="883.5" y1="413.3828" y2="413.3828"/><text fill="#000000" font-family="sans-serif" font-size="11" font-weight="bold" lengthAdjust="spacing" textLength="81" x="15" y="424.8018">[Kh&#244;ng h&#7907;p l&#7879;]</text><polygon fill="#444444" points="351.5,446.5703,341.5,450.5703,351.5,454.5703,347.5,450.5703" style="stroke:#444444;stroke-width:1.0;"/><line style="stroke:#444444;stroke-width:1.0;stroke-dasharray:2.0,2.0;" x1="345.5" x2="466" y1="450.5703" y2="450.5703"/><text fill="#000000" font-family="sans-serif" font-size="13" lengthAdjust="spacing" textLength="13" x="357.5" y="445.7139">l&#7895;i</text><polygon fill="#444444" points="65.5,476.9219,55.5,480.9219,65.5,484.9219,61.5,480.9219" style="stroke:#444444;stroke-width:1.0;"/><line style="stroke:#444444;stroke-width:1.0;stroke-dasharray:2.0,2.0;" x1="59.5" x2="329.5" y1="480.9219" y2="480.9219"/><text fill="#000000" font-family="sans-serif" font-size="13" lengthAdjust="spacing" textLength="143" x="71.5" y="476.0654">"Th&#244;ng tin kh&#244;ng h&#7907;p l&#7879;"</text><!--SRC=[XLB1YjH04BttLppYHM5t55GGGMKooI3i88ip4yzjkdVJJD9fEvrTH3nvyBG7yU31Y-X141OHF6sEuu_qdrZ9H3EpBjYdhdglNbMzRgTSBX4gtxofyUkTRzx3rVxYguRppG_iO-wRSmwThJzhdAZrDysgbTA6MrwWohWeJvK-nX7FAxcDo1UrrAd4AmQChIrF9sLUMboxqnrApjIHd2ajmz8AQNjqEhqRtui9FUJMgLGPhjt_2JnT7Tkork8lQNfhUfkzPZnr50TFXk43y0fBPePg15mKIj-KXSdBbr9M8vEPZfRiqkAU4Cvc7HnU3KVZ3HmnmHr_pYk9O3AF-cJ8bjX_Y0JtCSbySwQtdKNQ6L-rZkyHu2_E3Los_aa6EwLH-EQZQfTI9zn9cYzfjKBIgWqrazULs4FRzSP02bduXtJGFd81Ppc4RxuZf_XjpNZk40qnQAml1ZdToUQkEBgg0oZTOgtoyZ0QB-ATLURn0gFH2CyUnqzZAF7WqQQYdwLSRSHxBsZ9Jpf3sgvAGD81ImA2VxxV3ZTWaluT3ZOUNPwy5wV41xMhkXXCNLsk9Kqjc91R5cu52ViD]--></g></svg>