<?xml version="1.0" encoding="us-ascii" standalone="no"?><svg xmlns="http://www.w3.org/2000/svg" xmlns:xlink="http://www.w3.org/1999/xlink" contentStyleType="text/css" height="635px" preserveAspectRatio="none" style="width:797px;height:635px;background:#FFFFFF;" version="1.1" viewBox="0 0 797 635" width="797px" zoomAndPan="magnify"><defs/><g><text fill="#000000" font-family="sans-serif" font-size="14" font-weight="bold" lengthAdjust="spacing" textLength="283" x="258.25" y="29.5332">Bi&#7875;u &#273;&#7891; tu&#7847;n t&#7921; - T&#236;m ki&#7871;m h&#243;a &#273;&#417;n nh&#7853;p</text><rect fill="#FFFFFF" height="390.0547" style="stroke:#FF5E8E;stroke-width:1.0;" width="10" x="258.5" y="153.5703"/><rect fill="#FFFFFF" height="359.7031" style="stroke:#FF5E8E;stroke-width:1.0;" width="10" x="419" y="183.9219"/><rect fill="none" height="277" style="stroke:#000000;stroke-width:1.5;" width="780.5" x="10" y="259.625"/><line style="stroke:#FF5E8E;stroke-width:0.5;stroke-dasharray:5.0,5.0;" x1="54" x2="54" y1="121.2188" y2="553.625"/><line style="stroke:#FF5E8E;stroke-width:0.5;stroke-dasharray:5.0,5.0;" x1="263" x2="263" y1="121.2188" y2="553.625"/><line style="stroke:#FF5E8E;stroke-width:0.5;stroke-dasharray:5.0,5.0;" x1="424" x2="424" y1="121.2188" y2="553.625"/><line style="stroke:#FF5E8E;stroke-width:0.5;stroke-dasharray:5.0,5.0;" x1="557" x2="557" y1="121.2188" y2="553.625"/><line style="stroke:#FF5E8E;stroke-width:0.5;stroke-dasharray:5.0,5.0;" x1="758.5" x2="758.5" y1="121.2188" y2="553.625"/><text fill="#000000" font-family="sans-serif" font-size="14" lengthAdjust="spacing" textLength="63" x="20" y="118.1426">Nh&#226;n vi&#234;n</text><ellipse cx="54.5" cy="52.1094" fill="#E2E2F0" rx="8" ry="8" style="stroke:#181818;stroke-width:0.5;"/><path d="M54.5,60.1094 L54.5,87.1094 M41.5,68.1094 L67.5,68.1094 M54.5,87.1094 L41.5,102.1094 M54.5,87.1094 L67.5,102.1094 " fill="none" style="stroke:#181818;stroke-width:0.5;"/><text fill="#000000" font-family="sans-serif" font-size="14" lengthAdjust="spacing" textLength="63" x="20" y="567.1582">Nh&#226;n vi&#234;n</text><ellipse cx="54.5" cy="578.7344" fill="#E2E2F0" rx="8" ry="8" style="stroke:#181818;stroke-width:0.5;"/><path d="M54.5,586.7344 L54.5,613.7344 M41.5,594.7344 L67.5,594.7344 M54.5,613.7344 L41.5,628.7344 M54.5,613.7344 L67.5,628.7344 " fill="none" style="stroke:#181818;stroke-width:0.5;"/><rect fill="#FFF0F3" height="31.6094" rx="2.5" ry="2.5" style="stroke:#FF5E8E;stroke-width:0.5;" width="179" x="174" y="88.6094"/><text fill="#000000" font-family="sans-serif" font-size="14" lengthAdjust="spacing" textLength="165" x="181" y="110.1426">admin/import-invoices.php</text><rect fill="#FFF0F3" height="31.6094" rx="2.5" ry="2.5" style="stroke:#FF5E8E;stroke-width:0.5;" width="179" x="174" y="552.625"/><text fill="#000000" font-family="sans-serif" font-size="14" lengthAdjust="spacing" textLength="165" x="181" y="574.1582">admin/import-invoices.php</text><rect fill="#FFF0F3" height="31.6094" rx="2.5" ry="2.5" style="stroke:#FF5E8E;stroke-width:0.5;" width="122" x="363" y="88.6094"/><text fill="#000000" font-family="sans-serif" font-size="14" lengthAdjust="spacing" textLength="108" x="370" y="110.1426">ImportInvoiceBLL</text><rect fill="#FFF0F3" height="31.6094" rx="2.5" ry="2.5" style="stroke:#FF5E8E;stroke-width:0.5;" width="122" x="363" y="552.625"/><text fill="#000000" font-family="sans-serif" font-size="14" lengthAdjust="spacing" textLength="108" x="370" y="574.1582">ImportInvoiceBLL</text><rect fill="#FFF0F3" height="31.6094" rx="2.5" ry="2.5" style="stroke:#FF5E8E;stroke-width:0.5;" width="124" x="495" y="88.6094"/><text fill="#000000" font-family="sans-serif" font-size="14" lengthAdjust="spacing" textLength="110" x="502" y="110.1426">ImportInvoiceDAL</text><rect fill="#FFF0F3" height="31.6094" rx="2.5" ry="2.5" style="stroke:#FF5E8E;stroke-width:0.5;" width="124" x="495" y="552.625"/><text fill="#000000" font-family="sans-serif" font-size="14" lengthAdjust="spacing" textLength="110" x="502" y="574.1582">ImportInvoiceDAL</text><text fill="#000000" font-family="sans-serif" font-size="14" lengthAdjust="spacing" textLength="37" x="737.5" y="118.1426">CSDL</text><path d="M741,67.6094 C741,57.6094 759,57.6094 759,57.6094 C759,57.6094 777,57.6094 777,67.6094 L777,93.6094 C777,103.6094 759,103.6094 759,103.6094 C759,103.6094 741,103.6094 741,93.6094 L741,67.6094 " fill="#E2E2F0" style="stroke:#181818;stroke-width:1.5;"/><path d="M741,67.6094 C741,77.6094 759,77.6094 759,77.6094 C759,77.6094 777,77.6094 777,67.6094 " fill="none" style="stroke:#181818;stroke-width:1.5;"/><text fill="#000000" font-family="sans-serif" font-size="14" lengthAdjust="spacing" textLength="37" x="737.5" y="567.1582">CSDL</text><path d="M741,580.2344 C741,570.2344 759,570.2344 759,570.2344 C759,570.2344 777,570.2344 777,580.2344 L777,606.2344 C777,616.2344 759,616.2344 759,616.2344 C759,616.2344 741,616.2344 741,606.2344 L741,580.2344 " fill="#E2E2F0" style="stroke:#181818;stroke-width:1.5;"/><path d="M741,580.2344 C741,590.2344 759,590.2344 759,590.2344 C759,590.2344 777,590.2344 777,580.2344 " fill="none" style="stroke:#181818;stroke-width:1.5;"/><rect fill="#FFFFFF" height="390.0547" style="stroke:#FF5E8E;stroke-width:1.0;" width="10" x="258.5" y="153.5703"/><rect fill="#FFFFFF" height="359.7031" style="stroke:#FF5E8E;stroke-width:1.0;" width="10" x="419" y="183.9219"/><polygon fill="#444444" points="246.5,149.5703,256.5,153.5703,246.5,157.5703,250.5,153.5703" style="stroke:#444444;stroke-width:1.0;"/><line style="stroke:#444444;stroke-width:1.0;" x1="54.5" x2="252.5" y1="153.5703" y2="153.5703"/><text fill="#000000" font-family="sans-serif" font-size="13" lengthAdjust="spacing" textLength="185" x="61.5" y="148.7139">Nh&#7853;p t&#7915; kh&#243;a t&#236;m h&#243;a &#273;&#417;n nh&#7853;p</text><polygon fill="#444444" points="407,179.9219,417,183.9219,407,187.9219,411,183.9219" style="stroke:#444444;stroke-width:1.0;"/><line style="stroke:#444444;stroke-width:1.0;" x1="268.5" x2="413" y1="183.9219" y2="183.9219"/><text fill="#000000" font-family="sans-serif" font-size="13" lengthAdjust="spacing" textLength="95" x="275.5" y="179.0654">search(keyword)</text><polygon fill="#444444" points="545,210.2734,555,214.2734,545,218.2734,549,214.2734" style="stroke:#444444;stroke-width:1.0;"/><line style="stroke:#444444;stroke-width:1.0;" x1="429" x2="551" y1="214.2734" y2="214.2734"/><text fill="#000000" font-family="sans-serif" font-size="13" lengthAdjust="spacing" textLength="95" x="436" y="209.417">search(keyword)</text><polygon fill="#444444" points="747,240.625,757,244.625,747,248.625,751,244.625" style="stroke:#444444;stroke-width:1.0;"/><line style="stroke:#444444;stroke-width:1.0;" x1="557" x2="753" y1="244.625" y2="244.625"/><text fill="#000000" font-family="sans-serif" font-size="13" lengthAdjust="spacing" textLength="178" x="564" y="239.7686">SELECT ... WHERE ... LIKE ?</text><path d="M10,259.625 L71,259.625 L71,267.9766 L61,277.9766 L10,277.9766 L10,259.625 " fill="#EEEEEE" style="stroke:#000000;stroke-width:1.5;"/><rect fill="none" height="277" style="stroke:#000000;stroke-width:1.5;" width="780.5" x="10" y="259.625"/><text fill="#000000" font-family="sans-serif" font-size="13" font-weight="bold" lengthAdjust="spacing" textLength="16" x="25" y="274.1201">alt</text><text fill="#000000" font-family="sans-serif" font-size="11" font-weight="bold" lengthAdjust="spacing" textLength="67" x="86" y="273.0439">[C&#243; k&#7871;t qu&#7843;]</text><polygon fill="#444444" points="568,296.3281,558,300.3281,568,304.3281,564,300.3281" style="stroke:#444444;stroke-width:1.0;"/><line style="stroke:#444444;stroke-width:1.0;stroke-dasharray:2.0,2.0;" x1="562" x2="758" y1="300.3281" y2="300.3281"/><text fill="#000000" font-family="sans-serif" font-size="13" lengthAdjust="spacing" textLength="74" x="574" y="295.4717">d&#7919; li&#7879;u kh&#7899;p</text><polygon fill="#444444" points="440,326.6797,430,330.6797,440,334.6797,436,330.6797" style="stroke:#444444;stroke-width:1.0;"/><line style="stroke:#444444;stroke-width:1.0;stroke-dasharray:2.0,2.0;" x1="434" x2="556" y1="330.6797" y2="330.6797"/><text fill="#000000" font-family="sans-serif" font-size="13" lengthAdjust="spacing" textLength="43" x="446" y="325.8232">k&#7871;t qu&#7843;</text><polygon fill="#444444" points="279.5,357.0313,269.5,361.0313,279.5,365.0313,275.5,361.0313" style="stroke:#444444;stroke-width:1.0;"/><line style="stroke:#444444;stroke-width:1.0;stroke-dasharray:2.0,2.0;" x1="273.5" x2="418" y1="361.0313" y2="361.0313"/><text fill="#000000" font-family="sans-serif" font-size="13" lengthAdjust="spacing" textLength="43" x="285.5" y="356.1748">k&#7871;t qu&#7843;</text><polygon fill="#444444" points="65.5,387.3828,55.5,391.3828,65.5,395.3828,61.5,391.3828" style="stroke:#444444;stroke-width:1.0;"/><line style="stroke:#444444;stroke-width:1.0;stroke-dasharray:2.0,2.0;" x1="59.5" x2="257.5" y1="391.3828" y2="391.3828"/><text fill="#000000" font-family="sans-serif" font-size="13" lengthAdjust="spacing" textLength="145" x="71.5" y="386.5264">Hi&#7875;n th&#7883; k&#7871;t qu&#7843; t&#236;m ki&#7871;m</text><line style="stroke:#000000;stroke-width:1.0;stroke-dasharray:2.0,2.0;" x1="10" x2="790.5" y1="400.3828" y2="400.3828"/><text fill="#000000" font-family="sans-serif" font-size="11" font-weight="bold" lengthAdjust="spacing" textLength="75" x="15" y="411.8018">[Kh&#244;ng kh&#7899;p]</text><polygon fill="#444444" points="568,433.5703,558,437.5703,568,441.5703,564,437.5703" style="stroke:#444444;stroke-width:1.0;"/><line style="stroke:#444444;stroke-width:1.0;stroke-dasharray:2.0,2.0;" x1="562" x2="758" y1="437.5703" y2="437.5703"/><text fill="#000000" font-family="sans-serif" font-size="13" lengthAdjust="spacing" textLength="25" x="574" y="432.7139">r&#7895;ng</text><polygon fill="#444444" points="440,463.9219,430,467.9219,440,471.9219,436,467.9219" style="stroke:#444444;stroke-width:1.0;"/><line style="stroke:#444444;stroke-width:1.0;stroke-dasharray:2.0,2.0;" x1="434" x2="556" y1="467.9219" y2="467.9219"/><text fill="#000000" font-family="sans-serif" font-size="13" lengthAdjust="spacing" textLength="25" x="446" y="463.0654">r&#7895;ng</text><polygon fill="#444444" points="279.5,494.2734,269.5,498.2734,279.5,502.2734,275.5,498.2734" style="stroke:#444444;stroke-width:1.0;"/><line style="stroke:#444444;stroke-width:1.0;stroke-dasharray:2.0,2.0;" x1="273.5" x2="418" y1="498.2734" y2="498.2734"/><text fill="#000000" font-family="sans-serif" font-size="13" lengthAdjust="spacing" textLength="25" x="285.5" y="493.417">r&#7895;ng</text><polygon fill="#444444" points="65.5,524.625,55.5,528.625,65.5,532.625,61.5,528.625" style="stroke:#444444;stroke-width:1.0;"/><line style="stroke:#444444;stroke-width:1.0;stroke-dasharray:2.0,2.0;" x1="59.5" x2="257.5" y1="528.625" y2="528.625"/><text fill="#000000" font-family="sans-serif" font-size="13" lengthAdjust="spacing" textLength="109" x="71.5" y="523.7686">Hi&#7875;n th&#7883; b&#7843;ng tr&#7855;ng</text><!--SRC=[XP8zZzD048Rx_HMZq42HW0H8Y09qZXrTTDO9SHTJpzbxyShsshTU9qA8YeA2waH1GGKKI7peX8ugBYYC-1_xJnYlepZHyU7AVkUPdV6xhnOwvU08Kx-euEUvgL-3hipgemHjwcymXEFcImQ9CAiV6SJD9HBqwvq46PlLruALYP05AioWZ37AbqBEuHJJaczN-5d5PSZX6GFOKofVZlCqLt3jZdr8zCKfzuNaJguYhjRLoUIkTy-ZwYDKMeIYGAd_3s2Op5LUoMW3JMvDRhFd34DDtuF3k7alOI6QJt80MCAC5Nqt333AXBmfiY9NUYZa8XSXBqT5N5Wus8Md5fjsbEFxbd7-mRXx7UEo23MUOCbXC3vorwB3PZ1y007SXqFhRdi5do6nhkls6gxwJtyb5gWvhHQqpGurbnnL65zF-DCbsNMZPnpcj8px1yQrXRRxoFEzyJ6CHYDuikyzzkoRFptmu273LCEukOI4qg3XZ7BoWUodjk7wsCZK5v1Ic5vMjBUftnPjtPRRitVxkhRWYXvOVKRwVXjBIYATz6eRwjpeGiaufGqEukOxHQ-VsU-aJFr6pdVss4Zz2XlfBzDFQ2mDqCgiBeZZCc8Htt9swoDWlm40]--></g></svg>