<?xml version="1.0" encoding="us-ascii" standalone="no"?><svg xmlns="http://www.w3.org/2000/svg" xmlns:xlink="http://www.w3.org/1999/xlink" contentStyleType="text/css" height="588px" preserveAspectRatio="none" style="width:877px;height:588px;background:#FFFFFF;" version="1.1" viewBox="0 0 877 588" width="877px" zoomAndPan="magnify"><defs/><g><text fill="#000000" font-family="sans-serif" font-size="14" font-weight="bold" lengthAdjust="spacing" textLength="216" x="331.75" y="29.5332">Bi&#7875;u &#273;&#7891; tu&#7847;n t&#7921; - S&#7917;a t&#224;i kho&#7843;n</text><rect fill="#FFFFFF" height="342.3516" style="stroke:#FF5E8E;stroke-width:1.0;" width="10" x="329.5" y="153.5703"/><rect fill="#FFFFFF" height="312" style="stroke:#FF5E8E;stroke-width:1.0;" width="10" x="455" y="183.9219"/><rect fill="none" height="246.6484" style="stroke:#000000;stroke-width:1.5;" width="860.5" x="10" y="242.2734"/><line style="stroke:#FF5E8E;stroke-width:0.5;stroke-dasharray:5.0,5.0;" x1="54" x2="54" y1="121.2188" y2="505.9219"/><line style="stroke:#FF5E8E;stroke-width:0.5;stroke-dasharray:5.0,5.0;" x1="334" x2="334" y1="121.2188" y2="505.9219"/><line style="stroke:#FF5E8E;stroke-width:0.5;stroke-dasharray:5.0,5.0;" x1="460" x2="460" y1="121.2188" y2="505.9219"/><line style="stroke:#FF5E8E;stroke-width:0.5;stroke-dasharray:5.0,5.0;" x1="579" x2="579" y1="121.2188" y2="505.9219"/><line style="stroke:#FF5E8E;stroke-width:0.5;stroke-dasharray:5.0,5.0;" x1="838.5" x2="838.5" y1="121.2188" y2="505.9219"/><text fill="#000000" font-family="sans-serif" font-size="14" lengthAdjust="spacing" textLength="63" x="20" y="118.1426">Nh&#226;n vi&#234;n</text><ellipse cx="54.5" cy="52.1094" fill="#E2E2F0" rx="8" ry="8" style="stroke:#181818;stroke-width:0.5;"/><path d="M54.5,60.1094 L54.5,87.1094 M41.5,68.1094 L67.5,68.1094 M54.5,87.1094 L41.5,102.1094 M54.5,87.1094 L67.5,102.1094 " fill="none" style="stroke:#181818;stroke-width:0.5;"/><text fill="#000000" font-family="sans-serif" font-size="14" lengthAdjust="spacing" textLength="63" x="20" y="519.4551">Nh&#226;n vi&#234;n</text><ellipse cx="54.5" cy="531.0313" fill="#E2E2F0" rx="8" ry="8" style="stroke:#181818;stroke-width:0.5;"/><path d="M54.5,539.0313 L54.5,566.0313 M41.5,547.0313 L67.5,547.0313 M54.5,566.0313 L41.5,581.0313 M54.5,566.0313 L67.5,581.0313 " fill="none" style="stroke:#181818;stroke-width:0.5;"/><rect fill="#FFF0F3" height="31.6094" rx="2.5" ry="2.5" style="stroke:#FF5E8E;stroke-width:0.5;" width="141" x="264" y="88.6094"/><text fill="#000000" font-family="sans-serif" font-size="14" lengthAdjust="spacing" textLength="127" x="271" y="110.1426">admin/accounts.php</text><rect fill="#FFF0F3" height="31.6094" rx="2.5" ry="2.5" style="stroke:#FF5E8E;stroke-width:0.5;" width="141" x="264" y="504.9219"/><text fill="#000000" font-family="sans-serif" font-size="14" lengthAdjust="spacing" textLength="127" x="271" y="526.4551">admin/accounts.php</text><rect fill="#FFF0F3" height="31.6094" rx="2.5" ry="2.5" style="stroke:#FF5E8E;stroke-width:0.5;" width="90" x="415" y="88.6094"/><text fill="#000000" font-family="sans-serif" font-size="14" lengthAdjust="spacing" textLength="76" x="422" y="110.1426">AccountBLL</text><rect fill="#FFF0F3" height="31.6094" rx="2.5" ry="2.5" style="stroke:#FF5E8E;stroke-width:0.5;" width="90" x="415" y="504.9219"/><text fill="#000000" font-family="sans-serif" font-size="14" lengthAdjust="spacing" textLength="76" x="422" y="526.4551">AccountBLL</text><rect fill="#FFF0F3" height="31.6094" rx="2.5" ry="2.5" style="stroke:#FF5E8E;stroke-width:0.5;" width="92" x="533" y="88.6094"/><text fill="#000000" font-family="sans-serif" font-size="14" lengthAdjust="spacing" textLength="78" x="540" y="110.1426">AccountDAL</text><rect fill="#FFF0F3" height="31.6094" rx="2.5" ry="2.5" style="stroke:#FF5E8E;stroke-width:0.5;" width="92" x="533" y="504.9219"/><text fill="#000000" font-family="sans-serif" font-size="14" lengthAdjust="spacing" textLength="78" x="540" y="526.4551">AccountDAL</text><text fill="#000000" font-family="sans-serif" font-size="14" lengthAdjust="spacing" textLength="37" x="817.5" y="118.1426">CSDL</text><path d="M821,67.6094 C821,57.6094 839,57.6094 839,57.6094 C839,57.6094 857,57.6094 857,67.6094 L857,93.6094 C857,103.6094 839,103.6094 839,103.6094 C839,103.6094 821,103.6094 821,93.6094 L821,67.6094 " fill="#E2E2F0" style="stroke:#181818;stroke-width:1.5;"/><path d="M821,67.6094 C821,77.6094 839,77.6094 839,77.6094 C839,77.6094 857,77.6094 857,67.6094 " fill="none" style="stroke:#181818;stroke-width:1.5;"/><text fill="#000000" font-family="sans-serif" font-size="14" lengthAdjust="spacing" textLength="37" x="817.5" y="519.4551">CSDL</text><path d="M821,532.5313 C821,522.5313 839,522.5313 839,522.5313 C839,522.5313 857,522.5313 857,532.5313 L857,558.5313 C857,568.5313 839,568.5313 839,568.5313 C839,568.5313 821,568.5313 821,558.5313 L821,532.5313 " fill="#E2E2F0" style="stroke:#181818;stroke-width:1.5;"/><path d="M821,532.5313 C821,542.5313 839,542.5313 839,542.5313 C839,542.5313 857,542.5313 857,532.5313 " fill="none" style="stroke:#181818;stroke-width:1.5;"/><rect fill="#FFFFFF" height="342.3516" style="stroke:#FF5E8E;stroke-width:1.0;" width="10" x="329.5" y="153.5703"/><rect fill="#FFFFFF" height="312" style="stroke:#FF5E8E;stroke-width:1.0;" width="10" x="455" y="183.9219"/><polygon fill="#444444" points="317.5,149.5703,327.5,153.5703,317.5,157.5703,321.5,153.5703" style="stroke:#444444;stroke-width:1.0;"/><line style="stroke:#444444;stroke-width:1.0;" x1="54.5" x2="323.5" y1="153.5703" y2="153.5703"/><text fill="#000000" font-family="sans-serif" font-size="13" lengthAdjust="spacing" textLength="256" x="61.5" y="148.7139">Ch&#7885;n t&#224;i kho&#7843;n c&#7847;n s&#7917;a, nh&#7853;p th&#244;ng tin m&#7899;i</text><polygon fill="#444444" points="443,179.9219,453,183.9219,443,187.9219,447,183.9219" style="stroke:#444444;stroke-width:1.0;"/><line style="stroke:#444444;stroke-width:1.0;" x1="339.5" x2="449" y1="183.9219" y2="183.9219"/><text fill="#000000" font-family="sans-serif" font-size="13" lengthAdjust="spacing" textLength="90" x="346.5" y="179.0654">update(id, data)</text><line style="stroke:#444444;stroke-width:1.0;" x1="465" x2="507" y1="214.2734" y2="214.2734"/><line style="stroke:#444444;stroke-width:1.0;" x1="507" x2="507" y1="214.2734" y2="227.2734"/><line style="stroke:#444444;stroke-width:1.0;" x1="466" x2="507" y1="227.2734" y2="227.2734"/><polygon fill="#444444" points="476,223.2734,466,227.2734,476,231.2734,472,227.2734" style="stroke:#444444;stroke-width:1.0;"/><text fill="#000000" font-family="sans-serif" font-size="13" lengthAdjust="spacing" textLength="93" x="472" y="209.417">Ki&#7875;m tra d&#7919; li&#7879;u</text><path d="M10,242.2734 L71,242.2734 L71,250.625 L61,260.625 L10,260.625 L10,242.2734 " fill="#EEEEEE" style="stroke:#000000;stroke-width:1.5;"/><rect fill="none" height="246.6484" style="stroke:#000000;stroke-width:1.5;" width="860.5" x="10" y="242.2734"/><text fill="#000000" font-family="sans-serif" font-size="13" font-weight="bold" lengthAdjust="spacing" textLength="16" x="25" y="256.7686">alt</text><text fill="#000000" font-family="sans-serif" font-size="11" font-weight="bold" lengthAdjust="spacing" textLength="84" x="86" y="255.6924">[D&#7919; li&#7879;u h&#7907;p l&#7879;]</text><polygon fill="#444444" points="567,278.9766,577,282.9766,567,286.9766,571,282.9766" style="stroke:#444444;stroke-width:1.0;"/><line style="stroke:#444444;stroke-width:1.0;" x1="465" x2="573" y1="282.9766" y2="282.9766"/><text fill="#000000" font-family="sans-serif" font-size="13" lengthAdjust="spacing" textLength="90" x="472" y="278.1201">update(id, data)</text><polygon fill="#444444" points="827,309.3281,837,313.3281,827,317.3281,831,313.3281" style="stroke:#444444;stroke-width:1.0;"/><line style="stroke:#444444;stroke-width:1.0;" x1="579" x2="833" y1="313.3281" y2="313.3281"/><text fill="#000000" font-family="sans-serif" font-size="13" lengthAdjust="spacing" textLength="236" x="586" y="308.4717">UPDATE t&#224;i kho&#7843;n SET ... WHERE id=?</text><polygon fill="#444444" points="476,339.6797,466,343.6797,476,347.6797,472,343.6797" style="stroke:#444444;stroke-width:1.0;"/><line style="stroke:#444444;stroke-width:1.0;stroke-dasharray:2.0,2.0;" x1="470" x2="578" y1="343.6797" y2="343.6797"/><text fill="#000000" font-family="sans-serif" font-size="13" lengthAdjust="spacing" textLength="14" x="482" y="338.8232">ok</text><polygon fill="#444444" points="350.5,370.0313,340.5,374.0313,350.5,378.0313,346.5,374.0313" style="stroke:#444444;stroke-width:1.0;"/><line style="stroke:#444444;stroke-width:1.0;stroke-dasharray:2.0,2.0;" x1="344.5" x2="454" y1="374.0313" y2="374.0313"/><text fill="#000000" font-family="sans-serif" font-size="13" lengthAdjust="spacing" textLength="64" x="356.5" y="369.1748">th&#224;nh c&#244;ng</text><polygon fill="#444444" points="65.5,400.3828,55.5,404.3828,65.5,408.3828,61.5,404.3828" style="stroke:#444444;stroke-width:1.0;"/><line style="stroke:#444444;stroke-width:1.0;stroke-dasharray:2.0,2.0;" x1="59.5" x2="328.5" y1="404.3828" y2="404.3828"/><text fill="#000000" font-family="sans-serif" font-size="13" lengthAdjust="spacing" textLength="160" x="71.5" y="399.5264">"S&#7917;a t&#224;i kho&#7843;n th&#224;nh c&#244;ng"</text><line style="stroke:#000000;stroke-width:1.0;stroke-dasharray:2.0,2.0;" x1="10" x2="870.5" y1="413.3828" y2="413.3828"/><text fill="#000000" font-family="sans-serif" font-size="11" font-weight="bold" lengthAdjust="spacing" textLength="81" x="15" y="424.8018">[Kh&#244;ng h&#7907;p l&#7879;]</text><polygon fill="#444444" points="350.5,446.5703,340.5,450.5703,350.5,454.5703,346.5,450.5703" style="stroke:#444444;stroke-width:1.0;"/><line style="stroke:#444444;stroke-width:1.0;stroke-dasharray:2.0,2.0;" x1="344.5" x2="454" y1="450.5703" y2="450.5703"/><text fill="#000000" font-family="sans-serif" font-size="13" lengthAdjust="spacing" textLength="13" x="356.5" y="445.7139">l&#7895;i</text><polygon fill="#444444" points="65.5,476.9219,55.5,480.9219,65.5,484.9219,61.5,480.9219" style="stroke:#444444;stroke-width:1.0;"/><line style="stroke:#444444;stroke-width:1.0;stroke-dasharray:2.0,2.0;" x1="59.5" x2="328.5" y1="480.9219" y2="480.9219"/><text fill="#000000" font-family="sans-serif" font-size="13" lengthAdjust="spacing" textLength="143" x="71.5" y="476.0654">"Th&#244;ng tin kh&#244;ng h&#7907;p l&#7879;"</text><!--SRC=[XL9DYzH04BtthtZ4YyBkAAWWmYgJIGPX1rcScNXkqxsR9fbEx7Hs3-B9WoSFui63byKzB0YB29ucn_6Fz3-nyg4pMHViKrUzLw-gNhTLDfFmbQlVLVZrqTMVO2ktljImhlw1VSnTVSLXD-SAQPAxzOLcPQfqmGrVeKouoC-KFi4npqgvYyZNbTInn1i6Z8t9poPvbXlSUj0UIixKiPmfBVtS26bwT3fz63uA2JtYngfO5LpR_nDud9wOlDBYBsbwRtgVlMKyjXHxpvFDLurJjVccFV0IIrPig-5niLBwBezZah3bg4YAbXKDMUCEzsUp5lLlH8DnXmPCSCjVyLB2cyo3Fkcp9VQV8C9ZJ19NVz03Nn6tlfUDuNlGYLjV5R39vYVPQvN6ojLVLBEIEkLMqdXH8-QJM5LGDtbRYJqqRUziIJxp_v0EcpTUmHeEuUhlo2X-Np6UMGJR63JNHO6CxcHoMnpSr06KRh16UNaKZ1VXS9TvkC1eDCBBP-6B44eSFErA-c7oj5FltQ0jptM2kDcLWAW5bWHu_tw_0TbZaluT3ZkNhi_UgrFYinhABhQsfjThILCB9kIEYJj1n7u3]--></g></svg>