<?xml version="1.0" encoding="us-ascii" standalone="no"?><svg xmlns="http://www.w3.org/2000/svg" xmlns:xlink="http://www.w3.org/1999/xlink" contentStyleType="text/css" height="405px" preserveAspectRatio="none" style="width:683px;height:405px;background:#FFFFFF;" version="1.1" viewBox="0 0 683 405" width="683px" zoomAndPan="magnify"><defs/><g><text fill="#000000" font-family="sans-serif" font-size="14" font-weight="bold" lengthAdjust="spacing" textLength="325" x="174.5" y="29.5332">Bi&#7875;u &#273;&#7891; tu&#7847;n t&#7921; - T&#236;m ki&#7871;m s&#7843;n ph&#7849;m trong kho</text><rect fill="#FFFFFF" height="151.7578" style="stroke:#FF5E8E;stroke-width:1.0;" width="10" x="198.5" y="153.5703"/><line style="stroke:#FF5E8E;stroke-width:0.5;stroke-dasharray:5.0,5.0;" x1="39" x2="39" y1="121.2188" y2="323.3281"/><line style="stroke:#FF5E8E;stroke-width:0.5;stroke-dasharray:5.0,5.0;" x1="203.5" x2="203.5" y1="121.2188" y2="323.3281"/><line style="stroke:#FF5E8E;stroke-width:0.5;stroke-dasharray:5.0,5.0;" x1="339.5" x2="339.5" y1="121.2188" y2="323.3281"/><line style="stroke:#FF5E8E;stroke-width:0.5;stroke-dasharray:5.0,5.0;" x1="648" x2="648" y1="121.2188" y2="323.3281"/><text fill="#000000" font-family="sans-serif" font-size="14" lengthAdjust="spacing" textLength="63" x="5" y="118.1426">Nh&#226;n vi&#234;n</text><ellipse cx="39.5" cy="52.1094" fill="#E2E2F0" rx="8" ry="8" style="stroke:#181818;stroke-width:0.5;"/><path d="M39.5,60.1094 L39.5,87.1094 M26.5,68.1094 L52.5,68.1094 M39.5,87.1094 L26.5,102.1094 M39.5,87.1094 L52.5,102.1094 " fill="none" style="stroke:#181818;stroke-width:0.5;"/><text fill="#000000" font-family="sans-serif" font-size="14" lengthAdjust="spacing" textLength="63" x="5" y="336.8613">Nh&#226;n vi&#234;n</text><ellipse cx="39.5" cy="348.4375" fill="#E2E2F0" rx="8" ry="8" style="stroke:#181818;stroke-width:0.5;"/><path d="M39.5,356.4375 L39.5,383.4375 M26.5,364.4375 L52.5,364.4375 M39.5,383.4375 L26.5,398.4375 M39.5,383.4375 L52.5,398.4375 " fill="none" style="stroke:#181818;stroke-width:0.5;"/><rect fill="#FFF0F3" height="31.6094" rx="2.5" ry="2.5" style="stroke:#FF5E8E;stroke-width:0.5;" width="116" x="145.5" y="88.6094"/><text fill="#000000" font-family="sans-serif" font-size="14" lengthAdjust="spacing" textLength="102" x="152.5" y="110.1426">WarehouseView</text><rect fill="#FFF0F3" height="31.6094" rx="2.5" ry="2.5" style="stroke:#FF5E8E;stroke-width:0.5;" width="116" x="145.5" y="322.3281"/><text fill="#000000" font-family="sans-serif" font-size="14" lengthAdjust="spacing" textLength="102" x="152.5" y="343.8613">WarehouseView</text><rect fill="#FFF0F3" height="31.6094" rx="2.5" ry="2.5" style="stroke:#FF5E8E;stroke-width:0.5;" width="114" x="282.5" y="88.6094"/><text fill="#000000" font-family="sans-serif" font-size="14" lengthAdjust="spacing" textLength="100" x="289.5" y="110.1426">WarehouseDAL</text><rect fill="#FFF0F3" height="31.6094" rx="2.5" ry="2.5" style="stroke:#FF5E8E;stroke-width:0.5;" width="114" x="282.5" y="322.3281"/><text fill="#000000" font-family="sans-serif" font-size="14" lengthAdjust="spacing" textLength="100" x="289.5" y="343.8613">WarehouseDAL</text><text fill="#000000" font-family="sans-serif" font-size="14" lengthAdjust="spacing" textLength="37" x="627" y="118.1426">CSDL</text><path d="M630.5,67.6094 C630.5,57.6094 648.5,57.6094 648.5,57.6094 C648.5,57.6094 666.5,57.6094 666.5,67.6094 L666.5,93.6094 C666.5,103.6094 648.5,103.6094 648.5,103.6094 C648.5,103.6094 630.5,103.6094 630.5,93.6094 L630.5,67.6094 " fill="#E2E2F0" style="stroke:#181818;stroke-width:1.5;"/><path d="M630.5,67.6094 C630.5,77.6094 648.5,77.6094 648.5,77.6094 C648.5,77.6094 666.5,77.6094 666.5,67.6094 " fill="none" style="stroke:#181818;stroke-width:1.5;"/><text fill="#000000" font-family="sans-serif" font-size="14" lengthAdjust="spacing" textLength="37" x="627" y="336.8613">CSDL</text><path d="M630.5,349.9375 C630.5,339.9375 648.5,339.9375 648.5,339.9375 C648.5,339.9375 666.5,339.9375 666.5,349.9375 L666.5,375.9375 C666.5,385.9375 648.5,385.9375 648.5,385.9375 C648.5,385.9375 630.5,385.9375 630.5,375.9375 L630.5,349.9375 " fill="#E2E2F0" style="stroke:#181818;stroke-width:1.5;"/><path d="M630.5,349.9375 C630.5,359.9375 648.5,359.9375 648.5,359.9375 C648.5,359.9375 666.5,359.9375 666.5,349.9375 " fill="none" style="stroke:#181818;stroke-width:1.5;"/><rect fill="#FFFFFF" height="151.7578" style="stroke:#FF5E8E;stroke-width:1.0;" width="10" x="198.5" y="153.5703"/><polygon fill="#444444" points="186.5,149.5703,196.5,153.5703,186.5,157.5703,190.5,153.5703" style="stroke:#444444;stroke-width:1.0;"/><line style="stroke:#444444;stroke-width:1.0;" x1="39.5" x2="192.5" y1="153.5703" y2="153.5703"/><text fill="#000000" font-family="sans-serif" font-size="13" lengthAdjust="spacing" textLength="140" x="46.5" y="148.7139">Nh&#7853;p t&#7915; kh&#243;a s&#7843;n ph&#7849;m</text><polygon fill="#444444" points="327.5,179.9219,337.5,183.9219,327.5,187.9219,331.5,183.9219" style="stroke:#444444;stroke-width:1.0;"/><line style="stroke:#444444;stroke-width:1.0;" x1="208.5" x2="333.5" y1="183.9219" y2="183.9219"/><text fill="#000000" font-family="sans-serif" font-size="13" lengthAdjust="spacing" textLength="95" x="215.5" y="179.0654">search(keyword)</text><polygon fill="#444444" points="636.5,210.2734,646.5,214.2734,636.5,218.2734,640.5,214.2734" style="stroke:#444444;stroke-width:1.0;"/><line style="stroke:#444444;stroke-width:1.0;" x1="339.5" x2="642.5" y1="214.2734" y2="214.2734"/><text fill="#000000" font-family="sans-serif" font-size="13" lengthAdjust="spacing" textLength="285" x="346.5" y="209.417">SELECT KhoHang WHERE TenSanPham LIKE ?</text><polygon fill="#444444" points="350.5,240.625,340.5,244.625,350.5,248.625,346.5,244.625" style="stroke:#444444;stroke-width:1.0;"/><line style="stroke:#444444;stroke-width:1.0;stroke-dasharray:2.0,2.0;" x1="344.5" x2="647.5" y1="244.625" y2="244.625"/><text fill="#000000" font-family="sans-serif" font-size="13" lengthAdjust="spacing" textLength="43" x="356.5" y="239.7686">k&#7871;t qu&#7843;</text><polygon fill="#444444" points="219.5,270.9766,209.5,274.9766,219.5,278.9766,215.5,274.9766" style="stroke:#444444;stroke-width:1.0;"/><line style="stroke:#444444;stroke-width:1.0;stroke-dasharray:2.0,2.0;" x1="213.5" x2="338.5" y1="274.9766" y2="274.9766"/><text fill="#000000" font-family="sans-serif" font-size="13" lengthAdjust="spacing" textLength="107" x="225.5" y="270.1201">danh s&#225;ch t&#7891;n kho</text><polygon fill="#444444" points="50.5,301.3281,40.5,305.3281,50.5,309.3281,46.5,305.3281" style="stroke:#444444;stroke-width:1.0;"/><line style="stroke:#444444;stroke-width:1.0;stroke-dasharray:2.0,2.0;" x1="44.5" x2="202.5" y1="305.3281" y2="305.3281"/><text fill="#000000" font-family="sans-serif" font-size="13" lengthAdjust="spacing" textLength="91" x="56.5" y="300.4717">Hi&#7875;n th&#7883; k&#7871;t qu&#7843;</text><!--SRC=[XPAzJiCm4CTtFyMfB31KGW8an02YJQeY8eHe6-OZER2LrWwEGuKG4oCJuWc00V4r8BPsO0WlaZVX4bLy30Xllj__pkV_dLDkID1IvVGYXu-hSdeDBYydznfSENs59lIBvn4agfoyZo0h9tSQKbbE7aRWhD57a4WZiaJf52soG69inehZXpZCw2UXuvnqH70c03QjDUEs6HeBSylruM2W3YbGcbh6ncHdjDDPyLTzfhjedOfKYjhzBy0eER8cr_6NgBFOMHBd0YF7zyQEB6urdAZYKJS0CnY8z3iR6ljeIPeyer3Hk1Q4VmYypQ3cdeZHuG5c18rspvi5Ms80pNK8OGrssBENjFBqYIqhtl2NbrLVwWGTyKDXbU9nIaPe8pcVqEcOFxmWl1gqcFJym6_tOLkQBhBL-rr_puS-wHxgNSbU1rlRFcm8rZPdjH8UduDZ7knTLMVML8nQGbRSHB9gx5hNmmnhF63ShPQ2zq2MqyjV5MBwxlSJ]--></g></svg>