<?xml version="1.0" encoding="us-ascii" standalone="no"?><svg xmlns="http://www.w3.org/2000/svg" xmlns:xlink="http://www.w3.org/1999/xlink" contentStyleType="text/css" height="368px" preserveAspectRatio="none" style="width:580px;height:368px;background:#FFFFFF;" version="1.1" viewBox="0 0 580 368" width="580px" zoomAndPan="magnify"><defs/><g><text fill="#000000" font-family="sans-serif" font-size="14" font-weight="bold" lengthAdjust="spacing" textLength="244" x="161.25" y="24.5332">Use case chi ti&#7871;t - Th&#7889;ng k&#234; (UC08)</text><!--cluster Th?ng k?--><g id="cluster_Th&#7889;ng k&#234;"><rect fill="none" height="317" rx="2.5" ry="2.5" style="stroke:#181818;stroke-width:1.0;" width="467" x="107.5" y="45.6094"/><text fill="#000000" font-family="sans-serif" font-size="14" font-weight="bold" lengthAdjust="spacing" textLength="65" x="308.5" y="62.1426">Th&#7889;ng k&#234;</text></g><g id="elem_U0"><ellipse cx="220.8923" cy="101.4878" fill="#FFF0F3" rx="87.3923" ry="19.8785" style="stroke:#FF5E8E;stroke-width:0.5;"/><text fill="#000000" font-family="sans-serif" font-size="14" lengthAdjust="spacing" textLength="132" x="154.8923" y="105.2164">Th&#7889;ng k&#234; theo th&#225;ng</text></g><g id="elem_U1"><ellipse cx="220.9202" cy="175.3934" fill="#FFF0F3" rx="81.9202" ry="18.784" style="stroke:#FF5E8E;stroke-width:0.5;"/><text fill="#000000" font-family="sans-serif" font-size="14" lengthAdjust="spacing" textLength="119" x="161.2512" y="179.1722">Th&#7889;ng k&#234; theo qu&#253;</text></g><g id="elem_U2"><ellipse cx="221.0873" cy="248.7268" fill="#FFF0F3" rx="83.5873" ry="19.1175" style="stroke:#FF5E8E;stroke-width:0.5;"/><text fill="#000000" font-family="sans-serif" font-size="14" lengthAdjust="spacing" textLength="123" x="159.5873" y="252.4554">Th&#7889;ng k&#234; theo n&#259;m</text></g><g id="elem_U3"><ellipse cx="220.8945" cy="324.4883" fill="#FFF0F3" rx="97.3945" ry="21.8789" style="stroke:#FF5E8E;stroke-width:0.5;"/><text fill="#000000" font-family="sans-serif" font-size="14" lengthAdjust="spacing" textLength="155" x="143.3945" y="328.2168">Th&#7889;ng k&#234; theo m&#7863;t h&#224;ng</text></g><g id="elem_LOGIN"><ellipse cx="497.1463" cy="212.7036" fill="#FFF0F3" rx="61.6463" ry="15.5942" style="stroke:#FF5E8E;stroke-width:0.5;"/><text fill="#000000" font-family="sans-serif" font-size="14" lengthAdjust="spacing" textLength="70" x="459.1463" y="217.2202">&#272;&#259;ng nh&#7853;p</text></g><!--entity ACT0--><g id="elem_ACT0"><ellipse cx="33" cy="197.6094" fill="#F1F1F1" rx="16" ry="16" style="stroke:#181818;stroke-width:0.5;"/><path d="M33,217.6094 C37,217.6094 40,217.6094 44,213.6094 C52,213.6094 60,221.6094 60,229.6094 L60,233.6094 C60,237.6094 56,241.6094 52,241.6094 L14,241.6094 C10,241.6094 6,237.6094 6,233.6094 L6,229.6094 C6,221.6094 14,213.6094 22,213.6094 C26,217.6094 29,217.6094 33,217.6094 " fill="#F1F1F1" style="stroke:#181818;stroke-width:0.5;"/><text fill="#000000" font-family="sans-serif" font-size="14" lengthAdjust="spacing" textLength="39" x="13.5" y="256.6426">Admin</text></g><!--link ACT0 to U0--><g id="link_ACT0_U0"><path d="M58.36,180.7494 C69.29,165.6994 83.38,149.5794 99.5,138.6094 C115.51,127.7194 134.86,119.9294 153.31,114.4094 " fill="none" id="ACT0-U0" style="stroke:#444444;stroke-width:1.0;"/></g><!--link ACT0 to U1--><g id="link_ACT0_U1"><path d="M60.68,213.3394 C70.09,210.8294 80.75,208.0294 90.5,205.6094 C113.68,199.8494 139.29,193.8394 161.56,188.7294 " fill="none" id="ACT0-U1" style="stroke:#444444;stroke-width:1.0;"/></g><!--link ACT0 to U2--><g id="link_ACT0_U2"><path d="M60.65,224.6194 C84.15,228.1594 119.46,233.4694 150.87,238.1994 " fill="none" id="ACT0-U2" style="stroke:#444444;stroke-width:1.0;"/></g><!--link ACT0 to U3--><g id="link_ACT0_U3"><path d="M60.6,252.0794 C71.66,263.5994 85.24,275.9194 99.5,284.6094 C116.07,294.6994 135.48,302.5794 153.83,308.5794 " fill="none" id="ACT0-U3" style="stroke:#444444;stroke-width:1.0;"/></g><!--link U0 to LOGIN--><g id="link_U0_LOGIN"><path d="M272.06,117.8594 C309.3,130.3694 361.13,148.6694 405.5,167.6094 C427.61,177.0494 446.6507,186.4937 464.5307,195.8237 " fill="none" id="U0-to-LOGIN" style="stroke:#444444;stroke-width:1.0;stroke-dasharray:7.0,7.0;"/><polygon fill="#444444" points="469.85,198.5994,463.7214,190.8896,465.4172,196.2863,460.0205,197.9821,469.85,198.5994" style="stroke:#444444;stroke-width:1.0;"/><text fill="#000000" font-family="sans-serif" font-size="13" lengthAdjust="spacing" textLength="55" x="349.5" y="143.1045">&#171;include&#187;</text></g><!--link U1 to LOGIN--><g id="link_U1_LOGIN"><path d="M292.21,185.0894 C338.98,191.4094 393.5639,198.7769 436.4639,204.5669 " fill="none" id="U1-to-LOGIN" style="stroke:#444444;stroke-width:1.0;stroke-dasharray:7.0,7.0;"/><polygon fill="#444444" points="442.41,205.3694,434.0259,200.2015,437.4549,204.7006,432.9559,208.1297,442.41,205.3694" style="stroke:#444444;stroke-width:1.0;"/><text fill="#000000" font-family="sans-serif" font-size="13" lengthAdjust="spacing" textLength="55" x="349.5" y="190.1045">&#171;include&#187;</text></g><!--link U2 to LOGIN--><g id="link_U2_LOGIN"><path d="M304.69,249.4894 C336.41,248.6594 372.82,246.2794 405.5,240.6094 C424.46,237.3194 439.3103,233.1234 456.0203,227.4334 " fill="none" id="U2-to-LOGIN" style="stroke:#444444;stroke-width:1.0;stroke-dasharray:7.0,7.0;"/><polygon fill="#444444" points="461.7,225.4994,451.891,224.6139,456.9669,227.1111,454.4697,232.1869,461.7,225.4994" style="stroke:#444444;stroke-width:1.0;"/><text fill="#000000" font-family="sans-serif" font-size="13" lengthAdjust="spacing" textLength="55" x="349.5" y="237.1045">&#171;include&#187;</text></g><!--link U3 to LOGIN--><g id="link_U3_LOGIN"><path d="M294.92,310.0494 C329.37,301.7494 370.52,289.7394 405.5,273.6094 C432.34,261.2294 455.3471,244.9771 472.9171,231.2871 " fill="none" id="U3-to-LOGIN" style="stroke:#444444;stroke-width:1.0;stroke-dasharray:7.0,7.0;"/><polygon fill="#444444" points="477.65,227.5994,468.0921,229.9757,473.7059,230.6725,473.0091,236.2863,477.65,227.5994" style="stroke:#444444;stroke-width:1.0;"/><text fill="#000000" font-family="sans-serif" font-size="13" lengthAdjust="spacing" textLength="55" x="349.5" y="270.1045">&#171;include&#187;</text></g><!--SRC=[VP11IiD058RtSuf7tEWY9MqKYfH0BOq8eWkR0mp9D3CqcQap4ug8grv0Rw1RmRMG8YwIY-GcJXBRPjFEOdYyxt___6yICjUW1KWMKmqHaoJKJ72a5emliSGfA8eZiM8yXZbE5EcG9GuNE2OF-YaXK0zY7YTT0Gwra2t6Aw94seMP8Y5M19uHm9LnYgN8U3GHYP1mulk-uxir4J8YSjUzc0wdfZkMKgp-c-VDGIz8CsqU2enbunjI1ffL-Qy66sQqshoP5HR59vm64sTuXffmO8sZb74Bi8BnPEQWtHfWTMQi9kKsSPU0faIOg_ZWSUCIE4ULZrdnq-hwHtMyNAUjRd1KbrRvjmPQl6-VTxloyhLS6pMdLVwrRFZj_VNDdVciUbcmxJhkhkploy6-T57WGA_djQDm2QCHus6IHSJpKD0_Z0Q7aNi8_G40]--></g></svg>