<?xml version="1.0" encoding="us-ascii" standalone="no"?><svg xmlns="http://www.w3.org/2000/svg" xmlns:xlink="http://www.w3.org/1999/xlink" contentStyleType="text/css" height="469px" preserveAspectRatio="none" style="width:536px;height:469px;background:#FFFFFF;" version="1.1" viewBox="0 0 536 469" width="536px" zoomAndPan="magnify"><defs/><g><text fill="#000000" font-family="sans-serif" font-size="14" font-weight="bold" lengthAdjust="spacing" textLength="300" x="111" y="24.5332">Use case chi ti&#7871;t - Qu&#7843;n l&#253; kho h&#224;ng (UC07)</text><!--cluster Qu?n l? kho h?ng--><g id="cluster_Qu&#7843;n l&#253; kho h&#224;ng"><rect fill="none" height="418" rx="2.5" ry="2.5" style="stroke:#181818;stroke-width:1.0;" width="414" x="116" y="45.6094"/><text fill="#000000" font-family="sans-serif" font-size="14" font-weight="bold" lengthAdjust="spacing" textLength="121" x="262.5" y="62.1426">Qu&#7843;n l&#253; kho h&#224;ng</text></g><g id="elem_U0"><ellipse cx="202.8567" cy="98.6807" fill="#FFF0F3" rx="70.8567" ry="16.5713" style="stroke:#FF5E8E;stroke-width:0.5;"/><text fill="#000000" font-family="sans-serif" font-size="14" lengthAdjust="spacing" textLength="90" x="154.8567" y="103.1973">Th&#234;m v&#224;o kho</text></g><g id="elem_U1"><ellipse cx="202.9254" cy="165.7945" fill="#FFF0F3" rx="66.4254" ry="15.6851" style="stroke:#FF5E8E;stroke-width:0.5;"/><text fill="#000000" font-family="sans-serif" font-size="14" lengthAdjust="spacing" textLength="77" x="161.4254" y="170.3111">S&#7917;a t&#7891;n kho</text></g><g id="elem_U2"><ellipse cx="202.7517" cy="232.5597" fill="#FFF0F3" rx="67.7517" ry="15.9503" style="stroke:#FF5E8E;stroke-width:0.5;"/><text fill="#000000" font-family="sans-serif" font-size="14" lengthAdjust="spacing" textLength="81" x="159.2517" y="237.0763">X&#243;a kh&#7887;i kho</text></g><g id="elem_U3"><ellipse cx="202.8274" cy="299.6033" fill="#FFF0F3" rx="49.8274" ry="15.494" style="stroke:#FF5E8E;stroke-width:0.5;"/><text fill="#000000" font-family="sans-serif" font-size="14" lengthAdjust="spacing" textLength="54" x="173.1067" y="304.0578">Xem kho</text></g><g id="elem_U4"><ellipse cx="202.8032" cy="365.618" fill="#FFF0F3" rx="51.3032" ry="15.5087" style="stroke:#FF5E8E;stroke-width:0.5;"/><text fill="#000000" font-family="sans-serif" font-size="14" lengthAdjust="spacing" textLength="56" x="171.8032" y="370.1347">T&#236;m ki&#7871;m</text></g><g id="elem_U5"><ellipse cx="203.0646" cy="431.6106" fill="#FFF0F3" rx="50.5646" ry="15.5012" style="stroke:#FF5E8E;stroke-width:0.5;"/><text fill="#000000" font-family="sans-serif" font-size="14" lengthAdjust="spacing" textLength="55" x="172.5737" y="436.1252">Xu&#7845;t kho</text></g><g id="elem_LOGIN"><ellipse cx="452.6463" cy="262.7036" fill="#FFF0F3" rx="61.6463" ry="15.5942" style="stroke:#FF5E8E;stroke-width:0.5;"/><text fill="#000000" font-family="sans-serif" font-size="14" lengthAdjust="spacing" textLength="70" x="414.6463" y="267.2202">&#272;&#259;ng nh&#7853;p</text></g><!--entity ACT0--><g id="elem_ACT0"><ellipse cx="37.5" cy="250.6094" fill="#F1F1F1" rx="16" ry="16" style="stroke:#181818;stroke-width:0.5;"/><path d="M37.5,270.6094 C41.5,270.6094 44.5,270.6094 48.5,266.6094 C56.5,266.6094 64.5,274.6094 64.5,282.6094 L64.5,286.6094 C64.5,290.6094 60.5,294.6094 56.5,294.6094 L18.5,294.6094 C14.5,294.6094 10.5,290.6094 10.5,286.6094 L10.5,282.6094 C10.5,274.6094 18.5,266.6094 26.5,266.6094 C30.5,270.6094 33.5,270.6094 37.5,270.6094 " fill="#F1F1F1" style="stroke:#181818;stroke-width:0.5;"/><text fill="#000000" font-family="sans-serif" font-size="14" lengthAdjust="spacing" textLength="63" x="6" y="309.6426">Nh&#226;n vi&#234;n</text></g><!--link ACT0 to U0--><g id="link_ACT0_U0"><path d="M49.1,233.8794 C59.37,202.4594 77.9,159.5394 108,132.6094 C119.77,122.0794 135.05,114.7394 149.86,109.6494 " fill="none" id="ACT0-U0" style="stroke:#444444;stroke-width:1.0;"/></g><!--link ACT0 to U1--><g id="link_ACT0_U1"><path d="M68.62,234.0694 C79.86,221.3794 93.45,208.1494 108,198.6094 C122.61,189.0294 140.32,181.8694 156.41,176.7194 " fill="none" id="ACT0-U1" style="stroke:#444444;stroke-width:1.0;"/></g><!--link ACT0 to U2--><g id="link_ACT0_U2"><path d="M69.25,265.8994 C93.67,259.7694 128.2,251.1194 155.93,244.1594 " fill="none" id="ACT0-U2" style="stroke:#444444;stroke-width:1.0;"/></g><!--link ACT0 to U3--><g id="link_ACT0_U3"><path d="M69.25,278.4994 C94.32,282.4894 130.04,288.1694 158.12,292.6294 " fill="none" id="ACT0-U3" style="stroke:#444444;stroke-width:1.0;"/></g><!--link ACT0 to U4--><g id="link_ACT0_U4"><path d="M69.18,303.8594 C80.66,314.0094 94.27,324.7394 108,332.6094 C125.25,342.5094 145.98,350.1694 163.57,355.6094 " fill="none" id="ACT0-U4" style="stroke:#444444;stroke-width:1.0;"/></g><!--link ACT0 to U5--><g id="link_ACT0_U5"><path d="M51.89,313.2494 C63,340.6694 81.33,376.1194 108,398.6094 C122.55,410.8694 141.95,418.6894 159.34,423.6194 " fill="none" id="ACT0-U5" style="stroke:#444444;stroke-width:1.0;"/></g><!--link U0 to LOGIN--><g id="link_U0_LOGIN"><path d="M241.74,112.5094 C274.78,125.6194 323.28,147.1694 361,173.6094 C392.04,195.3694 418.3041,223.5134 434.7741,242.6334 " fill="none" id="U0-to-LOGIN" style="stroke:#444444;stroke-width:1.0;stroke-dasharray:7.0,7.0;"/><polygon fill="#444444" points="438.69,247.1794,435.8468,237.7498,435.4268,243.3911,429.7855,242.971,438.69,247.1794" style="stroke:#444444;stroke-width:1.0;"/><text fill="#000000" font-family="sans-serif" font-size="13" lengthAdjust="spacing" textLength="55" x="305" y="139.1045">&#171;include&#187;</text></g><!--link U1 to LOGIN--><g id="link_U1_LOGIN"><path d="M243.81,177.9394 C275.82,188.1694 321.77,203.5994 361,219.6094 C382.58,228.4194 400.9986,237.1058 418.7586,245.9458 " fill="none" id="U1-to-LOGIN" style="stroke:#444444;stroke-width:1.0;stroke-dasharray:7.0,7.0;"/><polygon fill="#444444" points="424.13,248.6194,417.8553,241.028,419.6538,246.3914,414.2905,248.1899,424.13,248.6194" style="stroke:#444444;stroke-width:1.0;"/><text fill="#000000" font-family="sans-serif" font-size="13" lengthAdjust="spacing" textLength="55" x="305" y="196.1045">&#171;include&#187;</text></g><!--link U2 to LOGIN--><g id="link_U2_LOGIN"><path d="M263.91,239.8694 C304.4,244.7794 351.4836,250.4873 390.8336,255.2573 " fill="none" id="U2-to-LOGIN" style="stroke:#444444;stroke-width:1.0;stroke-dasharray:7.0,7.0;"/><polygon fill="#444444" points="396.79,255.9794,388.3368,250.9254,391.8263,255.3777,387.374,258.8673,396.79,255.9794" style="stroke:#444444;stroke-width:1.0;"/><text fill="#000000" font-family="sans-serif" font-size="13" lengthAdjust="spacing" textLength="55" x="305" y="242.1045">&#171;include&#187;</text></g><!--link U3 to LOGIN--><g id="link_U3_LOGIN"><path d="M249.39,293.5594 C280.77,289.2994 323.45,283.3494 361,277.6094 C373.91,275.6394 381.9108,274.3706 394.8808,272.2206 " fill="none" id="U3-to-LOGIN" style="stroke:#444444;stroke-width:1.0;stroke-dasharray:7.0,7.0;"/><polygon fill="#444444" points="400.8,271.2394,391.267,268.765,395.8673,272.0571,392.5753,276.6573,400.8,271.2394" style="stroke:#444444;stroke-width:1.0;"/><text fill="#000000" font-family="sans-serif" font-size="13" lengthAdjust="spacing" textLength="55" x="305" y="274.1045">&#171;include&#187;</text></g><!--link U4 to LOGIN--><g id="link_U4_LOGIN"><path d="M241.19,355.1094 C273.46,345.5194 321.12,330.1894 361,312.6094 C384.65,302.1794 405.1782,290.7449 423.1182,280.0349 " fill="none" id="U4-to-LOGIN" style="stroke:#444444;stroke-width:1.0;stroke-dasharray:7.0,7.0;"/><polygon fill="#444444" points="428.27,276.9594,418.4919,278.1382,423.9768,279.5223,422.5927,285.0072,428.27,276.9594" style="stroke:#444444;stroke-width:1.0;"/><text fill="#000000" font-family="sans-serif" font-size="13" lengthAdjust="spacing" textLength="55" x="305" y="309.1045">&#171;include&#187;</text></g><!--link U5 to LOGIN--><g id="link_U5_LOGIN"><path d="M238.56,420.5194 C271.85,408.8294 322.67,388.2594 361,360.6094 C394.24,336.6294 421.1859,303.7638 436.8659,282.8038 " fill="none" id="U5-to-LOGIN" style="stroke:#444444;stroke-width:1.0;stroke-dasharray:7.0,7.0;"/><polygon fill="#444444" points="440.46,277.9994,431.8659,282.8099,437.4649,282.003,438.2717,287.6021,440.46,277.9994" style="stroke:#444444;stroke-width:1.0;"/><text fill="#000000" font-family="sans-serif" font-size="13" lengthAdjust="spacing" textLength="55" x="305" y="357.1045">&#171;include&#187;</text></g><!--SRC=[TP31IiD048RlUOeXNlJGaZOfYfH2BOq8KX4RyBeassHfibiscnOHJpw0WYzG52_5dhorY8VqHV8cRbBjfc3sz3FVF__EJ8X70WG3Jln0W4SuTWLXL8l7X4uGHn740VBOZ50VHYYCSObCa3j6FhuHTo66l15HFomRa2iOts8qmp6BoZ29iOjY3FSQm9bCyZbBgDTZ8UDmODksOPivOTp3V5TjzK_wijhbdCr-YrRnj0TD424_ScHaaUi610J9Ljy2Qd2TPAit2c7w1UE0GP3EvJw7JiyuFjAAAK4V1EahXIb95rG754EtDpIqtLQW_nUX5zF_RQ8FWtGHmJITiznIf3X6sN2JhPS8HBP-eShHA3jkqqyaKRP-8ihHt7FWI15px_lqGw9yvMXBhRq-EV-xKAsjCjmyRnxbHMYGhPQJWbzUdLyCv5NpCq2jbY-oamqbcqgQIbfAjZJ7W7gzims4KsYt2NN3nCETZkOqgb6p6fdLoAf6hIhq0m00]--></g></svg>