<?xml version="1.0" encoding="us-ascii" standalone="no"?><svg xmlns="http://www.w3.org/2000/svg" xmlns:xlink="http://www.w3.org/1999/xlink" contentStyleType="text/css" height="244px" preserveAspectRatio="none" style="width:367px;height:244px;background:#FFFFFF;" version="1.1" viewBox="0 0 367 244" width="367px" zoomAndPan="magnify"><defs/><g><text fill="#000000" font-family="sans-serif" font-size="14" font-weight="bold" lengthAdjust="spacing" textLength="254" x="49.5" y="24.5332">Use case chi ti&#7871;t - &#272;&#259;ng nh&#7853;p (UC04)</text><!--cluster ??ng nh?p--><g id="cluster_&#272;&#259;ng nh&#7853;p"><rect fill="none" height="170" rx="2.5" ry="2.5" style="stroke:#181818;stroke-width:1.0;" width="235" x="126" y="45.6094"/><text fill="#000000" font-family="sans-serif" font-size="14" font-weight="bold" lengthAdjust="spacing" textLength="75" x="206" y="62.1426">&#272;&#259;ng nh&#7853;p</text></g><g id="elem_U0"><ellipse cx="243.3975" cy="104.7889" fill="#FFF0F3" rx="101.3975" ry="22.6795" style="stroke:#FF5E8E;stroke-width:0.5;"/><text fill="#000000" font-family="sans-serif" font-size="14" lengthAdjust="spacing" textLength="164" x="161.3975" y="108.5174">Nh&#7853;p th&#244;ng tin &#273;&#259;ng nh&#7853;p</text></g><g id="elem_U1"><ellipse cx="243.597" cy="180.7288" fill="#FFF0F3" rx="81.097" ry="18.6194" style="stroke:#FF5E8E;stroke-width:0.5;"/><text fill="#000000" font-family="sans-serif" font-size="14" lengthAdjust="spacing" textLength="117" x="184.5843" y="184.6075">X&#225;c th&#7921;c t&#224;i kho&#7843;n</text></g><!--entity ACT0--><g id="elem_ACT0"><ellipse cx="44" cy="62.6094" fill="#F1F1F1" rx="16" ry="16" style="stroke:#181818;stroke-width:0.5;"/><path d="M44,82.6094 C48,82.6094 51,82.6094 55,78.6094 C63,78.6094 71,86.6094 71,94.6094 L71,98.6094 C71,102.6094 67,106.6094 63,106.6094 L25,106.6094 C21,106.6094 17,102.6094 17,98.6094 L17,94.6094 C17,86.6094 25,78.6094 33,78.6094 C37,82.6094 40,82.6094 44,82.6094 " fill="#F1F1F1" style="stroke:#181818;stroke-width:0.5;"/><text fill="#000000" font-family="sans-serif" font-size="14" lengthAdjust="spacing" textLength="39" x="24.5" y="121.6426">Admin</text></g><!--entity ACT1--><g id="elem_ACT1"><ellipse cx="44" cy="176.6094" fill="#F1F1F1" rx="16" ry="16" style="stroke:#181818;stroke-width:0.5;"/><path d="M44,196.6094 C48,196.6094 51,196.6094 55,192.6094 C63,192.6094 71,200.6094 71,208.6094 L71,212.6094 C71,216.6094 67,220.6094 63,220.6094 L25,220.6094 C21,220.6094 17,216.6094 17,212.6094 L17,208.6094 C17,200.6094 25,192.6094 33,192.6094 C37,196.6094 40,196.6094 44,196.6094 " fill="#F1F1F1" style="stroke:#181818;stroke-width:0.5;"/><text fill="#000000" font-family="sans-serif" font-size="14" lengthAdjust="spacing" textLength="76" x="6" y="235.6426">Kh&#225;ch h&#224;ng</text></g><!--link ACT0 to U0--><g id="link_ACT0_U0"><path d="M71.64,88.1694 C91.96,90.1294 121.24,92.9394 149.83,95.6994 " fill="none" id="ACT0-U0" style="stroke:#444444;stroke-width:1.0;"/></g><!--link ACT0 to U1--><g id="link_ACT0_U1"><path d="M71.58,111.4094 C84.68,122.9394 101.24,135.8694 118,144.6094 C137.95,155.0094 161.31,162.7794 182.38,168.3894 " fill="none" id="ACT0-U1" style="stroke:#444444;stroke-width:1.0;"/></g><!--link ACT1 to U0--><g id="link_ACT1_U0"><path d="M82.04,167.9394 C93.1,159.5394 105.6,151.0394 118,144.6094 C136.04,135.2594 156.68,127.5594 175.9,121.4894 " fill="none" id="ACT1-U0" style="stroke:#444444;stroke-width:1.0;"/></g><!--link ACT1 to U1--><g id="link_ACT1_U1"><path d="M82.15,196.0394 C106.51,193.6894 139.19,190.5494 168.7,187.7094 " fill="none" id="ACT1-U1" style="stroke:#444444;stroke-width:1.0;"/></g><!--SRC=[LK-nJeKm5Dtx5JUuw402yPcu8dai9YvAujgKlhO1MjBsXHZZv0_e7ppZx63YX8C3_0X_OW51NfVUd7FkEVSKT6V1Aj22SGkPq9HOeIGokP0LrhW4mt6cQY4Px71Xw8gfCCanexVseQ0mB6B9YhK04wlqHEEQ6bMkoRsX11iAZmZWoZanhVOoYrMXD9maIH8avmEZT4RrWbviBxSEZRHMzH-u6HzwGbPO5vGwoz6NS05MzCsF1H-wb-xPDP2yRpugE4tZO7E6nlF0Yx9II0-mWIY-2sRqchTlX0Dl3vBDP8YMbk0TMNfZZRcITpFbMDv-EOaL4hhN8xNpIuFrnhrBS_h- -zDzxK50pbNVl4ztfQ6hDnm7lZ_iBMCuZE4_EetXBm00]--></g></svg>